<?xml version="1.0" encoding="UTF-8" standalone="no"?>
<!DOCTYPE svg PUBLIC "-//W3C//DTD SVG 1.1//EN"
 "http://www.w3.org/Graphics/SVG/1.1/DTD/svg11.dtd">
<!-- Generated by graphviz version 2.42.4 (0)
 -->
<!-- Title: G Pages: 1 -->
<svg width="1796pt" height="729pt"
 viewBox="0.00 0.00 1796.20 728.73" xmlns="http://www.w3.org/2000/svg" xmlns:xlink="http://www.w3.org/1999/xlink">
<g id="graph0" class="graph" transform="scale(1 1) rotate(0) translate(21.6 707.13)">
<title>G</title>
<polygon fill="#111111" stroke="transparent" points="-21.6,21.6 -21.6,-707.13 1774.6,-707.13 1774.6,21.6 -21.6,21.6"/>
<!-- app.js -->
<g id="node1" class="node">
<title>app.js</title>
<path fill="none" stroke="#c6c5fe" d="M374.83,-327.53C374.83,-327.53 336.17,-327.53 336.17,-327.53 332.33,-327.53 328.5,-323.7 328.5,-319.87 328.5,-319.87 328.5,-312.2 328.5,-312.2 328.5,-308.37 332.33,-304.53 336.17,-304.53 336.17,-304.53 374.83,-304.53 374.83,-304.53 378.67,-304.53 382.5,-308.37 382.5,-312.2 382.5,-312.2 382.5,-319.87 382.5,-319.87 382.5,-323.7 378.67,-327.53 374.83,-327.53"/>
<text text-anchor="middle" x="355.5" y="-312.33" font-family="Arial" font-size="14.00" fill="#c6c5fe">app.js</text>
</g>
<!-- controllers/EntryFields.js -->
<g id="node2" class="node">
<title>controllers/EntryFields.js</title>
<path fill="none" stroke="#c6c5fe" d="M629.83,-627.53C629.83,-627.53 481.17,-627.53 481.17,-627.53 477.33,-627.53 473.5,-623.7 473.5,-619.87 473.5,-619.87 473.5,-612.2 473.5,-612.2 473.5,-608.37 477.33,-604.53 481.17,-604.53 481.17,-604.53 629.83,-604.53 629.83,-604.53 633.67,-604.53 637.5,-608.37 637.5,-612.2 637.5,-612.2 637.5,-619.87 637.5,-619.87 637.5,-623.7 633.67,-627.53 629.83,-627.53"/>
<text text-anchor="middle" x="555.5" y="-612.33" font-family="Arial" font-size="14.00" fill="#c6c5fe">controllers/EntryFields.js</text>
</g>
<!-- app.js&#45;&gt;controllers/EntryFields.js -->
<g id="edge1" class="edge">
<title>app.js&#45;&gt;controllers/EntryFields.js</title>
<path fill="none" stroke="#757575" d="M356.88,-327.74C358.74,-366.34 369.69,-491.21 434,-563.03 450,-580.91 473.14,-593.03 494.87,-601.12"/>
<polygon fill="#757575" stroke="#757575" points="493.81,-604.45 504.4,-604.45 496.12,-597.85 493.81,-604.45"/>
</g>
<!-- controllers/aggregationController.js -->
<g id="node3" class="node">
<title>controllers/aggregationController.js</title>
<path fill="none" stroke="#c6c5fe" d="M930.33,-266.53C930.33,-266.53 720.67,-266.53 720.67,-266.53 716.83,-266.53 713,-262.7 713,-258.87 713,-258.87 713,-251.2 713,-251.2 713,-247.37 716.83,-243.53 720.67,-243.53 720.67,-243.53 930.33,-243.53 930.33,-243.53 934.17,-243.53 938,-247.37 938,-251.2 938,-251.2 938,-258.87 938,-258.87 938,-262.7 934.17,-266.53 930.33,-266.53"/>
<text text-anchor="middle" x="825.5" y="-251.33" font-family="Arial" font-size="14.00" fill="#c6c5fe">controllers/aggregationController.js</text>
</g>
<!-- app.js&#45;&gt;controllers/aggregationController.js -->
<g id="edge2" class="edge">
<title>app.js&#45;&gt;controllers/aggregationController.js</title>
<path fill="none" stroke="#757575" d="M382.56,-309.61C397.53,-306.1 416.74,-301.89 434,-299.03 523.54,-284.21 625.47,-272.91 702.73,-265.48"/>
<polygon fill="#757575" stroke="#757575" points="703.36,-268.93 712.98,-264.5 702.7,-261.96 703.36,-268.93"/>
</g>
<!-- controllers/auditLogController.js -->
<g id="node4" class="node">
<title>controllers/auditLogController.js</title>
<path fill="none" stroke="#c6c5fe" d="M650.83,-494.53C650.83,-494.53 460.17,-494.53 460.17,-494.53 456.33,-494.53 452.5,-490.7 452.5,-486.87 452.5,-486.87 452.5,-479.2 452.5,-479.2 452.5,-475.37 456.33,-471.53 460.17,-471.53 460.17,-471.53 650.83,-471.53 650.83,-471.53 654.67,-471.53 658.5,-475.37 658.5,-479.2 658.5,-479.2 658.5,-486.87 658.5,-486.87 658.5,-490.7 654.67,-494.53 650.83,-494.53"/>
<text text-anchor="middle" x="555.5" y="-479.33" font-family="Arial" font-size="14.00" fill="#c6c5fe">controllers/auditLogController.js</text>
</g>
<!-- app.js&#45;&gt;controllers/auditLogController.js -->
<g id="edge3" class="edge">
<title>app.js&#45;&gt;controllers/auditLogController.js</title>
<path fill="none" stroke="#757575" d="M359.94,-327.64C368.21,-353.54 391.75,-416.3 434,-449.03 444.54,-457.2 456.96,-463.41 469.74,-468.12"/>
<polygon fill="#757575" stroke="#757575" points="468.96,-471.55 479.55,-471.44 471.2,-464.92 468.96,-471.55"/>
</g>
<!-- controllers/entryController.js -->
<g id="node5" class="node">
<title>controllers/entryController.js</title>
<path fill="none" stroke="#c6c5fe" d="M639.83,-439.53C639.83,-439.53 471.17,-439.53 471.17,-439.53 467.33,-439.53 463.5,-435.7 463.5,-431.87 463.5,-431.87 463.5,-424.2 463.5,-424.2 463.5,-420.37 467.33,-416.53 471.17,-416.53 471.17,-416.53 639.83,-416.53 639.83,-416.53 643.67,-416.53 647.5,-420.37 647.5,-424.2 647.5,-424.2 647.5,-431.87 647.5,-431.87 647.5,-435.7 643.67,-439.53 639.83,-439.53"/>
<text text-anchor="middle" x="555.5" y="-424.33" font-family="Arial" font-size="14.00" fill="#c6c5fe">controllers/entryController.js</text>
</g>
<!-- app.js&#45;&gt;controllers/entryController.js -->
<g id="edge4" class="edge">
<title>app.js&#45;&gt;controllers/entryController.js</title>
<path fill="none" stroke="#757575" d="M364.26,-327.82C376.75,-345.82 403.05,-379.95 434,-398.03 445.12,-404.53 457.62,-409.63 470.25,-413.63"/>
<polygon fill="#757575" stroke="#757575" points="469.32,-417.01 479.9,-416.48 471.3,-410.3 469.32,-417.01"/>
</g>
<!-- controllers/folderController.js -->
<g id="node6" class="node">
<title>controllers/folderController.js</title>
<path fill="none" stroke="#c6c5fe" d="M641.83,-553.53C641.83,-553.53 469.17,-553.53 469.17,-553.53 465.33,-553.53 461.5,-549.7 461.5,-545.87 461.5,-545.87 461.5,-538.2 461.5,-538.2 461.5,-534.37 465.33,-530.53 469.17,-530.53 469.17,-530.53 641.83,-530.53 641.83,-530.53 645.67,-530.53 649.5,-534.37 649.5,-538.2 649.5,-538.2 649.5,-545.87 649.5,-545.87 649.5,-549.7 645.67,-553.53 641.83,-553.53"/>
<text text-anchor="middle" x="555.5" y="-538.33" font-family="Arial" font-size="14.00" fill="#c6c5fe">controllers/folderController.js</text>
</g>
<!-- app.js&#45;&gt;controllers/folderController.js -->
<g id="edge5" class="edge">
<title>app.js&#45;&gt;controllers/folderController.js</title>
<path fill="none" stroke="#757575" d="M357.88,-327.67C362.39,-360.41 379.64,-454.14 434,-504.03 445.14,-514.25 459.01,-521.73 473.33,-527.19"/>
<polygon fill="#757575" stroke="#757575" points="472.2,-530.5 482.79,-530.5 474.51,-523.89 472.2,-530.5"/>
</g>
<!-- controllers/groupController.js -->
<g id="node7" class="node">
<title>controllers/groupController.js</title>
<path fill="none" stroke="#c6c5fe" d="M641.83,-388.53C641.83,-388.53 469.17,-388.53 469.17,-388.53 465.33,-388.53 461.5,-384.7 461.5,-380.87 461.5,-380.87 461.5,-373.2 461.5,-373.2 461.5,-369.37 465.33,-365.53 469.17,-365.53 469.17,-365.53 641.83,-365.53 641.83,-365.53 645.67,-365.53 649.5,-369.37 649.5,-373.2 649.5,-373.2 649.5,-380.87 649.5,-380.87 649.5,-384.7 645.67,-388.53 641.83,-388.53"/>
<text text-anchor="middle" x="555.5" y="-373.33" font-family="Arial" font-size="14.00" fill="#c6c5fe">controllers/groupController.js</text>
</g>
<!-- app.js&#45;&gt;controllers/groupController.js -->
<g id="edge6" class="edge">
<title>app.js&#45;&gt;controllers/groupController.js</title>
<path fill="none" stroke="#757575" d="M379.78,-327.66C394.94,-334.87 415.29,-343.9 434,-350.03 449.44,-355.1 466.29,-359.53 482.37,-363.26"/>
<polygon fill="#757575" stroke="#757575" points="481.74,-366.7 492.27,-365.49 483.28,-359.87 481.74,-366.7"/>
</g>
<!-- controllers/profileController.js -->
<g id="node8" class="node">
<title>controllers/profileController.js</title>
<path fill="none" stroke="#c6c5fe" d="M913.33,-348.53C913.33,-348.53 737.67,-348.53 737.67,-348.53 733.83,-348.53 730,-344.7 730,-340.87 730,-340.87 730,-333.2 730,-333.2 730,-329.37 733.83,-325.53 737.67,-325.53 737.67,-325.53 913.33,-325.53 913.33,-325.53 917.17,-325.53 921,-329.37 921,-333.2 921,-333.2 921,-340.87 921,-340.87 921,-344.7 917.17,-348.53 913.33,-348.53"/>
<text text-anchor="middle" x="825.5" y="-333.33" font-family="Arial" font-size="14.00" fill="#c6c5fe">controllers/profileController.js</text>
</g>
<!-- app.js&#45;&gt;controllers/profileController.js -->
<g id="edge7" class="edge">
<title>app.js&#45;&gt;controllers/profileController.js</title>
<path fill="none" stroke="#757575" d="M382.67,-318.31C397.68,-319.56 416.89,-321.04 434,-322.03 530.58,-327.63 640.73,-331.64 719.36,-334.1"/>
<polygon fill="#757575" stroke="#757575" points="719.66,-337.61 729.76,-334.42 719.87,-330.62 719.66,-337.61"/>
</g>
<!-- controllers/triggerController.js -->
<g id="node9" class="node">
<title>controllers/triggerController.js</title>
<path fill="none" stroke="#c6c5fe" d="M643.83,-187.53C643.83,-187.53 467.17,-187.53 467.17,-187.53 463.33,-187.53 459.5,-183.7 459.5,-179.87 459.5,-179.87 459.5,-172.2 459.5,-172.2 459.5,-168.37 463.33,-164.53 467.17,-164.53 467.17,-164.53 643.83,-164.53 643.83,-164.53 647.67,-164.53 651.5,-168.37 651.5,-172.2 651.5,-172.2 651.5,-179.87 651.5,-179.87 651.5,-183.7 647.67,-187.53 643.83,-187.53"/>
<text text-anchor="middle" x="555.5" y="-172.33" font-family="Arial" font-size="14.00" fill="#c6c5fe">controllers/triggerController.js</text>
</g>
<!-- app.js&#45;&gt;controllers/triggerController.js -->
<g id="edge8" class="edge">
<title>app.js&#45;&gt;controllers/triggerController.js</title>
<path fill="none" stroke="#757575" d="M360.49,-304.25C369.42,-279.83 393.45,-223.77 434,-197.03 438.94,-193.78 444.23,-190.98 449.74,-188.58"/>
<polygon fill="#757575" stroke="#757575" points="451.14,-191.79 459.2,-184.91 448.61,-185.27 451.14,-191.79"/>
</g>
<!-- controllers/userFcmTokenController.js -->
<g id="node10" class="node">
<title>controllers/userFcmTokenController.js</title>
<path fill="none" stroke="#c6c5fe" d="M669.33,-229.53C669.33,-229.53 441.67,-229.53 441.67,-229.53 437.83,-229.53 434,-225.7 434,-221.87 434,-221.87 434,-214.2 434,-214.2 434,-210.37 437.83,-206.53 441.67,-206.53 441.67,-206.53 669.33,-206.53 669.33,-206.53 673.17,-206.53 677,-210.37 677,-214.2 677,-214.2 677,-221.87 677,-221.87 677,-225.7 673.17,-229.53 669.33,-229.53"/>
<text text-anchor="middle" x="555.5" y="-214.33" font-family="Arial" font-size="14.00" fill="#c6c5fe">controllers/userFcmTokenController.js</text>
</g>
<!-- app.js&#45;&gt;controllers/userFcmTokenController.js -->
<g id="edge9" class="edge">
<title>app.js&#45;&gt;controllers/userFcmTokenController.js</title>
<path fill="none" stroke="#757575" d="M365.63,-304.26C378.87,-288.05 405.01,-259.15 434,-244.03 442.99,-239.35 452.78,-235.51 462.76,-232.36"/>
<polygon fill="#757575" stroke="#757575" points="463.76,-235.71 472.37,-229.54 461.79,-228.99 463.76,-235.71"/>
</g>
<!-- middlewares/access.js -->
<g id="node11" class="node">
<title>middlewares/access.js</title>
<path fill="none" stroke="#c6c5fe" d="M893.83,-307.53C893.83,-307.53 757.17,-307.53 757.17,-307.53 753.33,-307.53 749.5,-303.7 749.5,-299.87 749.5,-299.87 749.5,-292.2 749.5,-292.2 749.5,-288.37 753.33,-284.53 757.17,-284.53 757.17,-284.53 893.83,-284.53 893.83,-284.53 897.67,-284.53 901.5,-288.37 901.5,-292.2 901.5,-292.2 901.5,-299.87 901.5,-299.87 901.5,-303.7 897.67,-307.53 893.83,-307.53"/>
<text text-anchor="middle" x="825.5" y="-292.33" font-family="Arial" font-size="14.00" fill="#c6c5fe">middlewares/access.js</text>
</g>
<!-- app.js&#45;&gt;middlewares/access.js -->
<g id="edge10" class="edge">
<title>app.js&#45;&gt;middlewares/access.js</title>
<path fill="none" stroke="#757575" d="M382.66,-314.92C449.8,-312.05 630.47,-304.33 738.86,-299.69"/>
<polygon fill="#757575" stroke="#757575" points="739.28,-303.18 749.12,-299.25 738.98,-296.18 739.28,-303.18"/>
</g>
<!-- middlewares/auth.js -->
<g id="node12" class="node">
<title>middlewares/auth.js</title>
<path fill="none" stroke="#c6c5fe" d="M1582.33,-70.53C1582.33,-70.53 1460.67,-70.53 1460.67,-70.53 1456.83,-70.53 1453,-66.7 1453,-62.87 1453,-62.87 1453,-55.2 1453,-55.2 1453,-51.37 1456.83,-47.53 1460.67,-47.53 1460.67,-47.53 1582.33,-47.53 1582.33,-47.53 1586.17,-47.53 1590,-51.37 1590,-55.2 1590,-55.2 1590,-62.87 1590,-62.87 1590,-66.7 1586.17,-70.53 1582.33,-70.53"/>
<text text-anchor="middle" x="1521.5" y="-55.33" font-family="Arial" font-size="14.00" fill="#c6c5fe">middlewares/auth.js</text>
</g>
<!-- app.js&#45;&gt;middlewares/auth.js -->
<g id="edge11" class="edge">
<title>app.js&#45;&gt;middlewares/auth.js</title>
<path fill="none" stroke="#757575" d="M358.4,-304.44C363.96,-274.41 383.16,-193.75 434,-155.03 592.03,-34.69 1220.74,-47.12 1442.54,-55.53"/>
<polygon fill="#757575" stroke="#757575" points="1442.66,-59.03 1452.79,-55.92 1442.93,-52.04 1442.66,-59.03"/>
</g>
<!-- services/EntryFields.js -->
<g id="node20" class="node">
<title>services/EntryFields.js</title>
<path fill="none" stroke="#c6c5fe" d="M893.33,-645.53C893.33,-645.53 757.67,-645.53 757.67,-645.53 753.83,-645.53 750,-641.7 750,-637.87 750,-637.87 750,-630.2 750,-630.2 750,-626.37 753.83,-622.53 757.67,-622.53 757.67,-622.53 893.33,-622.53 893.33,-622.53 897.17,-622.53 901,-626.37 901,-630.2 901,-630.2 901,-637.87 901,-637.87 901,-641.7 897.17,-645.53 893.33,-645.53"/>
<text text-anchor="middle" x="825.5" y="-630.33" font-family="Arial" font-size="14.00" fill="#c6c5fe">services/EntryFields.js</text>
</g>
<!-- controllers/EntryFields.js&#45;&gt;services/EntryFields.js -->
<g id="edge12" class="edge">
<title>controllers/EntryFields.js&#45;&gt;services/EntryFields.js</title>
<path fill="none" stroke="#757575" d="M637.64,-621.48C669.75,-623.64 706.69,-626.12 739.2,-628.3"/>
<polygon fill="#757575" stroke="#757575" points="739.37,-631.82 749.58,-629 739.84,-624.84 739.37,-631.82"/>
</g>
<!-- services/aggregationService.js -->
<g id="node21" class="node">
<title>services/aggregationService.js</title>
<path fill="none" stroke="#c6c5fe" d="M1175.33,-248.53C1175.33,-248.53 990.67,-248.53 990.67,-248.53 986.83,-248.53 983,-244.7 983,-240.87 983,-240.87 983,-233.2 983,-233.2 983,-229.37 986.83,-225.53 990.67,-225.53 990.67,-225.53 1175.33,-225.53 1175.33,-225.53 1179.17,-225.53 1183,-229.37 1183,-233.2 1183,-233.2 1183,-240.87 1183,-240.87 1183,-244.7 1179.17,-248.53 1175.33,-248.53"/>
<text text-anchor="middle" x="1083" y="-233.33" font-family="Arial" font-size="14.00" fill="#c6c5fe">services/aggregationService.js</text>
</g>
<!-- controllers/aggregationController.js&#45;&gt;services/aggregationService.js -->
<g id="edge13" class="edge">
<title>controllers/aggregationController.js&#45;&gt;services/aggregationService.js</title>
<path fill="none" stroke="#757575" d="M938.19,-247.16C949.72,-246.35 961.43,-245.53 972.93,-244.72"/>
<polygon fill="#757575" stroke="#757575" points="973.24,-248.2 982.97,-244.01 972.75,-241.22 973.24,-248.2"/>
</g>
<!-- services/auditLogService.js -->
<g id="node22" class="node">
<title>services/auditLogService.js</title>
<path fill="none" stroke="#c6c5fe" d="M1400.33,-489.53C1400.33,-489.53 1235.67,-489.53 1235.67,-489.53 1231.83,-489.53 1228,-485.7 1228,-481.87 1228,-481.87 1228,-474.2 1228,-474.2 1228,-470.37 1231.83,-466.53 1235.67,-466.53 1235.67,-466.53 1400.33,-466.53 1400.33,-466.53 1404.17,-466.53 1408,-470.37 1408,-474.2 1408,-474.2 1408,-481.87 1408,-481.87 1408,-485.7 1404.17,-489.53 1400.33,-489.53"/>
<text text-anchor="middle" x="1318" y="-474.33" font-family="Arial" font-size="14.00" fill="#c6c5fe">services/auditLogService.js</text>
</g>
<!-- controllers/auditLogController.js&#45;&gt;services/auditLogService.js -->
<g id="edge14" class="edge">
<title>controllers/auditLogController.js&#45;&gt;services/auditLogService.js</title>
<path fill="none" stroke="#757575" d="M658.59,-482.91C784.14,-482.67 1003.76,-481.98 1192,-480.03 1200.35,-479.95 1209,-479.84 1217.69,-479.72"/>
<polygon fill="#757575" stroke="#757575" points="1217.94,-483.22 1227.89,-479.58 1217.84,-476.22 1217.94,-483.22"/>
</g>
<!-- services/entryService.js -->
<g id="node23" class="node">
<title>services/entryService.js</title>
<path fill="none" stroke="#c6c5fe" d="M896.83,-449.53C896.83,-449.53 754.17,-449.53 754.17,-449.53 750.33,-449.53 746.5,-445.7 746.5,-441.87 746.5,-441.87 746.5,-434.2 746.5,-434.2 746.5,-430.37 750.33,-426.53 754.17,-426.53 754.17,-426.53 896.83,-426.53 896.83,-426.53 900.67,-426.53 904.5,-430.37 904.5,-434.2 904.5,-434.2 904.5,-441.87 904.5,-441.87 904.5,-445.7 900.67,-449.53 896.83,-449.53"/>
<text text-anchor="middle" x="825.5" y="-434.33" font-family="Arial" font-size="14.00" fill="#c6c5fe">services/entryService.js</text>
</g>
<!-- controllers/entryController.js&#45;&gt;services/entryService.js -->
<g id="edge15" class="edge">
<title>controllers/entryController.js&#45;&gt;services/entryService.js</title>
<path fill="none" stroke="#757575" d="M647.61,-431.43C676.12,-432.5 707.54,-433.67 735.88,-434.73"/>
<polygon fill="#757575" stroke="#757575" points="736.05,-438.24 746.17,-435.11 736.31,-431.24 736.05,-438.24"/>
</g>
<!-- services/folderService.js -->
<g id="node24" class="node">
<title>services/folderService.js</title>
<path fill="none" stroke="#c6c5fe" d="M898.83,-567.53C898.83,-567.53 752.17,-567.53 752.17,-567.53 748.33,-567.53 744.5,-563.7 744.5,-559.87 744.5,-559.87 744.5,-552.2 744.5,-552.2 744.5,-548.37 748.33,-544.53 752.17,-544.53 752.17,-544.53 898.83,-544.53 898.83,-544.53 902.67,-544.53 906.5,-548.37 906.5,-552.2 906.5,-552.2 906.5,-559.87 906.5,-559.87 906.5,-563.7 902.67,-567.53 898.83,-567.53"/>
<text text-anchor="middle" x="825.5" y="-552.33" font-family="Arial" font-size="14.00" fill="#c6c5fe">services/folderService.js</text>
</g>
<!-- controllers/folderController.js&#45;&gt;services/folderService.js -->
<g id="edge16" class="edge">
<title>controllers/folderController.js&#45;&gt;services/folderService.js</title>
<path fill="none" stroke="#757575" d="M649.86,-546.91C677.18,-548.34 707,-549.9 734.14,-551.31"/>
<polygon fill="#757575" stroke="#757575" points="734.23,-554.82 744.39,-551.85 734.59,-547.83 734.23,-554.82"/>
</g>
<!-- services/groupService.js -->
<g id="node25" class="node">
<title>services/groupService.js</title>
<path fill="none" stroke="#c6c5fe" d="M899.33,-389.53C899.33,-389.53 751.67,-389.53 751.67,-389.53 747.83,-389.53 744,-385.7 744,-381.87 744,-381.87 744,-374.2 744,-374.2 744,-370.37 747.83,-366.53 751.67,-366.53 751.67,-366.53 899.33,-366.53 899.33,-366.53 903.17,-366.53 907,-370.37 907,-374.2 907,-374.2 907,-381.87 907,-381.87 907,-385.7 903.17,-389.53 899.33,-389.53"/>
<text text-anchor="middle" x="825.5" y="-374.33" font-family="Arial" font-size="14.00" fill="#c6c5fe">services/groupService.js</text>
</g>
<!-- controllers/groupController.js&#45;&gt;services/groupService.js -->
<g id="edge17" class="edge">
<title>controllers/groupController.js&#45;&gt;services/groupService.js</title>
<path fill="none" stroke="#757575" d="M649.86,-377.38C677.05,-377.48 706.71,-377.59 733.74,-377.69"/>
<polygon fill="#757575" stroke="#757575" points="733.94,-381.2 743.96,-377.73 733.97,-374.2 733.94,-381.2"/>
</g>
<!-- services/profileService.js -->
<g id="node26" class="node">
<title>services/profileService.js</title>
<path fill="none" stroke="#c6c5fe" d="M1157.83,-328.53C1157.83,-328.53 1008.17,-328.53 1008.17,-328.53 1004.33,-328.53 1000.5,-324.7 1000.5,-320.87 1000.5,-320.87 1000.5,-313.2 1000.5,-313.2 1000.5,-309.37 1004.33,-305.53 1008.17,-305.53 1008.17,-305.53 1157.83,-305.53 1157.83,-305.53 1161.67,-305.53 1165.5,-309.37 1165.5,-313.2 1165.5,-313.2 1165.5,-320.87 1165.5,-320.87 1165.5,-324.7 1161.67,-328.53 1157.83,-328.53"/>
<text text-anchor="middle" x="1083" y="-313.33" font-family="Arial" font-size="14.00" fill="#c6c5fe">services/profileService.js</text>
</g>
<!-- controllers/profileController.js&#45;&gt;services/profileService.js -->
<g id="edge18" class="edge">
<title>controllers/profileController.js&#45;&gt;services/profileService.js</title>
<path fill="none" stroke="#757575" d="M921.28,-329.61C943.81,-327.85 967.82,-325.97 990.22,-324.22"/>
<polygon fill="#757575" stroke="#757575" points="990.69,-327.69 1000.39,-323.42 990.15,-320.71 990.69,-327.69"/>
</g>
<!-- services/triggerService.js -->
<g id="node27" class="node">
<title>services/triggerService.js</title>
<path fill="none" stroke="#c6c5fe" d="M901.33,-186.53C901.33,-186.53 749.67,-186.53 749.67,-186.53 745.83,-186.53 742,-182.7 742,-178.87 742,-178.87 742,-171.2 742,-171.2 742,-167.37 745.83,-163.53 749.67,-163.53 749.67,-163.53 901.33,-163.53 901.33,-163.53 905.17,-163.53 909,-167.37 909,-171.2 909,-171.2 909,-178.87 909,-178.87 909,-182.7 905.17,-186.53 901.33,-186.53"/>
<text text-anchor="middle" x="825.5" y="-171.33" font-family="Arial" font-size="14.00" fill="#c6c5fe">services/triggerService.js</text>
</g>
<!-- controllers/triggerController.js&#45;&gt;services/triggerService.js -->
<g id="edge19" class="edge">
<title>controllers/triggerController.js&#45;&gt;services/triggerService.js</title>
<path fill="none" stroke="#757575" d="M651.74,-175.68C677.64,-175.58 705.65,-175.48 731.43,-175.38"/>
<polygon fill="#757575" stroke="#757575" points="731.58,-178.88 741.57,-175.34 731.56,-171.88 731.58,-178.88"/>
</g>
<!-- services/userFcmTokenService.js -->
<g id="node28" class="node">
<title>services/userFcmTokenService.js</title>
<path fill="none" stroke="#c6c5fe" d="M1184.33,-207.53C1184.33,-207.53 981.67,-207.53 981.67,-207.53 977.83,-207.53 974,-203.7 974,-199.87 974,-199.87 974,-192.2 974,-192.2 974,-188.37 977.83,-184.53 981.67,-184.53 981.67,-184.53 1184.33,-184.53 1184.33,-184.53 1188.17,-184.53 1192,-188.37 1192,-192.2 1192,-192.2 1192,-199.87 1192,-199.87 1192,-203.7 1188.17,-207.53 1184.33,-207.53"/>
<text text-anchor="middle" x="1083" y="-192.33" font-family="Arial" font-size="14.00" fill="#c6c5fe">services/userFcmTokenService.js</text>
</g>
<!-- controllers/userFcmTokenController.js&#45;&gt;services/userFcmTokenService.js -->
<g id="edge20" class="edge">
<title>controllers/userFcmTokenController.js&#45;&gt;services/userFcmTokenService.js</title>
<path fill="none" stroke="#757575" d="M677.06,-212.99C763.05,-209.39 878.11,-204.57 963.6,-200.99"/>
<polygon fill="#757575" stroke="#757575" points="963.77,-204.49 973.61,-200.57 963.47,-197.49 963.77,-204.49"/>
</g>
<!-- middlewares/access.js&#45;&gt;services/profileService.js -->
<g id="edge27" class="edge">
<title>middlewares/access.js&#45;&gt;services/profileService.js</title>
<path fill="none" stroke="#757575" d="M901.78,-302.22C929.43,-304.49 961.05,-307.09 990.01,-309.47"/>
<polygon fill="#757575" stroke="#757575" points="989.87,-312.97 1000.13,-310.3 990.45,-306 989.87,-312.97"/>
</g>
<!-- config/firebase.js -->
<g id="node19" class="node">
<title>config/firebase.js</title>
<path fill="none" stroke="#cfffac" d="M1745.33,-99.53C1745.33,-99.53 1642.67,-99.53 1642.67,-99.53 1638.83,-99.53 1635,-95.7 1635,-91.87 1635,-91.87 1635,-84.2 1635,-84.2 1635,-80.37 1638.83,-76.53 1642.67,-76.53 1642.67,-76.53 1745.33,-76.53 1745.33,-76.53 1749.17,-76.53 1753,-80.37 1753,-84.2 1753,-84.2 1753,-91.87 1753,-91.87 1753,-95.7 1749.17,-99.53 1745.33,-99.53"/>
<text text-anchor="middle" x="1694" y="-84.33" font-family="Arial" font-size="14.00" fill="#cfffac">config/firebase.js</text>
</g>
<!-- middlewares/auth.js&#45;&gt;config/firebase.js -->
<g id="edge28" class="edge">
<title>middlewares/auth.js&#45;&gt;config/firebase.js</title>
<path fill="none" stroke="#757575" d="M1590.38,-70.58C1601.8,-72.52 1613.65,-74.54 1625.07,-76.48"/>
<polygon fill="#757575" stroke="#757575" points="1624.53,-79.94 1634.98,-78.16 1625.7,-73.04 1624.53,-79.94"/>
</g>
<!-- config/aggregations/amounts_by_type.js -->
<g id="node13" class="node">
<title>config/aggregations/amounts_by_type.js</title>
<path fill="none" stroke="#cfffac" d="M260.33,-167.53C260.33,-167.53 16.67,-167.53 16.67,-167.53 12.83,-167.53 9,-163.7 9,-159.87 9,-159.87 9,-152.2 9,-152.2 9,-148.37 12.83,-144.53 16.67,-144.53 16.67,-144.53 260.33,-144.53 260.33,-144.53 264.17,-144.53 268,-148.37 268,-152.2 268,-152.2 268,-159.87 268,-159.87 268,-163.7 264.17,-167.53 260.33,-167.53"/>
<text text-anchor="middle" x="138.5" y="-152.33" font-family="Arial" font-size="14.00" fill="#cfffac">config/aggregations/amounts_by_type.js</text>
</g>
<!-- config/aggregations/balances_by_book.js -->
<g id="node14" class="node">
<title>config/aggregations/balances_by_book.js</title>
<path fill="none" stroke="#cfffac" d="M262.83,-208.53C262.83,-208.53 14.17,-208.53 14.17,-208.53 10.33,-208.53 6.5,-204.7 6.5,-200.87 6.5,-200.87 6.5,-193.2 6.5,-193.2 6.5,-189.37 10.33,-185.53 14.17,-185.53 14.17,-185.53 262.83,-185.53 262.83,-185.53 266.67,-185.53 270.5,-189.37 270.5,-193.2 270.5,-193.2 270.5,-200.87 270.5,-200.87 270.5,-204.7 266.67,-208.53 262.83,-208.53"/>
<text text-anchor="middle" x="138.5" y="-193.33" font-family="Arial" font-size="14.00" fill="#cfffac">config/aggregations/balances_by_book.js</text>
</g>
<!-- config/aggregations/balances_by_source.js -->
<g id="node15" class="node">
<title>config/aggregations/balances_by_source.js</title>
<path fill="none" stroke="#cfffac" d="M268.33,-249.53C268.33,-249.53 8.67,-249.53 8.67,-249.53 4.83,-249.53 1,-245.7 1,-241.87 1,-241.87 1,-234.2 1,-234.2 1,-230.37 4.83,-226.53 8.67,-226.53 8.67,-226.53 268.33,-226.53 268.33,-226.53 272.17,-226.53 276,-230.37 276,-234.2 276,-234.2 276,-241.87 276,-241.87 276,-245.7 272.17,-249.53 268.33,-249.53"/>
<text text-anchor="middle" x="138.5" y="-234.33" font-family="Arial" font-size="14.00" fill="#cfffac">config/aggregations/balances_by_source.js</text>
</g>
<!-- config/aggregations/counts_by_head_tag.js -->
<g id="node16" class="node">
<title>config/aggregations/counts_by_head_tag.js</title>
<path fill="none" stroke="#cfffac" d="M269.33,-290.53C269.33,-290.53 7.67,-290.53 7.67,-290.53 3.83,-290.53 0,-286.7 0,-282.87 0,-282.87 0,-275.2 0,-275.2 0,-271.37 3.83,-267.53 7.67,-267.53 7.67,-267.53 269.33,-267.53 269.33,-267.53 273.17,-267.53 277,-271.37 277,-275.2 277,-275.2 277,-282.87 277,-282.87 277,-286.7 273.17,-290.53 269.33,-290.53"/>
<text text-anchor="middle" x="138.5" y="-275.33" font-family="Arial" font-size="14.00" fill="#cfffac">config/aggregations/counts_by_head_tag.js</text>
</g>
<!-- config/coin.js -->
<g id="node17" class="node">
<title>config/coin.js</title>
<path fill="none" stroke="#cfffac" d="M1561.33,-209.53C1561.33,-209.53 1481.67,-209.53 1481.67,-209.53 1477.83,-209.53 1474,-205.7 1474,-201.87 1474,-201.87 1474,-194.2 1474,-194.2 1474,-190.37 1477.83,-186.53 1481.67,-186.53 1481.67,-186.53 1561.33,-186.53 1561.33,-186.53 1565.17,-186.53 1569,-190.37 1569,-194.2 1569,-194.2 1569,-201.87 1569,-201.87 1569,-205.7 1565.17,-209.53 1561.33,-209.53"/>
<text text-anchor="middle" x="1521.5" y="-194.33" font-family="Arial" font-size="14.00" fill="#cfffac">config/coin.js</text>
</g>
<!-- config/db.js -->
<g id="node18" class="node">
<title>config/db.js</title>
<path fill="none" stroke="#cfffac" d="M390.33,-166.53C390.33,-166.53 320.67,-166.53 320.67,-166.53 316.83,-166.53 313,-162.7 313,-158.87 313,-158.87 313,-151.2 313,-151.2 313,-147.37 316.83,-143.53 320.67,-143.53 320.67,-143.53 390.33,-143.53 390.33,-143.53 394.17,-143.53 398,-147.37 398,-151.2 398,-151.2 398,-158.87 398,-158.87 398,-162.7 394.17,-166.53 390.33,-166.53"/>
<text text-anchor="middle" x="355.5" y="-151.33" font-family="Arial" font-size="14.00" fill="#cfffac">config/db.js</text>
</g>
<!-- services/EntryFields.js&#45;&gt;services/auditLogService.js -->
<g id="edge30" class="edge">
<title>services/EntryFields.js&#45;&gt;services/auditLogService.js</title>
<path fill="none" stroke="#757575" d="M901.31,-641.23C977.94,-645.44 1098.72,-643.15 1192,-600.03 1241.43,-577.19 1283.02,-526.37 1303.44,-498.06"/>
<polygon fill="#757575" stroke="#757575" points="1306.42,-499.91 1309.32,-489.72 1300.7,-495.88 1306.42,-499.91"/>
</g>
<!-- models/EntryFields.js -->
<g id="node35" class="node">
<title>models/EntryFields.js</title>
<path fill="none" stroke="#cfffac" d="M1148.33,-685.53C1148.33,-685.53 1017.67,-685.53 1017.67,-685.53 1013.83,-685.53 1010,-681.7 1010,-677.87 1010,-677.87 1010,-670.2 1010,-670.2 1010,-666.37 1013.83,-662.53 1017.67,-662.53 1017.67,-662.53 1148.33,-662.53 1148.33,-662.53 1152.17,-662.53 1156,-666.37 1156,-670.2 1156,-670.2 1156,-677.87 1156,-677.87 1156,-681.7 1152.17,-685.53 1148.33,-685.53"/>
<text text-anchor="middle" x="1083" y="-670.33" font-family="Arial" font-size="14.00" fill="#cfffac">models/EntryFields.js</text>
</g>
<!-- services/EntryFields.js&#45;&gt;models/EntryFields.js -->
<g id="edge29" class="edge">
<title>services/EntryFields.js&#45;&gt;models/EntryFields.js</title>
<path fill="none" stroke="#757575" d="M900.06,-645.55C931.19,-650.42 967.58,-656.12 999.61,-661.13"/>
<polygon fill="#757575" stroke="#757575" points="999.42,-664.65 1009.84,-662.74 1000.5,-657.73 999.42,-664.65"/>
</g>
<!-- models/Aggregation.js -->
<g id="node31" class="node">
<title>models/Aggregation.js</title>
<path fill="none" stroke="#cfffac" d="M1385.83,-248.53C1385.83,-248.53 1250.17,-248.53 1250.17,-248.53 1246.33,-248.53 1242.5,-244.7 1242.5,-240.87 1242.5,-240.87 1242.5,-233.2 1242.5,-233.2 1242.5,-229.37 1246.33,-225.53 1250.17,-225.53 1250.17,-225.53 1385.83,-225.53 1385.83,-225.53 1389.67,-225.53 1393.5,-229.37 1393.5,-233.2 1393.5,-233.2 1393.5,-240.87 1393.5,-240.87 1393.5,-244.7 1389.67,-248.53 1385.83,-248.53"/>
<text text-anchor="middle" x="1318" y="-233.33" font-family="Arial" font-size="14.00" fill="#cfffac">models/Aggregation.js</text>
</g>
<!-- services/aggregationService.js&#45;&gt;models/Aggregation.js -->
<g id="edge31" class="edge">
<title>services/aggregationService.js&#45;&gt;models/Aggregation.js</title>
<path fill="none" stroke="#757575" d="M1183.15,-237.03C1199.41,-237.03 1216.13,-237.03 1232,-237.03"/>
<polygon fill="#757575" stroke="#757575" points="1232.3,-240.53 1242.3,-237.03 1232.3,-233.53 1232.3,-240.53"/>
</g>
<!-- models/AuditLog.js -->
<g id="node32" class="node">
<title>models/AuditLog.js</title>
<path fill="none" stroke="#cfffac" d="M1579.33,-448.53C1579.33,-448.53 1463.67,-448.53 1463.67,-448.53 1459.83,-448.53 1456,-444.7 1456,-440.87 1456,-440.87 1456,-433.2 1456,-433.2 1456,-429.37 1459.83,-425.53 1463.67,-425.53 1463.67,-425.53 1579.33,-425.53 1579.33,-425.53 1583.17,-425.53 1587,-429.37 1587,-433.2 1587,-433.2 1587,-440.87 1587,-440.87 1587,-444.7 1583.17,-448.53 1579.33,-448.53"/>
<text text-anchor="middle" x="1521.5" y="-433.33" font-family="Arial" font-size="14.00" fill="#cfffac">models/AuditLog.js</text>
</g>
<!-- services/auditLogService.js&#45;&gt;models/AuditLog.js -->
<g id="edge32" class="edge">
<title>services/auditLogService.js&#45;&gt;models/AuditLog.js</title>
<path fill="none" stroke="#757575" d="M1375.67,-466.5C1400.02,-461.55 1428.66,-455.72 1454.01,-450.56"/>
<polygon fill="#757575" stroke="#757575" points="1454.81,-453.97 1463.91,-448.55 1453.41,-447.11 1454.81,-453.97"/>
</g>
<!-- services/userService.js -->
<g id="node41" class="node">
<title>services/userService.js</title>
<path fill="none" stroke="#c6c5fe" d="M1591.33,-489.53C1591.33,-489.53 1451.67,-489.53 1451.67,-489.53 1447.83,-489.53 1444,-485.7 1444,-481.87 1444,-481.87 1444,-474.2 1444,-474.2 1444,-470.37 1447.83,-466.53 1451.67,-466.53 1451.67,-466.53 1591.33,-466.53 1591.33,-466.53 1595.17,-466.53 1599,-470.37 1599,-474.2 1599,-474.2 1599,-481.87 1599,-481.87 1599,-485.7 1595.17,-489.53 1591.33,-489.53"/>
<text text-anchor="middle" x="1521.5" y="-474.33" font-family="Arial" font-size="14.00" fill="#c6c5fe">services/userService.js</text>
</g>
<!-- services/auditLogService.js&#45;&gt;services/userService.js -->
<g id="edge33" class="edge">
<title>services/auditLogService.js&#45;&gt;services/userService.js</title>
<path fill="none" stroke="#757575" d="M1408.26,-478.03C1416.72,-478.03 1425.28,-478.03 1433.72,-478.03"/>
<polygon fill="#757575" stroke="#757575" points="1433.92,-481.53 1443.92,-478.03 1433.92,-474.53 1433.92,-481.53"/>
</g>
<!-- services/entryService.js&#45;&gt;services/auditLogService.js -->
<g id="edge37" class="edge">
<title>services/entryService.js&#45;&gt;services/auditLogService.js</title>
<path fill="none" stroke="#757575" d="M898.75,-449.59C922.65,-453.07 949.42,-456.61 974,-459.03 1055.72,-467.1 1148.75,-471.98 1217.29,-474.78"/>
<polygon fill="#757575" stroke="#757575" points="1217.51,-478.29 1227.64,-475.19 1217.79,-471.29 1217.51,-478.29"/>
</g>
<!-- models/Entry.js -->
<g id="node34" class="node">
<title>models/Entry.js</title>
<path fill="none" stroke="#cfffac" d="M1129.83,-449.53C1129.83,-449.53 1036.17,-449.53 1036.17,-449.53 1032.33,-449.53 1028.5,-445.7 1028.5,-441.87 1028.5,-441.87 1028.5,-434.2 1028.5,-434.2 1028.5,-430.37 1032.33,-426.53 1036.17,-426.53 1036.17,-426.53 1129.83,-426.53 1129.83,-426.53 1133.67,-426.53 1137.5,-430.37 1137.5,-434.2 1137.5,-434.2 1137.5,-441.87 1137.5,-441.87 1137.5,-445.7 1133.67,-449.53 1129.83,-449.53"/>
<text text-anchor="middle" x="1083" y="-434.33" font-family="Arial" font-size="14.00" fill="#cfffac">models/Entry.js</text>
</g>
<!-- services/entryService.js&#45;&gt;models/Entry.js -->
<g id="edge36" class="edge">
<title>services/entryService.js&#45;&gt;models/Entry.js</title>
<path fill="none" stroke="#757575" d="M904.55,-438.03C940.85,-438.03 983.51,-438.03 1017.9,-438.03"/>
<polygon fill="#757575" stroke="#757575" points="1018.29,-441.53 1028.29,-438.03 1018.29,-434.53 1018.29,-441.53"/>
</g>
<!-- services/folderService.js&#45;&gt;services/auditLogService.js -->
<g id="edge39" class="edge">
<title>services/folderService.js&#45;&gt;services/auditLogService.js</title>
<path fill="none" stroke="#757575" d="M864.65,-567.56C932.63,-586.09 1078.25,-616.62 1192,-577.03 1237.37,-561.24 1278.67,-521.37 1300.57,-497.32"/>
<polygon fill="#757575" stroke="#757575" points="1303.46,-499.34 1307.48,-489.53 1298.22,-494.69 1303.46,-499.34"/>
</g>
<!-- models/Folder.js -->
<g id="node36" class="node">
<title>models/Folder.js</title>
<path fill="none" stroke="#cfffac" d="M1133.33,-567.53C1133.33,-567.53 1032.67,-567.53 1032.67,-567.53 1028.83,-567.53 1025,-563.7 1025,-559.87 1025,-559.87 1025,-552.2 1025,-552.2 1025,-548.37 1028.83,-544.53 1032.67,-544.53 1032.67,-544.53 1133.33,-544.53 1133.33,-544.53 1137.17,-544.53 1141,-548.37 1141,-552.2 1141,-552.2 1141,-559.87 1141,-559.87 1141,-563.7 1137.17,-567.53 1133.33,-567.53"/>
<text text-anchor="middle" x="1083" y="-552.33" font-family="Arial" font-size="14.00" fill="#cfffac">models/Folder.js</text>
</g>
<!-- services/folderService.js&#45;&gt;models/Folder.js -->
<g id="edge38" class="edge">
<title>services/folderService.js&#45;&gt;models/Folder.js</title>
<path fill="none" stroke="#757575" d="M906.64,-556.03C941.39,-556.03 981.62,-556.03 1014.78,-556.03"/>
<polygon fill="#757575" stroke="#757575" points="1014.83,-559.53 1024.83,-556.03 1014.83,-552.53 1014.83,-559.53"/>
</g>
<!-- services/groupService.js&#45;&gt;services/auditLogService.js -->
<g id="edge41" class="edge">
<title>services/groupService.js&#45;&gt;services/auditLogService.js</title>
<path fill="none" stroke="#757575" d="M882.62,-366.52C956.08,-353.96 1087.75,-340.18 1192,-377.03 1237.85,-393.24 1279.21,-434.2 1300.94,-458.69"/>
<polygon fill="#757575" stroke="#757575" points="1298.34,-461.04 1307.54,-466.3 1303.63,-456.45 1298.34,-461.04"/>
</g>
<!-- models/Group.js -->
<g id="node37" class="node">
<title>models/Group.js</title>
<path fill="none" stroke="#cfffac" d="M1133.33,-408.53C1133.33,-408.53 1032.67,-408.53 1032.67,-408.53 1028.83,-408.53 1025,-404.7 1025,-400.87 1025,-400.87 1025,-393.2 1025,-393.2 1025,-389.37 1028.83,-385.53 1032.67,-385.53 1032.67,-385.53 1133.33,-385.53 1133.33,-385.53 1137.17,-385.53 1141,-389.37 1141,-393.2 1141,-393.2 1141,-400.87 1141,-400.87 1141,-404.7 1137.17,-408.53 1133.33,-408.53"/>
<text text-anchor="middle" x="1083" y="-393.33" font-family="Arial" font-size="14.00" fill="#cfffac">models/Group.js</text>
</g>
<!-- services/groupService.js&#45;&gt;models/Group.js -->
<g id="edge40" class="edge">
<title>services/groupService.js&#45;&gt;models/Group.js</title>
<path fill="none" stroke="#757575" d="M907.34,-384.05C941.92,-386.62 981.83,-389.58 1014.76,-392.03"/>
<polygon fill="#757575" stroke="#757575" points="1014.51,-395.52 1024.74,-392.78 1015.03,-388.54 1014.51,-395.52"/>
</g>
<!-- services/profileService.js&#45;&gt;services/auditLogService.js -->
<g id="edge43" class="edge">
<title>services/profileService.js&#45;&gt;services/auditLogService.js</title>
<path fill="none" stroke="#757575" d="M1157.72,-328.61C1169.65,-332.2 1181.52,-336.89 1192,-343.03 1242.2,-372.45 1284.25,-428.35 1304.33,-458.16"/>
<polygon fill="#757575" stroke="#757575" points="1301.41,-460.09 1309.84,-466.51 1307.25,-456.24 1301.41,-460.09"/>
</g>
<!-- models/Profile.js -->
<g id="node38" class="node">
<title>models/Profile.js</title>
<path fill="none" stroke="#cfffac" d="M1368.33,-330.53C1368.33,-330.53 1267.67,-330.53 1267.67,-330.53 1263.83,-330.53 1260,-326.7 1260,-322.87 1260,-322.87 1260,-315.2 1260,-315.2 1260,-311.37 1263.83,-307.53 1267.67,-307.53 1267.67,-307.53 1368.33,-307.53 1368.33,-307.53 1372.17,-307.53 1376,-311.37 1376,-315.2 1376,-315.2 1376,-322.87 1376,-322.87 1376,-326.7 1372.17,-330.53 1368.33,-330.53"/>
<text text-anchor="middle" x="1318" y="-315.33" font-family="Arial" font-size="14.00" fill="#cfffac">models/Profile.js</text>
</g>
<!-- services/profileService.js&#45;&gt;models/Profile.js -->
<g id="edge42" class="edge">
<title>services/profileService.js&#45;&gt;models/Profile.js</title>
<path fill="none" stroke="#757575" d="M1165.82,-317.74C1193.25,-317.97 1223.51,-318.23 1249.71,-318.46"/>
<polygon fill="#757575" stroke="#757575" points="1249.88,-321.96 1259.91,-318.54 1249.94,-314.96 1249.88,-321.96"/>
</g>
<!-- services/coinLedger.js -->
<g id="node42" class="node">
<title>services/coinLedger.js</title>
<path fill="none" stroke="#c6c5fe" d="M1384.83,-289.53C1384.83,-289.53 1251.17,-289.53 1251.17,-289.53 1247.33,-289.53 1243.5,-285.7 1243.5,-281.87 1243.5,-281.87 1243.5,-274.2 1243.5,-274.2 1243.5,-270.37 1247.33,-266.53 1251.17,-266.53 1251.17,-266.53 1384.83,-266.53 1384.83,-266.53 1388.67,-266.53 1392.5,-270.37 1392.5,-274.2 1392.5,-274.2 1392.5,-281.87 1392.5,-281.87 1392.5,-285.7 1388.67,-289.53 1384.83,-289.53"/>
<text text-anchor="middle" x="1318" y="-274.33" font-family="Arial" font-size="14.00" fill="#c6c5fe">services/coinLedger.js</text>
</g>
<!-- services/profileService.js&#45;&gt;services/coinLedger.js -->
<g id="edge44" class="edge">
<title>services/profileService.js&#45;&gt;services/coinLedger.js</title>
<path fill="none" stroke="#757575" d="M1152.96,-305.49C1179.73,-301.01 1210.55,-295.85 1238.19,-291.23"/>
<polygon fill="#757575" stroke="#757575" points="1238.93,-294.65 1248.21,-289.55 1237.77,-287.75 1238.93,-294.65"/>
</g>
<!-- services/triggerService.js&#45;&gt;config/coin.js -->
<g id="edge45" class="edge">
<title>services/triggerService.js&#45;&gt;config/coin.js</title>
<path fill="none" stroke="#757575" d="M909.1,-169.82C1022.07,-163.87 1230.97,-157.12 1408,-175.03 1426.74,-176.93 1446.98,-180.56 1465.05,-184.39"/>
<polygon fill="#757575" stroke="#757575" points="1464.33,-187.81 1474.84,-186.52 1465.82,-180.97 1464.33,-187.81"/>
</g>
<!-- services/triggerService.js&#45;&gt;config/firebase.js -->
<g id="edge46" class="edge">
<title>services/triggerService.js&#45;&gt;config/firebase.js</title>
<path fill="none" stroke="#757575" d="M909.19,-166.6C930.32,-164.45 953,-162.15 974,-160.03 1213.1,-135.9 1496.96,-107.57 1624.72,-94.84"/>
<polygon fill="#757575" stroke="#757575" points="1625.15,-98.31 1634.75,-93.84 1624.45,-91.35 1625.15,-98.31"/>
</g>
<!-- services/triggerService.js&#45;&gt;services/aggregationService.js -->
<g id="edge49" class="edge">
<title>services/triggerService.js&#45;&gt;services/aggregationService.js</title>
<path fill="none" stroke="#757575" d="M864.8,-186.57C894.44,-195.29 936.62,-207.22 974,-216.03 985,-218.63 996.68,-221.14 1008.15,-223.48"/>
<polygon fill="#757575" stroke="#757575" points="1007.65,-226.95 1018.15,-225.49 1009.03,-220.09 1007.65,-226.95"/>
</g>
<!-- services/triggerService.js&#45;&gt;services/profileService.js -->
<g id="edge51" class="edge">
<title>services/triggerService.js&#45;&gt;services/profileService.js</title>
<path fill="none" stroke="#757575" d="M858.57,-186.73C882.48,-196.61 914.86,-212.6 938,-234.03 959.98,-254.39 949.65,-273.58 974,-291.03 979.87,-295.24 986.34,-298.78 993.1,-301.74"/>
<polygon fill="#757575" stroke="#757575" points="991.89,-305.03 1002.48,-305.45 994.46,-298.52 991.89,-305.03"/>
</g>
<!-- services/triggerService.js&#45;&gt;services/userFcmTokenService.js -->
<g id="edge52" class="edge">
<title>services/triggerService.js&#45;&gt;services/userFcmTokenService.js</title>
<path fill="none" stroke="#757575" d="M909.1,-181.82C926.45,-183.25 945.07,-184.78 963.43,-186.29"/>
<polygon fill="#757575" stroke="#757575" points="963.34,-189.79 973.6,-187.12 963.92,-182.82 963.34,-189.79"/>
</g>
<!-- services/triggerService.js&#45;&gt;models/Entry.js -->
<g id="edge47" class="edge">
<title>services/triggerService.js&#45;&gt;models/Entry.js</title>
<path fill="none" stroke="#757575" d="M866.96,-186.61C891.22,-195.64 920.64,-210.65 938,-234.03 987.67,-300.94 914.78,-359.41 974,-418.03 985.78,-429.7 1002.02,-435.75 1018.33,-438.65"/>
<polygon fill="#757575" stroke="#757575" points="1018.06,-442.14 1028.45,-440.07 1019.04,-435.21 1018.06,-442.14"/>
</g>
<!-- models/Trigger.js -->
<g id="node39" class="node">
<title>models/Trigger.js</title>
<path fill="none" stroke="#cfffac" d="M1135.33,-89.53C1135.33,-89.53 1030.67,-89.53 1030.67,-89.53 1026.83,-89.53 1023,-85.7 1023,-81.87 1023,-81.87 1023,-74.2 1023,-74.2 1023,-70.37 1026.83,-66.53 1030.67,-66.53 1030.67,-66.53 1135.33,-66.53 1135.33,-66.53 1139.17,-66.53 1143,-70.37 1143,-74.2 1143,-74.2 1143,-81.87 1143,-81.87 1143,-85.7 1139.17,-89.53 1135.33,-89.53"/>
<text text-anchor="middle" x="1083" y="-74.33" font-family="Arial" font-size="14.00" fill="#cfffac">models/Trigger.js</text>
</g>
<!-- services/triggerService.js&#45;&gt;models/Trigger.js -->
<g id="edge48" class="edge">
<title>services/triggerService.js&#45;&gt;models/Trigger.js</title>
<path fill="none" stroke="#757575" d="M846.91,-163.49C874.84,-148.09 926.89,-120.83 974,-104.03 986.86,-99.45 1000.87,-95.41 1014.41,-91.97"/>
<polygon fill="#757575" stroke="#757575" points="1015.29,-95.36 1024.17,-89.57 1013.62,-88.56 1015.29,-95.36"/>
</g>
<!-- services/triggerService.js&#45;&gt;services/coinLedger.js -->
<g id="edge50" class="edge">
<title>services/triggerService.js&#45;&gt;services/coinLedger.js</title>
<path fill="none" stroke="#757575" d="M849.87,-186.69C872.64,-198.22 908.1,-216.61 938,-234.03 954.4,-243.59 955.95,-251.15 974,-257.03 1059.16,-284.77 1162.39,-287.2 1233.21,-284.46"/>
<polygon fill="#757575" stroke="#757575" points="1233.58,-287.95 1243.42,-284.02 1233.28,-280.95 1233.58,-287.95"/>
</g>
<!-- models/UserFcmToken.js -->
<g id="node40" class="node">
<title>models/UserFcmToken.js</title>
<path fill="none" stroke="#cfffac" d="M1395.33,-207.53C1395.33,-207.53 1240.67,-207.53 1240.67,-207.53 1236.83,-207.53 1233,-203.7 1233,-199.87 1233,-199.87 1233,-192.2 1233,-192.2 1233,-188.37 1236.83,-184.53 1240.67,-184.53 1240.67,-184.53 1395.33,-184.53 1395.33,-184.53 1399.17,-184.53 1403,-188.37 1403,-192.2 1403,-192.2 1403,-199.87 1403,-199.87 1403,-203.7 1399.17,-207.53 1395.33,-207.53"/>
<text text-anchor="middle" x="1318" y="-192.33" font-family="Arial" font-size="14.00" fill="#cfffac">models/UserFcmToken.js</text>
</g>
<!-- services/userFcmTokenService.js&#45;&gt;models/UserFcmToken.js -->
<g id="edge53" class="edge">
<title>services/userFcmTokenService.js&#45;&gt;models/UserFcmToken.js</title>
<path fill="none" stroke="#757575" d="M1192.31,-196.03C1202.37,-196.03 1212.51,-196.03 1222.42,-196.03"/>
<polygon fill="#757575" stroke="#757575" points="1222.67,-199.53 1232.67,-196.03 1222.67,-192.53 1222.67,-199.53"/>
</g>
<!-- cron.js -->
<g id="node29" class="node">
<title>cron.js</title>
<path fill="none" stroke="#c6c5fe" d="M375.83,-68.53C375.83,-68.53 335.17,-68.53 335.17,-68.53 331.33,-68.53 327.5,-64.7 327.5,-60.87 327.5,-60.87 327.5,-53.2 327.5,-53.2 327.5,-49.37 331.33,-45.53 335.17,-45.53 335.17,-45.53 375.83,-45.53 375.83,-45.53 379.67,-45.53 383.5,-49.37 383.5,-53.2 383.5,-53.2 383.5,-60.87 383.5,-60.87 383.5,-64.7 379.67,-68.53 375.83,-68.53"/>
<text text-anchor="middle" x="355.5" y="-53.33" font-family="Arial" font-size="14.00" fill="#c6c5fe">cron.js</text>
</g>
<!-- cron.js&#45;&gt;services/triggerService.js -->
<g id="edge21" class="edge">
<title>cron.js&#45;&gt;services/triggerService.js</title>
<path fill="none" stroke="#757575" d="M383.74,-57.78C439.84,-59.96 571.86,-68.43 677,-101.03 721.45,-114.82 768.87,-140.9 797.6,-158.12"/>
<polygon fill="#757575" stroke="#757575" points="795.88,-161.17 806.24,-163.38 799.52,-155.19 795.88,-161.17"/>
</g>
<!-- index.js -->
<g id="node30" class="node">
<title>index.js</title>
<path fill="none" stroke="#c6c5fe" d="M161.83,-126.53C161.83,-126.53 115.17,-126.53 115.17,-126.53 111.33,-126.53 107.5,-122.7 107.5,-118.87 107.5,-118.87 107.5,-111.2 107.5,-111.2 107.5,-107.37 111.33,-103.53 115.17,-103.53 115.17,-103.53 161.83,-103.53 161.83,-103.53 165.67,-103.53 169.5,-107.37 169.5,-111.2 169.5,-111.2 169.5,-118.87 169.5,-118.87 169.5,-122.7 165.67,-126.53 161.83,-126.53"/>
<text text-anchor="middle" x="138.5" y="-111.33" font-family="Arial" font-size="14.00" fill="#c6c5fe">index.js</text>
</g>
<!-- index.js&#45;&gt;app.js -->
<g id="edge22" class="edge">
<title>index.js&#45;&gt;app.js</title>
<path fill="none" stroke="#757575" d="M169.53,-111.47C199.76,-109.56 246.21,-111.36 277,-135.03 328.55,-174.66 346.28,-255.33 351.99,-294.17"/>
<polygon fill="#757575" stroke="#757575" points="348.56,-294.92 353.35,-304.37 355.5,-294 348.56,-294.92"/>
</g>
<!-- index.js&#45;&gt;config/db.js -->
<g id="edge23" class="edge">
<title>index.js&#45;&gt;config/db.js</title>
<path fill="none" stroke="#757575" d="M169.7,-118.47C197.67,-121.88 240.34,-127.66 277,-135.03 285.61,-136.77 294.69,-138.86 303.49,-141.04"/>
<polygon fill="#757575" stroke="#757575" points="302.71,-144.45 313.26,-143.51 304.43,-137.66 302.71,-144.45"/>
</g>
<!-- index.js&#45;&gt;config/firebase.js -->
<g id="edge24" class="edge">
<title>index.js&#45;&gt;config/firebase.js</title>
<path fill="none" stroke="#757575" d="M159.87,-103.47C191.57,-86.02 255.08,-53.17 313,-36.03 417.06,-5.25 445.98,-0.03 554.5,-0.03 554.5,-0.03 554.5,-0.03 1319,-0.03 1444.59,-0.03 1479.47,0.5 1599,-38.03 1623.38,-45.89 1648.91,-59.9 1667.2,-71.09"/>
<polygon fill="#757575" stroke="#757575" points="1665.48,-74.14 1675.81,-76.48 1669.19,-68.2 1665.48,-74.14"/>
</g>
<!-- index.js&#45;&gt;services/triggerService.js -->
<g id="edge26" class="edge">
<title>index.js&#45;&gt;services/triggerService.js</title>
<path fill="none" stroke="#757575" d="M169.57,-116.62C251.27,-121.08 484.13,-134.72 677,-155.03 696.15,-157.05 716.65,-159.59 736.09,-162.17"/>
<polygon fill="#757575" stroke="#757575" points="735.76,-165.66 746.14,-163.52 736.7,-158.72 735.76,-165.66"/>
</g>
<!-- index.js&#45;&gt;cron.js -->
<g id="edge25" class="edge">
<title>index.js&#45;&gt;cron.js</title>
<path fill="none" stroke="#757575" d="M169.85,-106.85C208.67,-96.37 275.85,-78.25 317.59,-66.99"/>
<polygon fill="#757575" stroke="#757575" points="318.62,-70.34 327.36,-64.35 316.8,-63.58 318.62,-70.34"/>
</g>
<!-- models/Coin.js -->
<g id="node33" class="node">
<title>models/Coin.js</title>
<path fill="none" stroke="#cfffac" d="M1566.83,-289.53C1566.83,-289.53 1476.17,-289.53 1476.17,-289.53 1472.33,-289.53 1468.5,-285.7 1468.5,-281.87 1468.5,-281.87 1468.5,-274.2 1468.5,-274.2 1468.5,-270.37 1472.33,-266.53 1476.17,-266.53 1476.17,-266.53 1566.83,-266.53 1566.83,-266.53 1570.67,-266.53 1574.5,-270.37 1574.5,-274.2 1574.5,-274.2 1574.5,-281.87 1574.5,-281.87 1574.5,-285.7 1570.67,-289.53 1566.83,-289.53"/>
<text text-anchor="middle" x="1521.5" y="-274.33" font-family="Arial" font-size="14.00" fill="#cfffac">models/Coin.js</text>
</g>
<!-- services/userService.js&#45;&gt;config/firebase.js -->
<g id="edge54" class="edge">
<title>services/userService.js&#45;&gt;config/firebase.js</title>
<path fill="none" stroke="#757575" d="M1587.89,-466.47C1591.95,-464.13 1595.71,-461.35 1599,-458.03 1649.09,-407.59 1681.24,-181.87 1690.34,-110.05"/>
<polygon fill="#757575" stroke="#757575" points="1693.84,-110.25 1691.6,-99.9 1686.9,-109.39 1693.84,-110.25"/>
</g>
<!-- services/coinLedger.js&#45;&gt;config/coin.js -->
<g id="edge34" class="edge">
<title>services/coinLedger.js&#45;&gt;config/coin.js</title>
<path fill="none" stroke="#757575" d="M1377.56,-266.44C1387.84,-263.77 1398.33,-260.64 1408,-257.03 1438.37,-245.69 1470.96,-227.92 1493.2,-214.85"/>
<polygon fill="#757575" stroke="#757575" points="1495.27,-217.69 1502.06,-209.56 1491.68,-211.68 1495.27,-217.69"/>
</g>
<!-- services/coinLedger.js&#45;&gt;models/Coin.js -->
<g id="edge35" class="edge">
<title>services/coinLedger.js&#45;&gt;models/Coin.js</title>
<path fill="none" stroke="#757575" d="M1392.6,-278.03C1414.05,-278.03 1437.27,-278.03 1457.96,-278.03"/>
<polygon fill="#757575" stroke="#757575" points="1458.22,-281.53 1468.22,-278.03 1458.22,-274.53 1458.22,-281.53"/>
</g>
</g>
</svg>
