<?xml version="1.0" encoding="UTF-8" standalone="no"?>
<!DOCTYPE svg PUBLIC "-//W3C//DTD SVG 1.1//EN"
 "http://www.w3.org/Graphics/SVG/1.1/DTD/svg11.dtd">
<!-- Generated by graphviz version 2.42.4 (0)
 -->
<!-- Title: G Pages: 1 -->
<svg width="918pt" height="513pt"
 viewBox="0.00 0.00 918.20 513.20" xmlns="http://www.w3.org/2000/svg" xmlns:xlink="http://www.w3.org/1999/xlink">
<g id="graph0" class="graph" transform="scale(1 1) rotate(0) translate(21.6 491.6)">
<title>G</title>
<polygon fill="#111111" stroke="transparent" points="-21.6,21.6 -21.6,-491.6 896.6,-491.6 896.6,21.6 -21.6,21.6"/>
<!-- ../config/cache.js -->
<g id="node1" class="node">
<title>../config/cache.js</title>
<path fill="none" stroke="#cfffac" d="M626.83,-23C626.83,-23 525.17,-23 525.17,-23 521.33,-23 517.5,-19.17 517.5,-15.33 517.5,-15.33 517.5,-7.67 517.5,-7.67 517.5,-3.83 521.33,0 525.17,0 525.17,0 626.83,0 626.83,0 630.67,0 634.5,-3.83 634.5,-7.67 634.5,-7.67 634.5,-15.33 634.5,-15.33 634.5,-19.17 630.67,-23 626.83,-23"/>
<text text-anchor="middle" x="576" y="-7.8" font-family="Arial" font-size="14.00" fill="#cfffac">../config/cache.js</text>
</g>
<!-- ../config/coin.js -->
<g id="node2" class="node">
<title>../config/coin.js</title>
<path fill="none" stroke="#cfffac" d="M621.33,-411C621.33,-411 530.67,-411 530.67,-411 526.83,-411 523,-407.17 523,-403.33 523,-403.33 523,-395.67 523,-395.67 523,-391.83 526.83,-388 530.67,-388 530.67,-388 621.33,-388 621.33,-388 625.17,-388 629,-391.83 629,-395.67 629,-395.67 629,-403.33 629,-403.33 629,-407.17 625.17,-411 621.33,-411"/>
<text text-anchor="middle" x="576" y="-395.8" font-family="Arial" font-size="14.00" fill="#cfffac">../config/coin.js</text>
</g>
<!-- ../config/firebase.js -->
<g id="node3" class="node">
<title>../config/firebase.js</title>
<path fill="none" stroke="#cfffac" d="M632.83,-64C632.83,-64 519.17,-64 519.17,-64 515.33,-64 511.5,-60.17 511.5,-56.33 511.5,-56.33 511.5,-48.67 511.5,-48.67 511.5,-44.83 515.33,-41 519.17,-41 519.17,-41 632.83,-41 632.83,-41 636.67,-41 640.5,-44.83 640.5,-48.67 640.5,-48.67 640.5,-56.33 640.5,-56.33 640.5,-60.17 636.67,-64 632.83,-64"/>
<text text-anchor="middle" x="576" y="-48.8" font-family="Arial" font-size="14.00" fill="#cfffac">../config/firebase.js</text>
</g>
<!-- ../models/Aggregation.js -->
<g id="node4" class="node">
<title>../models/Aggregation.js</title>
<path fill="none" stroke="#cfffac" d="M649.33,-470C649.33,-470 502.67,-470 502.67,-470 498.83,-470 495,-466.17 495,-462.33 495,-462.33 495,-454.67 495,-454.67 495,-450.83 498.83,-447 502.67,-447 502.67,-447 649.33,-447 649.33,-447 653.17,-447 657,-450.83 657,-454.67 657,-454.67 657,-462.33 657,-462.33 657,-466.17 653.17,-470 649.33,-470"/>
<text text-anchor="middle" x="576" y="-454.8" font-family="Arial" font-size="14.00" fill="#cfffac">../models/Aggregation.js</text>
</g>
<!-- ../models/AuditLog.js -->
<g id="node5" class="node">
<title>../models/AuditLog.js</title>
<path fill="none" stroke="#cfffac" d="M848.33,-228C848.33,-228 720.67,-228 720.67,-228 716.83,-228 713,-224.17 713,-220.33 713,-220.33 713,-212.67 713,-212.67 713,-208.83 716.83,-205 720.67,-205 720.67,-205 848.33,-205 848.33,-205 852.17,-205 856,-208.83 856,-212.67 856,-212.67 856,-220.33 856,-220.33 856,-224.17 852.17,-228 848.33,-228"/>
<text text-anchor="middle" x="784.5" y="-212.8" font-family="Arial" font-size="14.00" fill="#cfffac">../models/AuditLog.js</text>
</g>
<!-- ../models/Coin.js -->
<g id="node6" class="node">
<title>../models/Coin.js</title>
<path fill="none" stroke="#cfffac" d="M626.83,-351C626.83,-351 525.17,-351 525.17,-351 521.33,-351 517.5,-347.17 517.5,-343.33 517.5,-343.33 517.5,-335.67 517.5,-335.67 517.5,-331.83 521.33,-328 525.17,-328 525.17,-328 626.83,-328 626.83,-328 630.67,-328 634.5,-331.83 634.5,-335.67 634.5,-335.67 634.5,-343.33 634.5,-343.33 634.5,-347.17 630.67,-351 626.83,-351"/>
<text text-anchor="middle" x="576" y="-335.8" font-family="Arial" font-size="14.00" fill="#cfffac">../models/Coin.js</text>
</g>
<!-- ../models/Entry.js -->
<g id="node7" class="node">
<title>../models/Entry.js</title>
<path fill="none" stroke="#cfffac" d="M628.33,-310C628.33,-310 523.67,-310 523.67,-310 519.83,-310 516,-306.17 516,-302.33 516,-302.33 516,-294.67 516,-294.67 516,-290.83 519.83,-287 523.67,-287 523.67,-287 628.33,-287 628.33,-287 632.17,-287 636,-290.83 636,-294.67 636,-294.67 636,-302.33 636,-302.33 636,-306.17 632.17,-310 628.33,-310"/>
<text text-anchor="middle" x="576" y="-294.8" font-family="Arial" font-size="14.00" fill="#cfffac">../models/Entry.js</text>
</g>
<!-- ../models/EntryFields.js -->
<g id="node8" class="node">
<title>../models/EntryFields.js</title>
<path fill="none" stroke="#cfffac" d="M646.83,-269C646.83,-269 505.17,-269 505.17,-269 501.33,-269 497.5,-265.17 497.5,-261.33 497.5,-261.33 497.5,-253.67 497.5,-253.67 497.5,-249.83 501.33,-246 505.17,-246 505.17,-246 646.83,-246 646.83,-246 650.67,-246 654.5,-249.83 654.5,-253.67 654.5,-253.67 654.5,-261.33 654.5,-261.33 654.5,-265.17 650.67,-269 646.83,-269"/>
<text text-anchor="middle" x="576" y="-253.8" font-family="Arial" font-size="14.00" fill="#cfffac">../models/EntryFields.js</text>
</g>
<!-- ../models/Folder.js -->
<g id="node9" class="node">
<title>../models/Folder.js</title>
<path fill="none" stroke="#cfffac" d="M631.83,-187C631.83,-187 520.17,-187 520.17,-187 516.33,-187 512.5,-183.17 512.5,-179.33 512.5,-179.33 512.5,-171.67 512.5,-171.67 512.5,-167.83 516.33,-164 520.17,-164 520.17,-164 631.83,-164 631.83,-164 635.67,-164 639.5,-167.83 639.5,-171.67 639.5,-171.67 639.5,-179.33 639.5,-179.33 639.5,-183.17 635.67,-187 631.83,-187"/>
<text text-anchor="middle" x="576" y="-171.8" font-family="Arial" font-size="14.00" fill="#cfffac">../models/Folder.js</text>
</g>
<!-- ../models/Group.js -->
<g id="node10" class="node">
<title>../models/Group.js</title>
<path fill="none" stroke="#cfffac" d="M632.33,-146C632.33,-146 519.67,-146 519.67,-146 515.83,-146 512,-142.17 512,-138.33 512,-138.33 512,-130.67 512,-130.67 512,-126.83 515.83,-123 519.67,-123 519.67,-123 632.33,-123 632.33,-123 636.17,-123 640,-126.83 640,-130.67 640,-130.67 640,-138.33 640,-138.33 640,-142.17 636.17,-146 632.33,-146"/>
<text text-anchor="middle" x="576" y="-130.8" font-family="Arial" font-size="14.00" fill="#cfffac">../models/Group.js</text>
</g>
<!-- ../models/Profile.js -->
<g id="node11" class="node">
<title>../models/Profile.js</title>
<path fill="none" stroke="#cfffac" d="M268.33,-187C268.33,-187 155.67,-187 155.67,-187 151.83,-187 148,-183.17 148,-179.33 148,-179.33 148,-171.67 148,-171.67 148,-167.83 151.83,-164 155.67,-164 155.67,-164 268.33,-164 268.33,-164 272.17,-164 276,-167.83 276,-171.67 276,-171.67 276,-179.33 276,-179.33 276,-183.17 272.17,-187 268.33,-187"/>
<text text-anchor="middle" x="212" y="-171.8" font-family="Arial" font-size="14.00" fill="#cfffac">../models/Profile.js</text>
</g>
<!-- ../models/Trigger.js -->
<g id="node12" class="node">
<title>../models/Trigger.js</title>
<path fill="none" stroke="#cfffac" d="M442.83,-390C442.83,-390 327.17,-390 327.17,-390 323.33,-390 319.5,-386.17 319.5,-382.33 319.5,-382.33 319.5,-374.67 319.5,-374.67 319.5,-370.83 323.33,-367 327.17,-367 327.17,-367 442.83,-367 442.83,-367 446.67,-367 450.5,-370.83 450.5,-374.67 450.5,-374.67 450.5,-382.33 450.5,-382.33 450.5,-386.17 446.67,-390 442.83,-390"/>
<text text-anchor="middle" x="385" y="-374.8" font-family="Arial" font-size="14.00" fill="#cfffac">../models/Trigger.js</text>
</g>
<!-- ../models/UserFcmToken.js -->
<g id="node13" class="node">
<title>../models/UserFcmToken.js</title>
<path fill="none" stroke="#cfffac" d="M867.33,-105C867.33,-105 701.67,-105 701.67,-105 697.83,-105 694,-101.17 694,-97.33 694,-97.33 694,-89.67 694,-89.67 694,-85.83 697.83,-82 701.67,-82 701.67,-82 867.33,-82 867.33,-82 871.17,-82 875,-85.83 875,-89.67 875,-89.67 875,-97.33 875,-97.33 875,-101.17 871.17,-105 867.33,-105"/>
<text text-anchor="middle" x="784.5" y="-89.8" font-family="Arial" font-size="14.00" fill="#cfffac">../models/UserFcmToken.js</text>
</g>
<!-- EntryFields.js -->
<g id="node14" class="node">
<title>EntryFields.js</title>
<path fill="none" stroke="#c6c5fe" d="M426.33,-267C426.33,-267 343.67,-267 343.67,-267 339.83,-267 336,-263.17 336,-259.33 336,-259.33 336,-251.67 336,-251.67 336,-247.83 339.83,-244 343.67,-244 343.67,-244 426.33,-244 426.33,-244 430.17,-244 434,-247.83 434,-251.67 434,-251.67 434,-259.33 434,-259.33 434,-263.17 430.17,-267 426.33,-267"/>
<text text-anchor="middle" x="385" y="-251.8" font-family="Arial" font-size="14.00" fill="#c6c5fe">EntryFields.js</text>
</g>
<!-- EntryFields.js&#45;&gt;../models/EntryFields.js -->
<g id="edge1" class="edge">
<title>EntryFields.js&#45;&gt;../models/EntryFields.js</title>
<path fill="none" stroke="#757575" d="M434.18,-256.01C450.33,-256.18 468.88,-256.38 487.09,-256.57"/>
<polygon fill="#757575" stroke="#757575" points="487.13,-260.07 497.16,-256.68 487.2,-253.07 487.13,-260.07"/>
</g>
<!-- auditLogService.js -->
<g id="node15" class="node">
<title>auditLogService.js</title>
<path fill="none" stroke="#c6c5fe" d="M631.83,-228C631.83,-228 520.17,-228 520.17,-228 516.33,-228 512.5,-224.17 512.5,-220.33 512.5,-220.33 512.5,-212.67 512.5,-212.67 512.5,-208.83 516.33,-205 520.17,-205 520.17,-205 631.83,-205 631.83,-205 635.67,-205 639.5,-208.83 639.5,-212.67 639.5,-212.67 639.5,-220.33 639.5,-220.33 639.5,-224.17 635.67,-228 631.83,-228"/>
<text text-anchor="middle" x="576" y="-212.8" font-family="Arial" font-size="14.00" fill="#c6c5fe">auditLogService.js</text>
</g>
<!-- EntryFields.js&#45;&gt;auditLogService.js -->
<g id="edge2" class="edge">
<title>EntryFields.js&#45;&gt;auditLogService.js</title>
<path fill="none" stroke="#757575" d="M434.18,-245.56C456.96,-240.86 484.52,-235.17 509.19,-230.08"/>
<polygon fill="#757575" stroke="#757575" points="510.11,-233.46 519.2,-228.01 508.7,-226.61 510.11,-233.46"/>
</g>
<!-- auditLogService.js&#45;&gt;../models/AuditLog.js -->
<g id="edge4" class="edge">
<title>auditLogService.js&#45;&gt;../models/AuditLog.js</title>
<path fill="none" stroke="#757575" d="M639.52,-216.5C659.41,-216.5 681.71,-216.5 702.7,-216.5"/>
<polygon fill="#757575" stroke="#757575" points="702.88,-220 712.88,-216.5 702.88,-213 702.88,-220"/>
</g>
<!-- aggregationService.js -->
<g id="node16" class="node">
<title>aggregationService.js</title>
<path fill="none" stroke="#c6c5fe" d="M450.33,-470C450.33,-470 319.67,-470 319.67,-470 315.83,-470 312,-466.17 312,-462.33 312,-462.33 312,-454.67 312,-454.67 312,-450.83 315.83,-447 319.67,-447 319.67,-447 450.33,-447 450.33,-447 454.17,-447 458,-450.83 458,-454.67 458,-454.67 458,-462.33 458,-462.33 458,-466.17 454.17,-470 450.33,-470"/>
<text text-anchor="middle" x="385" y="-454.8" font-family="Arial" font-size="14.00" fill="#c6c5fe">aggregationService.js</text>
</g>
<!-- aggregationService.js&#45;&gt;../models/Aggregation.js -->
<g id="edge3" class="edge">
<title>aggregationService.js&#45;&gt;../models/Aggregation.js</title>
<path fill="none" stroke="#757575" d="M458.26,-458.5C466.97,-458.5 475.94,-458.5 484.87,-458.5"/>
<polygon fill="#757575" stroke="#757575" points="484.9,-462 494.9,-458.5 484.9,-455 484.9,-462"/>
</g>
<!-- coinLedger.js -->
<g id="node17" class="node">
<title>coinLedger.js</title>
<path fill="none" stroke="#c6c5fe" d="M425.33,-349C425.33,-349 344.67,-349 344.67,-349 340.83,-349 337,-345.17 337,-341.33 337,-341.33 337,-333.67 337,-333.67 337,-329.83 340.83,-326 344.67,-326 344.67,-326 425.33,-326 425.33,-326 429.17,-326 433,-329.83 433,-333.67 433,-333.67 433,-341.33 433,-341.33 433,-345.17 429.17,-349 425.33,-349"/>
<text text-anchor="middle" x="385" y="-333.8" font-family="Arial" font-size="14.00" fill="#c6c5fe">coinLedger.js</text>
</g>
<!-- coinLedger.js&#45;&gt;../config/coin.js -->
<g id="edge5" class="edge">
<title>coinLedger.js&#45;&gt;../config/coin.js</title>
<path fill="none" stroke="#757575" d="M426.86,-349.01C437.06,-351.99 447.96,-355.28 458,-358.5 483.35,-366.63 511.52,-376.48 533.86,-384.48"/>
<polygon fill="#757575" stroke="#757575" points="532.78,-387.81 543.37,-387.9 535.15,-381.23 532.78,-387.81"/>
</g>
<!-- coinLedger.js&#45;&gt;../models/Coin.js -->
<g id="edge6" class="edge">
<title>coinLedger.js&#45;&gt;../models/Coin.js</title>
<path fill="none" stroke="#757575" d="M433.21,-338C455.5,-338.24 482.52,-338.52 506.97,-338.78"/>
<polygon fill="#757575" stroke="#757575" points="507.23,-342.28 517.27,-338.89 507.31,-335.28 507.23,-342.28"/>
</g>
<!-- entryService.js -->
<g id="node18" class="node">
<title>entryService.js</title>
<path fill="none" stroke="#c6c5fe" d="M429.83,-308C429.83,-308 340.17,-308 340.17,-308 336.33,-308 332.5,-304.17 332.5,-300.33 332.5,-300.33 332.5,-292.67 332.5,-292.67 332.5,-288.83 336.33,-285 340.17,-285 340.17,-285 429.83,-285 429.83,-285 433.67,-285 437.5,-288.83 437.5,-292.67 437.5,-292.67 437.5,-300.33 437.5,-300.33 437.5,-304.17 433.67,-308 429.83,-308"/>
<text text-anchor="middle" x="385" y="-292.8" font-family="Arial" font-size="14.00" fill="#c6c5fe">entryService.js</text>
</g>
<!-- entryService.js&#45;&gt;../models/Entry.js -->
<g id="edge7" class="edge">
<title>entryService.js&#45;&gt;../models/Entry.js</title>
<path fill="none" stroke="#757575" d="M437.65,-297.05C458.59,-297.27 483.1,-297.53 505.57,-297.77"/>
<polygon fill="#757575" stroke="#757575" points="505.7,-301.27 515.73,-297.87 505.77,-294.27 505.7,-301.27"/>
</g>
<!-- entryService.js&#45;&gt;auditLogService.js -->
<g id="edge8" class="edge">
<title>entryService.js&#45;&gt;auditLogService.js</title>
<path fill="none" stroke="#757575" d="M437.82,-285.88C444.87,-283.37 451.8,-280.29 458,-276.5 478.13,-264.21 473.76,-249.62 494,-237.5 497.58,-235.36 501.37,-233.43 505.28,-231.7"/>
<polygon fill="#757575" stroke="#757575" points="506.59,-234.95 514.59,-228.01 504.01,-228.44 506.59,-234.95"/>
</g>
<!-- folderService.js -->
<g id="node19" class="node">
<title>folderService.js</title>
<path fill="none" stroke="#c6c5fe" d="M431.83,-187C431.83,-187 338.17,-187 338.17,-187 334.33,-187 330.5,-183.17 330.5,-179.33 330.5,-179.33 330.5,-171.67 330.5,-171.67 330.5,-167.83 334.33,-164 338.17,-164 338.17,-164 431.83,-164 431.83,-164 435.67,-164 439.5,-167.83 439.5,-171.67 439.5,-171.67 439.5,-179.33 439.5,-179.33 439.5,-183.17 435.67,-187 431.83,-187"/>
<text text-anchor="middle" x="385" y="-171.8" font-family="Arial" font-size="14.00" fill="#c6c5fe">folderService.js</text>
</g>
<!-- folderService.js&#45;&gt;../models/Folder.js -->
<g id="edge9" class="edge">
<title>folderService.js&#45;&gt;../models/Folder.js</title>
<path fill="none" stroke="#757575" d="M439.65,-175.5C459.07,-175.5 481.33,-175.5 502.12,-175.5"/>
<polygon fill="#757575" stroke="#757575" points="502.18,-179 512.18,-175.5 502.18,-172 502.18,-179"/>
</g>
<!-- folderService.js&#45;&gt;auditLogService.js -->
<g id="edge10" class="edge">
<title>folderService.js&#45;&gt;auditLogService.js</title>
<path fill="none" stroke="#757575" d="M439.15,-187.03C461.79,-191.94 488.38,-197.71 512,-202.83"/>
<polygon fill="#757575" stroke="#757575" points="511.41,-206.29 521.92,-204.99 512.89,-199.45 511.41,-206.29"/>
</g>
<!-- groupService.js -->
<g id="node20" class="node">
<title>groupService.js</title>
<path fill="none" stroke="#c6c5fe" d="M432.33,-146C432.33,-146 337.67,-146 337.67,-146 333.83,-146 330,-142.17 330,-138.33 330,-138.33 330,-130.67 330,-130.67 330,-126.83 333.83,-123 337.67,-123 337.67,-123 432.33,-123 432.33,-123 436.17,-123 440,-126.83 440,-130.67 440,-130.67 440,-138.33 440,-138.33 440,-142.17 436.17,-146 432.33,-146"/>
<text text-anchor="middle" x="385" y="-130.8" font-family="Arial" font-size="14.00" fill="#c6c5fe">groupService.js</text>
</g>
<!-- groupService.js&#45;&gt;../models/Group.js -->
<g id="edge11" class="edge">
<title>groupService.js&#45;&gt;../models/Group.js</title>
<path fill="none" stroke="#757575" d="M440.16,-134.5C459.29,-134.5 481.13,-134.5 501.59,-134.5"/>
<polygon fill="#757575" stroke="#757575" points="501.82,-138 511.82,-134.5 501.82,-131 501.82,-138"/>
</g>
<!-- groupService.js&#45;&gt;auditLogService.js -->
<g id="edge12" class="edge">
<title>groupService.js&#45;&gt;auditLogService.js</title>
<path fill="none" stroke="#757575" d="M438.66,-146.04C445.44,-148.61 452.07,-151.72 458,-155.5 478.45,-168.52 473.28,-183.9 494,-196.5 496.85,-198.23 499.84,-199.81 502.92,-201.26"/>
<polygon fill="#757575" stroke="#757575" points="501.82,-204.59 512.4,-205.19 504.51,-198.12 501.82,-204.59"/>
</g>
<!-- profileService.js -->
<g id="node21" class="node">
<title>profileService.js</title>
<path fill="none" stroke="#ff6c60" d="M104.33,-227C104.33,-227 7.67,-227 7.67,-227 3.83,-227 0,-223.17 0,-219.33 0,-219.33 0,-211.67 0,-211.67 0,-207.83 3.83,-204 7.67,-204 7.67,-204 104.33,-204 104.33,-204 108.17,-204 112,-207.83 112,-211.67 112,-211.67 112,-219.33 112,-219.33 112,-223.17 108.17,-227 104.33,-227"/>
<text text-anchor="middle" x="56" y="-211.8" font-family="Arial" font-size="14.00" fill="#ff6c60">profileService.js</text>
</g>
<!-- profileService.js&#45;&gt;../config/cache.js -->
<g id="edge13" class="edge">
<title>profileService.js&#45;&gt;../config/cache.js</title>
<path fill="none" stroke="#757575" d="M73.89,-203.87C91.99,-191.53 121.69,-171.61 148,-155.5 219.46,-111.75 233.39,-91.52 312,-62.5 376.05,-38.85 453.11,-25.56 507.21,-18.51"/>
<polygon fill="#757575" stroke="#757575" points="507.9,-21.96 517.38,-17.23 507.02,-15.01 507.9,-21.96"/>
</g>
<!-- profileService.js&#45;&gt;../models/Profile.js -->
<g id="edge14" class="edge">
<title>profileService.js&#45;&gt;../models/Profile.js</title>
<path fill="none" stroke="#757575" d="M101.54,-203.93C118.78,-199.45 138.68,-194.28 156.74,-189.59"/>
<polygon fill="#757575" stroke="#757575" points="157.76,-192.95 166.56,-187.04 156,-186.17 157.76,-192.95"/>
</g>
<!-- profileService.js&#45;&gt;auditLogService.js -->
<g id="edge15" class="edge">
<title>profileService.js&#45;&gt;auditLogService.js</title>
<path fill="none" stroke="#757575" d="M112.44,-215.61C206.52,-215.79 397.43,-216.16 502.18,-216.36"/>
<polygon fill="#757575" stroke="#757575" points="502.34,-219.86 512.35,-216.38 502.35,-212.86 502.34,-219.86"/>
</g>
<!-- triggerService.js -->
<g id="node22" class="node">
<title>triggerService.js</title>
<path fill="none" stroke="#ff6c60" d="M260.83,-328C260.83,-328 163.17,-328 163.17,-328 159.33,-328 155.5,-324.17 155.5,-320.33 155.5,-320.33 155.5,-312.67 155.5,-312.67 155.5,-308.83 159.33,-305 163.17,-305 163.17,-305 260.83,-305 260.83,-305 264.67,-305 268.5,-308.83 268.5,-312.67 268.5,-312.67 268.5,-320.33 268.5,-320.33 268.5,-324.17 264.67,-328 260.83,-328"/>
<text text-anchor="middle" x="212" y="-312.8" font-family="Arial" font-size="14.00" fill="#ff6c60">triggerService.js</text>
</g>
<!-- profileService.js&#45;&gt;triggerService.js -->
<g id="edge16" class="edge">
<title>profileService.js&#45;&gt;triggerService.js</title>
<path fill="none" stroke="#757575" d="M82.43,-227.01C112.8,-244.68 162.99,-277.74 190.82,-298.53"/>
<polygon fill="#757575" stroke="#757575" points="188.96,-301.51 199.02,-304.82 193.22,-295.96 188.96,-301.51"/>
</g>
<!-- triggerService.js&#45;&gt;../config/coin.js -->
<g id="edge17" class="edge">
<title>triggerService.js&#45;&gt;../config/coin.js</title>
<path fill="none" stroke="#757575" d="M222.11,-328.21C237.93,-347.48 272.58,-385.16 312,-399.5 377.3,-423.25 457.91,-418.76 512.55,-411.22"/>
<polygon fill="#757575" stroke="#757575" points="513.39,-414.63 522.78,-409.73 512.38,-407.71 513.39,-414.63"/>
</g>
<!-- triggerService.js&#45;&gt;../models/Trigger.js -->
<g id="edge18" class="edge">
<title>triggerService.js&#45;&gt;../models/Trigger.js</title>
<path fill="none" stroke="#757575" d="M237.87,-328.12C257.68,-337.11 286.27,-349.51 312,-358.5 317.49,-360.42 323.27,-362.28 329.06,-364.04"/>
<polygon fill="#757575" stroke="#757575" points="328.2,-367.44 338.78,-366.91 330.18,-360.72 328.2,-367.44"/>
</g>
<!-- triggerService.js&#45;&gt;aggregationService.js -->
<g id="edge19" class="edge">
<title>triggerService.js&#45;&gt;aggregationService.js</title>
<path fill="none" stroke="#757575" d="M219.95,-328.12C234.33,-351.19 269.55,-403.12 312,-432.5 317.94,-436.61 324.59,-440.14 331.4,-443.16"/>
<polygon fill="#757575" stroke="#757575" points="330.14,-446.43 340.72,-446.97 332.78,-439.95 330.14,-446.43"/>
</g>
<!-- triggerService.js&#45;&gt;coinLedger.js -->
<g id="edge20" class="edge">
<title>triggerService.js&#45;&gt;coinLedger.js</title>
<path fill="none" stroke="#757575" d="M268.52,-323.32C287.11,-325.6 307.88,-328.15 326.61,-330.45"/>
<polygon fill="#757575" stroke="#757575" points="326.44,-333.96 336.79,-331.7 327.29,-327.01 326.44,-333.96"/>
</g>
<!-- triggerService.js&#45;&gt;entryService.js -->
<g id="edge21" class="edge">
<title>triggerService.js&#45;&gt;entryService.js</title>
<path fill="none" stroke="#757575" d="M268.52,-310.01C285.64,-308 304.59,-305.79 322.11,-303.74"/>
<polygon fill="#757575" stroke="#757575" points="322.71,-307.19 332.24,-302.55 321.9,-300.24 322.71,-307.19"/>
</g>
<!-- triggerService.js&#45;&gt;profileService.js -->
<g id="edge22" class="edge">
<title>triggerService.js&#45;&gt;profileService.js</title>
<path fill="none" stroke="#757575" d="M185.4,-304.89C155.05,-287.21 105.09,-254.3 77.28,-233.55"/>
<polygon fill="#757575" stroke="#757575" points="79.15,-230.57 69.08,-227.27 74.9,-236.13 79.15,-230.57"/>
</g>
<!-- userService.js -->
<g id="node23" class="node">
<title>userService.js</title>
<path fill="none" stroke="#c6c5fe" d="M427.83,-95C427.83,-95 342.17,-95 342.17,-95 338.33,-95 334.5,-91.17 334.5,-87.33 334.5,-87.33 334.5,-79.67 334.5,-79.67 334.5,-75.83 338.33,-72 342.17,-72 342.17,-72 427.83,-72 427.83,-72 431.67,-72 435.5,-75.83 435.5,-79.67 435.5,-79.67 435.5,-87.33 435.5,-87.33 435.5,-91.17 431.67,-95 427.83,-95"/>
<text text-anchor="middle" x="385" y="-79.8" font-family="Arial" font-size="14.00" fill="#c6c5fe">userService.js</text>
</g>
<!-- triggerService.js&#45;&gt;userService.js -->
<g id="edge23" class="edge">
<title>triggerService.js&#45;&gt;userService.js</title>
<path fill="none" stroke="#757575" d="M219.55,-304.73C231.35,-283.39 256.7,-236.83 276,-196.5 293.36,-160.23 283.36,-141.73 312,-113.5 317.7,-107.89 324.6,-103.26 331.84,-99.48"/>
<polygon fill="#757575" stroke="#757575" points="333.57,-102.53 341.14,-95.12 330.6,-96.2 333.57,-102.53"/>
</g>
<!-- userService.js&#45;&gt;../config/cache.js -->
<g id="edge25" class="edge">
<title>userService.js&#45;&gt;../config/cache.js</title>
<path fill="none" stroke="#757575" d="M406.95,-71.8C428.32,-60.27 462.67,-42.77 494,-31.5 499.59,-29.49 505.46,-27.61 511.39,-25.87"/>
<polygon fill="#757575" stroke="#757575" points="512.69,-29.14 521.38,-23.08 510.8,-22.4 512.69,-29.14"/>
</g>
<!-- userService.js&#45;&gt;../config/firebase.js -->
<g id="edge26" class="edge">
<title>userService.js&#45;&gt;../config/firebase.js</title>
<path fill="none" stroke="#757575" d="M435.66,-75.36C455.76,-72.06 479.4,-68.18 501.43,-64.57"/>
<polygon fill="#757575" stroke="#757575" points="502.12,-68 511.42,-62.93 500.99,-61.09 502.12,-68"/>
</g>
<!-- userFcmTokenService.js -->
<g id="node24" class="node">
<title>userFcmTokenService.js</title>
<path fill="none" stroke="#c6c5fe" d="M650.33,-105C650.33,-105 501.67,-105 501.67,-105 497.83,-105 494,-101.17 494,-97.33 494,-97.33 494,-89.67 494,-89.67 494,-85.83 497.83,-82 501.67,-82 501.67,-82 650.33,-82 650.33,-82 654.17,-82 658,-85.83 658,-89.67 658,-89.67 658,-97.33 658,-97.33 658,-101.17 654.17,-105 650.33,-105"/>
<text text-anchor="middle" x="576" y="-89.8" font-family="Arial" font-size="14.00" fill="#c6c5fe">userFcmTokenService.js</text>
</g>
<!-- userService.js&#45;&gt;userFcmTokenService.js -->
<g id="edge27" class="edge">
<title>userService.js&#45;&gt;userFcmTokenService.js</title>
<path fill="none" stroke="#757575" d="M435.66,-86.13C450.42,-86.91 467.08,-87.79 483.62,-88.67"/>
<polygon fill="#757575" stroke="#757575" points="483.71,-92.17 493.88,-89.21 484.08,-85.18 483.71,-92.17"/>
</g>
<!-- userFcmTokenService.js&#45;&gt;../models/UserFcmToken.js -->
<g id="edge24" class="edge">
<title>userFcmTokenService.js&#45;&gt;../models/UserFcmToken.js</title>
<path fill="none" stroke="#757575" d="M658.02,-93.5C666.47,-93.5 675.12,-93.5 683.74,-93.5"/>
<polygon fill="#757575" stroke="#757575" points="683.84,-97 693.84,-93.5 683.84,-90 683.84,-97"/>
</g>
</g>
</svg>
