<?xml version="1.0" encoding="UTF-8" standalone="no"?>
<!DOCTYPE svg PUBLIC "-//W3C//DTD SVG 1.1//EN"
 "http://www.w3.org/Graphics/SVG/1.1/DTD/svg11.dtd">
<!-- Generated by graphviz version 2.42.4 (0)
 -->
<!-- Title: G Pages: 1 -->
<svg width="755pt" height="483pt"
 viewBox="0.00 0.00 755.20 482.62" xmlns="http://www.w3.org/2000/svg" xmlns:xlink="http://www.w3.org/1999/xlink">
<g id="graph0" class="graph" transform="scale(1 1) rotate(0) translate(21.6 461.02)">
<title>G</title>
<polygon fill="#111111" stroke="transparent" points="-21.6,21.6 -21.6,-461.02 733.6,-461.02 733.6,21.6 -21.6,21.6"/>
<!-- ../config/cache.js -->
<g id="node1" class="node">
<title>../config/cache.js</title>
<path fill="none" stroke="#cfffac" d="M463.83,-187C463.83,-187 362.17,-187 362.17,-187 358.33,-187 354.5,-183.17 354.5,-179.33 354.5,-179.33 354.5,-171.67 354.5,-171.67 354.5,-167.83 358.33,-164 362.17,-164 362.17,-164 463.83,-164 463.83,-164 467.67,-164 471.5,-167.83 471.5,-171.67 471.5,-171.67 471.5,-179.33 471.5,-179.33 471.5,-183.17 467.67,-187 463.83,-187"/>
<text text-anchor="middle" x="413" y="-171.8" font-family="Arial" font-size="14.00" fill="#cfffac">../config/cache.js</text>
</g>
<!-- ../config/coin.js -->
<g id="node2" class="node">
<title>../config/coin.js</title>
<path fill="none" stroke="#cfffac" d="M666.83,-412C666.83,-412 576.17,-412 576.17,-412 572.33,-412 568.5,-408.17 568.5,-404.33 568.5,-404.33 568.5,-396.67 568.5,-396.67 568.5,-392.83 572.33,-389 576.17,-389 576.17,-389 666.83,-389 666.83,-389 670.67,-389 674.5,-392.83 674.5,-396.67 674.5,-396.67 674.5,-404.33 674.5,-404.33 674.5,-408.17 670.67,-412 666.83,-412"/>
<text text-anchor="middle" x="621.5" y="-396.8" font-family="Arial" font-size="14.00" fill="#cfffac">../config/coin.js</text>
</g>
<!-- ../config/firebase.js -->
<g id="node3" class="node">
<title>../config/firebase.js</title>
<path fill="none" stroke="#cfffac" d="M469.83,-269C469.83,-269 356.17,-269 356.17,-269 352.33,-269 348.5,-265.17 348.5,-261.33 348.5,-261.33 348.5,-253.67 348.5,-253.67 348.5,-249.83 352.33,-246 356.17,-246 356.17,-246 469.83,-246 469.83,-246 473.67,-246 477.5,-249.83 477.5,-253.67 477.5,-253.67 477.5,-261.33 477.5,-261.33 477.5,-265.17 473.67,-269 469.83,-269"/>
<text text-anchor="middle" x="413" y="-253.8" font-family="Arial" font-size="14.00" fill="#cfffac">../config/firebase.js</text>
</g>
<!-- ../models/Aggregation.js -->
<g id="node4" class="node">
<title>../models/Aggregation.js</title>
<path fill="none" stroke="#cfffac" d="M486.33,-392C486.33,-392 339.67,-392 339.67,-392 335.83,-392 332,-388.17 332,-384.33 332,-384.33 332,-376.67 332,-376.67 332,-372.83 335.83,-369 339.67,-369 339.67,-369 486.33,-369 486.33,-369 490.17,-369 494,-372.83 494,-376.67 494,-376.67 494,-384.33 494,-384.33 494,-388.17 490.17,-392 486.33,-392"/>
<text text-anchor="middle" x="413" y="-376.8" font-family="Arial" font-size="14.00" fill="#cfffac">../models/Aggregation.js</text>
</g>
<!-- ../models/AuditLog.js -->
<g id="node5" class="node">
<title>../models/AuditLog.js</title>
<path fill="none" stroke="#cfffac" d="M685.33,-105C685.33,-105 557.67,-105 557.67,-105 553.83,-105 550,-101.17 550,-97.33 550,-97.33 550,-89.67 550,-89.67 550,-85.83 553.83,-82 557.67,-82 557.67,-82 685.33,-82 685.33,-82 689.17,-82 693,-85.83 693,-89.67 693,-89.67 693,-97.33 693,-97.33 693,-101.17 689.17,-105 685.33,-105"/>
<text text-anchor="middle" x="621.5" y="-89.8" font-family="Arial" font-size="14.00" fill="#cfffac">../models/AuditLog.js</text>
</g>
<!-- ../models/Coin.js -->
<g id="node6" class="node">
<title>../models/Coin.js</title>
<path fill="none" stroke="#cfffac" d="M672.33,-351C672.33,-351 570.67,-351 570.67,-351 566.83,-351 563,-347.17 563,-343.33 563,-343.33 563,-335.67 563,-335.67 563,-331.83 566.83,-328 570.67,-328 570.67,-328 672.33,-328 672.33,-328 676.17,-328 680,-331.83 680,-335.67 680,-335.67 680,-343.33 680,-343.33 680,-347.17 676.17,-351 672.33,-351"/>
<text text-anchor="middle" x="621.5" y="-335.8" font-family="Arial" font-size="14.00" fill="#cfffac">../models/Coin.js</text>
</g>
<!-- ../models/Entry.js -->
<g id="node7" class="node">
<title>../models/Entry.js</title>
<path fill="none" stroke="#cfffac" d="M274.33,-145C274.33,-145 169.67,-145 169.67,-145 165.83,-145 162,-141.17 162,-137.33 162,-137.33 162,-129.67 162,-129.67 162,-125.83 165.83,-122 169.67,-122 169.67,-122 274.33,-122 274.33,-122 278.17,-122 282,-125.83 282,-129.67 282,-129.67 282,-137.33 282,-137.33 282,-141.17 278.17,-145 274.33,-145"/>
<text text-anchor="middle" x="222" y="-129.8" font-family="Arial" font-size="14.00" fill="#cfffac">../models/Entry.js</text>
</g>
<!-- ../models/EntryFields.js -->
<g id="node8" class="node">
<title>../models/EntryFields.js</title>
<path fill="none" stroke="#cfffac" d="M483.83,-146C483.83,-146 342.17,-146 342.17,-146 338.33,-146 334.5,-142.17 334.5,-138.33 334.5,-138.33 334.5,-130.67 334.5,-130.67 334.5,-126.83 338.33,-123 342.17,-123 342.17,-123 483.83,-123 483.83,-123 487.67,-123 491.5,-126.83 491.5,-130.67 491.5,-130.67 491.5,-138.33 491.5,-138.33 491.5,-142.17 487.67,-146 483.83,-146"/>
<text text-anchor="middle" x="413" y="-130.8" font-family="Arial" font-size="14.00" fill="#cfffac">../models/EntryFields.js</text>
</g>
<!-- ../models/Folder.js -->
<g id="node9" class="node">
<title>../models/Folder.js</title>
<path fill="none" stroke="#cfffac" d="M468.83,-64C468.83,-64 357.17,-64 357.17,-64 353.33,-64 349.5,-60.17 349.5,-56.33 349.5,-56.33 349.5,-48.67 349.5,-48.67 349.5,-44.83 353.33,-41 357.17,-41 357.17,-41 468.83,-41 468.83,-41 472.67,-41 476.5,-44.83 476.5,-48.67 476.5,-48.67 476.5,-56.33 476.5,-56.33 476.5,-60.17 472.67,-64 468.83,-64"/>
<text text-anchor="middle" x="413" y="-48.8" font-family="Arial" font-size="14.00" fill="#cfffac">../models/Folder.js</text>
</g>
<!-- ../models/Group.js -->
<g id="node10" class="node">
<title>../models/Group.js</title>
<path fill="none" stroke="#cfffac" d="M469.33,-23C469.33,-23 356.67,-23 356.67,-23 352.83,-23 349,-19.17 349,-15.33 349,-15.33 349,-7.67 349,-7.67 349,-3.83 352.83,0 356.67,0 356.67,0 469.33,0 469.33,0 473.17,0 477,-3.83 477,-7.67 477,-7.67 477,-15.33 477,-15.33 477,-19.17 473.17,-23 469.33,-23"/>
<text text-anchor="middle" x="413" y="-7.8" font-family="Arial" font-size="14.00" fill="#cfffac">../models/Group.js</text>
</g>
<!-- ../models/Profile.js -->
<g id="node11" class="node">
<title>../models/Profile.js</title>
<path fill="none" stroke="#cfffac" d="M469.33,-310C469.33,-310 356.67,-310 356.67,-310 352.83,-310 349,-306.17 349,-302.33 349,-302.33 349,-294.67 349,-294.67 349,-290.83 352.83,-287 356.67,-287 356.67,-287 469.33,-287 469.33,-287 473.17,-287 477,-290.83 477,-294.67 477,-294.67 477,-302.33 477,-302.33 477,-306.17 473.17,-310 469.33,-310"/>
<text text-anchor="middle" x="413" y="-294.8" font-family="Arial" font-size="14.00" fill="#cfffac">../models/Profile.js</text>
</g>
<!-- ../models/Trigger.js -->
<g id="node12" class="node">
<title>../models/Trigger.js</title>
<path fill="none" stroke="#cfffac" d="M279.83,-351C279.83,-351 164.17,-351 164.17,-351 160.33,-351 156.5,-347.17 156.5,-343.33 156.5,-343.33 156.5,-335.67 156.5,-335.67 156.5,-331.83 160.33,-328 164.17,-328 164.17,-328 279.83,-328 279.83,-328 283.67,-328 287.5,-331.83 287.5,-335.67 287.5,-335.67 287.5,-343.33 287.5,-343.33 287.5,-347.17 283.67,-351 279.83,-351"/>
<text text-anchor="middle" x="222" y="-335.8" font-family="Arial" font-size="14.00" fill="#cfffac">../models/Trigger.js</text>
</g>
<!-- ../models/UserFcmToken.js -->
<g id="node13" class="node">
<title>../models/UserFcmToken.js</title>
<path fill="none" stroke="#cfffac" d="M704.33,-228C704.33,-228 538.67,-228 538.67,-228 534.83,-228 531,-224.17 531,-220.33 531,-220.33 531,-212.67 531,-212.67 531,-208.83 534.83,-205 538.67,-205 538.67,-205 704.33,-205 704.33,-205 708.17,-205 712,-208.83 712,-212.67 712,-212.67 712,-220.33 712,-220.33 712,-224.17 708.17,-228 704.33,-228"/>
<text text-anchor="middle" x="621.5" y="-212.8" font-family="Arial" font-size="14.00" fill="#cfffac">../models/UserFcmToken.js</text>
</g>
<!-- EntryFields.js -->
<g id="node14" class="node">
<title>EntryFields.js</title>
<path fill="none" stroke="#c6c5fe" d="M263.33,-186C263.33,-186 180.67,-186 180.67,-186 176.83,-186 173,-182.17 173,-178.33 173,-178.33 173,-170.67 173,-170.67 173,-166.83 176.83,-163 180.67,-163 180.67,-163 263.33,-163 263.33,-163 267.17,-163 271,-166.83 271,-170.67 271,-170.67 271,-178.33 271,-178.33 271,-182.17 267.17,-186 263.33,-186"/>
<text text-anchor="middle" x="222" y="-170.8" font-family="Arial" font-size="14.00" fill="#c6c5fe">EntryFields.js</text>
</g>
<!-- EntryFields.js&#45;&gt;../models/EntryFields.js -->
<g id="edge1" class="edge">
<title>EntryFields.js&#45;&gt;../models/EntryFields.js</title>
<path fill="none" stroke="#757575" d="M271.18,-164.3C294.45,-159.38 322.7,-153.4 347.77,-148.09"/>
<polygon fill="#757575" stroke="#757575" points="348.5,-151.52 357.56,-146.02 347.05,-144.67 348.5,-151.52"/>
</g>
<!-- auditLogService.js -->
<g id="node15" class="node">
<title>auditLogService.js</title>
<path fill="none" stroke="#c6c5fe" d="M468.83,-105C468.83,-105 357.17,-105 357.17,-105 353.33,-105 349.5,-101.17 349.5,-97.33 349.5,-97.33 349.5,-89.67 349.5,-89.67 349.5,-85.83 353.33,-82 357.17,-82 357.17,-82 468.83,-82 468.83,-82 472.67,-82 476.5,-85.83 476.5,-89.67 476.5,-89.67 476.5,-97.33 476.5,-97.33 476.5,-101.17 472.67,-105 468.83,-105"/>
<text text-anchor="middle" x="413" y="-89.8" font-family="Arial" font-size="14.00" fill="#c6c5fe">auditLogService.js</text>
</g>
<!-- EntryFields.js&#45;&gt;auditLogService.js -->
<g id="edge2" class="edge">
<title>EntryFields.js&#45;&gt;auditLogService.js</title>
<path fill="none" stroke="#757575" d="M271.09,-164.52C279.41,-161.68 287.72,-158.07 295,-153.5 315.25,-140.78 310.49,-125.8 331,-113.5 333.86,-111.79 336.86,-110.22 339.95,-108.79"/>
<polygon fill="#757575" stroke="#757575" points="341.53,-111.92 349.44,-104.88 338.86,-105.45 341.53,-111.92"/>
</g>
<!-- auditLogService.js&#45;&gt;../models/AuditLog.js -->
<g id="edge4" class="edge">
<title>auditLogService.js&#45;&gt;../models/AuditLog.js</title>
<path fill="none" stroke="#757575" d="M476.52,-93.5C496.41,-93.5 518.71,-93.5 539.7,-93.5"/>
<polygon fill="#757575" stroke="#757575" points="539.88,-97 549.88,-93.5 539.88,-90 539.88,-97"/>
</g>
<!-- aggregationService.js -->
<g id="node16" class="node">
<title>aggregationService.js</title>
<path fill="none" stroke="#c6c5fe" d="M287.33,-392C287.33,-392 156.67,-392 156.67,-392 152.83,-392 149,-388.17 149,-384.33 149,-384.33 149,-376.67 149,-376.67 149,-372.83 152.83,-369 156.67,-369 156.67,-369 287.33,-369 287.33,-369 291.17,-369 295,-372.83 295,-376.67 295,-376.67 295,-384.33 295,-384.33 295,-388.17 291.17,-392 287.33,-392"/>
<text text-anchor="middle" x="222" y="-376.8" font-family="Arial" font-size="14.00" fill="#c6c5fe">aggregationService.js</text>
</g>
<!-- aggregationService.js&#45;&gt;../models/Aggregation.js -->
<g id="edge3" class="edge">
<title>aggregationService.js&#45;&gt;../models/Aggregation.js</title>
<path fill="none" stroke="#757575" d="M295.26,-380.5C303.97,-380.5 312.94,-380.5 321.87,-380.5"/>
<polygon fill="#757575" stroke="#757575" points="321.9,-384 331.9,-380.5 321.9,-377 321.9,-384"/>
</g>
<!-- coinLedger.js -->
<g id="node17" class="node">
<title>coinLedger.js</title>
<path fill="none" stroke="#c6c5fe" d="M453.33,-351C453.33,-351 372.67,-351 372.67,-351 368.83,-351 365,-347.17 365,-343.33 365,-343.33 365,-335.67 365,-335.67 365,-331.83 368.83,-328 372.67,-328 372.67,-328 453.33,-328 453.33,-328 457.17,-328 461,-331.83 461,-335.67 461,-335.67 461,-343.33 461,-343.33 461,-347.17 457.17,-351 453.33,-351"/>
<text text-anchor="middle" x="413" y="-335.8" font-family="Arial" font-size="14.00" fill="#c6c5fe">coinLedger.js</text>
</g>
<!-- coinLedger.js&#45;&gt;../config/coin.js -->
<g id="edge5" class="edge">
<title>coinLedger.js&#45;&gt;../config/coin.js</title>
<path fill="none" stroke="#757575" d="M460.38,-351.06C471.74,-354.02 483.83,-357.28 495,-360.5 522.23,-368.36 552.5,-377.99 576.5,-385.82"/>
<polygon fill="#757575" stroke="#757575" points="575.44,-389.16 586.03,-388.95 577.62,-382.51 575.44,-389.16"/>
</g>
<!-- coinLedger.js&#45;&gt;../models/Coin.js -->
<g id="edge6" class="edge">
<title>coinLedger.js&#45;&gt;../models/Coin.js</title>
<path fill="none" stroke="#757575" d="M461.12,-339.5C488.16,-339.5 522.59,-339.5 552.53,-339.5"/>
<polygon fill="#757575" stroke="#757575" points="552.91,-343 562.91,-339.5 552.91,-336 552.91,-343"/>
</g>
<!-- entryService.js -->
<g id="node18" class="node">
<title>entryService.js</title>
<path fill="none" stroke="#c6c5fe" d="M101.33,-125C101.33,-125 11.67,-125 11.67,-125 7.83,-125 4,-121.17 4,-117.33 4,-117.33 4,-109.67 4,-109.67 4,-105.83 7.83,-102 11.67,-102 11.67,-102 101.33,-102 101.33,-102 105.17,-102 109,-105.83 109,-109.67 109,-109.67 109,-117.33 109,-117.33 109,-121.17 105.17,-125 101.33,-125"/>
<text text-anchor="middle" x="56.5" y="-109.8" font-family="Arial" font-size="14.00" fill="#c6c5fe">entryService.js</text>
</g>
<!-- entryService.js&#45;&gt;../models/Entry.js -->
<g id="edge7" class="edge">
<title>entryService.js&#45;&gt;../models/Entry.js</title>
<path fill="none" stroke="#757575" d="M109.23,-119.83C122.71,-121.48 137.45,-123.28 151.67,-125.02"/>
<polygon fill="#757575" stroke="#757575" points="151.56,-128.53 161.91,-126.27 152.41,-121.58 151.56,-128.53"/>
</g>
<!-- entryService.js&#45;&gt;auditLogService.js -->
<g id="edge8" class="edge">
<title>entryService.js&#45;&gt;auditLogService.js</title>
<path fill="none" stroke="#757575" d="M109.05,-110.59C169.6,-107.18 270.47,-101.48 339.03,-97.62"/>
<polygon fill="#757575" stroke="#757575" points="339.54,-101.09 349.33,-97.04 339.15,-94.1 339.54,-101.09"/>
</g>
<!-- folderService.js -->
<g id="node19" class="node">
<title>folderService.js</title>
<path fill="none" stroke="#c6c5fe" d="M268.83,-64C268.83,-64 175.17,-64 175.17,-64 171.33,-64 167.5,-60.17 167.5,-56.33 167.5,-56.33 167.5,-48.67 167.5,-48.67 167.5,-44.83 171.33,-41 175.17,-41 175.17,-41 268.83,-41 268.83,-41 272.67,-41 276.5,-44.83 276.5,-48.67 276.5,-48.67 276.5,-56.33 276.5,-56.33 276.5,-60.17 272.67,-64 268.83,-64"/>
<text text-anchor="middle" x="222" y="-48.8" font-family="Arial" font-size="14.00" fill="#c6c5fe">folderService.js</text>
</g>
<!-- folderService.js&#45;&gt;../models/Folder.js -->
<g id="edge9" class="edge">
<title>folderService.js&#45;&gt;../models/Folder.js</title>
<path fill="none" stroke="#757575" d="M276.65,-52.5C296.07,-52.5 318.33,-52.5 339.12,-52.5"/>
<polygon fill="#757575" stroke="#757575" points="339.18,-56 349.18,-52.5 339.18,-49 339.18,-56"/>
</g>
<!-- folderService.js&#45;&gt;auditLogService.js -->
<g id="edge10" class="edge">
<title>folderService.js&#45;&gt;auditLogService.js</title>
<path fill="none" stroke="#757575" d="M276.15,-64.03C298.79,-68.94 325.38,-74.71 349,-79.83"/>
<polygon fill="#757575" stroke="#757575" points="348.41,-83.29 358.92,-81.99 349.89,-76.45 348.41,-83.29"/>
</g>
<!-- groupService.js -->
<g id="node20" class="node">
<title>groupService.js</title>
<path fill="none" stroke="#c6c5fe" d="M269.33,-23C269.33,-23 174.67,-23 174.67,-23 170.83,-23 167,-19.17 167,-15.33 167,-15.33 167,-7.67 167,-7.67 167,-3.83 170.83,0 174.67,0 174.67,0 269.33,0 269.33,0 273.17,0 277,-3.83 277,-7.67 277,-7.67 277,-15.33 277,-15.33 277,-19.17 273.17,-23 269.33,-23"/>
<text text-anchor="middle" x="222" y="-7.8" font-family="Arial" font-size="14.00" fill="#c6c5fe">groupService.js</text>
</g>
<!-- groupService.js&#45;&gt;../models/Group.js -->
<g id="edge11" class="edge">
<title>groupService.js&#45;&gt;../models/Group.js</title>
<path fill="none" stroke="#757575" d="M277.16,-11.5C296.29,-11.5 318.13,-11.5 338.59,-11.5"/>
<polygon fill="#757575" stroke="#757575" points="338.82,-15 348.82,-11.5 338.82,-8 338.82,-15"/>
</g>
<!-- groupService.js&#45;&gt;auditLogService.js -->
<g id="edge12" class="edge">
<title>groupService.js&#45;&gt;auditLogService.js</title>
<path fill="none" stroke="#757575" d="M277.16,-22.81C283.41,-25.19 289.51,-28.05 295,-31.5 315.54,-44.39 310.35,-59.78 331,-72.5 334.38,-74.58 337.97,-76.46 341.67,-78.15"/>
<polygon fill="#757575" stroke="#757575" points="340.5,-81.45 351.08,-81.99 343.14,-74.97 340.5,-81.45"/>
</g>
<!-- profileService.js -->
<g id="node21" class="node">
<title>profileService.js</title>
<path fill="none" stroke="#c6c5fe" d="M270.33,-271C270.33,-271 173.67,-271 173.67,-271 169.83,-271 166,-267.17 166,-263.33 166,-263.33 166,-255.67 166,-255.67 166,-251.83 169.83,-248 173.67,-248 173.67,-248 270.33,-248 270.33,-248 274.17,-248 278,-251.83 278,-255.67 278,-255.67 278,-263.33 278,-263.33 278,-267.17 274.17,-271 270.33,-271"/>
<text text-anchor="middle" x="222" y="-255.8" font-family="Arial" font-size="14.00" fill="#c6c5fe">profileService.js</text>
</g>
<!-- profileService.js&#45;&gt;../models/Profile.js -->
<g id="edge13" class="edge">
<title>profileService.js&#45;&gt;../models/Profile.js</title>
<path fill="none" stroke="#757575" d="M278.17,-270.89C299.43,-275.27 323.93,-280.33 346.1,-284.9"/>
<polygon fill="#757575" stroke="#757575" points="345.6,-288.37 356.1,-286.97 347.02,-281.52 345.6,-288.37"/>
</g>
<!-- profileService.js&#45;&gt;auditLogService.js -->
<g id="edge14" class="edge">
<title>profileService.js&#45;&gt;auditLogService.js</title>
<path fill="none" stroke="#757575" d="M278.2,-249.07C284.42,-246.12 290.23,-242.34 295,-237.5 335.29,-196.64 289.61,-153.25 331,-113.5 333.78,-110.84 336.85,-108.51 340.12,-106.48"/>
<polygon fill="#757575" stroke="#757575" points="341.94,-109.47 349.21,-101.76 338.72,-103.26 341.94,-109.47"/>
</g>
<!-- profileService.js&#45;&gt;coinLedger.js -->
<g id="edge15" class="edge">
<title>profileService.js&#45;&gt;coinLedger.js</title>
<path fill="none" stroke="#757575" d="M263.96,-271.02C274.47,-274.84 285.49,-279.65 295,-285.5 313.74,-297.03 311.68,-308.96 331,-319.5 338.4,-323.54 346.63,-326.78 354.92,-329.36"/>
<polygon fill="#757575" stroke="#757575" points="354.06,-332.76 364.63,-332.12 355.97,-326.02 354.06,-332.76"/>
</g>
<!-- triggerService.js -->
<g id="node22" class="node">
<title>triggerService.js</title>
<path fill="none" stroke="#c6c5fe" d="M105.33,-311C105.33,-311 7.67,-311 7.67,-311 3.83,-311 0,-307.17 0,-303.33 0,-303.33 0,-295.67 0,-295.67 0,-291.83 3.83,-288 7.67,-288 7.67,-288 105.33,-288 105.33,-288 109.17,-288 113,-291.83 113,-295.67 113,-295.67 113,-303.33 113,-303.33 113,-307.17 109.17,-311 105.33,-311"/>
<text text-anchor="middle" x="56.5" y="-295.8" font-family="Arial" font-size="14.00" fill="#c6c5fe">triggerService.js</text>
</g>
<!-- triggerService.js&#45;&gt;../config/coin.js -->
<g id="edge16" class="edge">
<title>triggerService.js&#45;&gt;../config/coin.js</title>
<path fill="none" stroke="#757575" d="M63.59,-311.24C76.04,-333.81 106.86,-382.69 149,-401.5 288.78,-463.89 475.92,-434.6 566.66,-414.28"/>
<polygon fill="#757575" stroke="#757575" points="567.48,-417.68 576.45,-412.04 565.92,-410.86 567.48,-417.68"/>
</g>
<!-- triggerService.js&#45;&gt;../models/Entry.js -->
<g id="edge17" class="edge">
<title>triggerService.js&#45;&gt;../models/Entry.js</title>
<path fill="none" stroke="#757575" d="M61.38,-287.99C71.31,-260.34 100.33,-189.81 149,-153.5 150.82,-152.14 152.72,-150.88 154.69,-149.7"/>
<polygon fill="#757575" stroke="#757575" points="156.41,-152.76 163.7,-145.07 153.2,-146.53 156.41,-152.76"/>
</g>
<!-- triggerService.js&#45;&gt;../models/Trigger.js -->
<g id="edge18" class="edge">
<title>triggerService.js&#45;&gt;../models/Trigger.js</title>
<path fill="none" stroke="#757575" d="M104.79,-311.07C123.26,-315.59 144.61,-320.81 163.92,-325.54"/>
<polygon fill="#757575" stroke="#757575" points="163.27,-328.98 173.82,-327.96 164.93,-322.18 163.27,-328.98"/>
</g>
<!-- triggerService.js&#45;&gt;aggregationService.js -->
<g id="edge19" class="edge">
<title>triggerService.js&#45;&gt;aggregationService.js</title>
<path fill="none" stroke="#757575" d="M71.86,-311.19C89.19,-324.78 119.66,-347.06 149,-360.5 153.09,-362.37 157.4,-364.11 161.78,-365.7"/>
<polygon fill="#757575" stroke="#757575" points="160.86,-369.09 171.46,-368.98 163.11,-362.46 160.86,-369.09"/>
</g>
<!-- triggerService.js&#45;&gt;coinLedger.js -->
<g id="edge20" class="edge">
<title>triggerService.js&#45;&gt;coinLedger.js</title>
<path fill="none" stroke="#757575" d="M113.31,-302.85C161.53,-306.07 233.02,-311.61 295,-319.5 314.58,-321.99 335.89,-325.42 354.89,-328.73"/>
<polygon fill="#757575" stroke="#757575" points="354.43,-332.21 364.89,-330.5 355.65,-325.31 354.43,-332.21"/>
</g>
<!-- triggerService.js&#45;&gt;profileService.js -->
<g id="edge21" class="edge">
<title>triggerService.js&#45;&gt;profileService.js</title>
<path fill="none" stroke="#757575" d="M104.79,-287.93C123.26,-283.41 144.61,-278.19 163.92,-273.46"/>
<polygon fill="#757575" stroke="#757575" points="164.93,-276.82 173.82,-271.04 163.27,-270.02 164.93,-276.82"/>
</g>
<!-- userService.js -->
<g id="node23" class="node">
<title>userService.js</title>
<path fill="none" stroke="#c6c5fe" d="M264.83,-229C264.83,-229 179.17,-229 179.17,-229 175.33,-229 171.5,-225.17 171.5,-221.33 171.5,-221.33 171.5,-213.67 171.5,-213.67 171.5,-209.83 175.33,-206 179.17,-206 179.17,-206 264.83,-206 264.83,-206 268.67,-206 272.5,-209.83 272.5,-213.67 272.5,-213.67 272.5,-221.33 272.5,-221.33 272.5,-225.17 268.67,-229 264.83,-229"/>
<text text-anchor="middle" x="222" y="-213.8" font-family="Arial" font-size="14.00" fill="#c6c5fe">userService.js</text>
</g>
<!-- triggerService.js&#45;&gt;userService.js -->
<g id="edge22" class="edge">
<title>triggerService.js&#45;&gt;userService.js</title>
<path fill="none" stroke="#757575" d="M71.89,-287.87C89.24,-274.34 119.75,-252.12 149,-238.5 153.87,-236.23 159.04,-234.15 164.28,-232.25"/>
<polygon fill="#757575" stroke="#757575" points="165.42,-235.56 173.76,-229.04 163.17,-228.94 165.42,-235.56"/>
</g>
<!-- userService.js&#45;&gt;../config/cache.js -->
<g id="edge24" class="edge">
<title>userService.js&#45;&gt;../config/cache.js</title>
<path fill="none" stroke="#757575" d="M272.66,-206.46C296.41,-201.19 325.08,-194.82 350.23,-189.23"/>
<polygon fill="#757575" stroke="#757575" points="351.03,-192.63 360.03,-187.05 349.51,-185.8 351.03,-192.63"/>
</g>
<!-- userService.js&#45;&gt;../config/firebase.js -->
<g id="edge25" class="edge">
<title>userService.js&#45;&gt;../config/firebase.js</title>
<path fill="none" stroke="#757575" d="M272.66,-228.01C295.54,-232.85 322.98,-238.66 347.44,-243.84"/>
<polygon fill="#757575" stroke="#757575" points="346.85,-247.29 357.36,-245.94 348.3,-240.44 346.85,-247.29"/>
</g>
<!-- userFcmTokenService.js -->
<g id="node24" class="node">
<title>userFcmTokenService.js</title>
<path fill="none" stroke="#c6c5fe" d="M487.33,-228C487.33,-228 338.67,-228 338.67,-228 334.83,-228 331,-224.17 331,-220.33 331,-220.33 331,-212.67 331,-212.67 331,-208.83 334.83,-205 338.67,-205 338.67,-205 487.33,-205 487.33,-205 491.17,-205 495,-208.83 495,-212.67 495,-212.67 495,-220.33 495,-220.33 495,-224.17 491.17,-228 487.33,-228"/>
<text text-anchor="middle" x="413" y="-212.8" font-family="Arial" font-size="14.00" fill="#c6c5fe">userFcmTokenService.js</text>
</g>
<!-- userService.js&#45;&gt;userFcmTokenService.js -->
<g id="edge26" class="edge">
<title>userService.js&#45;&gt;userFcmTokenService.js</title>
<path fill="none" stroke="#757575" d="M272.66,-217.24C287.42,-217.16 304.08,-217.07 320.62,-216.98"/>
<polygon fill="#757575" stroke="#757575" points="320.9,-220.48 330.88,-216.93 320.86,-213.48 320.9,-220.48"/>
</g>
<!-- userFcmTokenService.js&#45;&gt;../models/UserFcmToken.js -->
<g id="edge23" class="edge">
<title>userFcmTokenService.js&#45;&gt;../models/UserFcmToken.js</title>
<path fill="none" stroke="#757575" d="M495.02,-216.5C503.47,-216.5 512.12,-216.5 520.74,-216.5"/>
<polygon fill="#757575" stroke="#757575" points="520.84,-220 530.84,-216.5 520.84,-213 520.84,-220"/>
</g>
</g>
</svg>
