<?xml version="1.0" encoding="UTF-8" standalone="no"?>
<!DOCTYPE svg PUBLIC "-//W3C//DTD SVG 1.1//EN"
 "http://www.w3.org/Graphics/SVG/1.1/DTD/svg11.dtd">
<!-- Generated by graphviz version 2.42.4 (0)
 -->
<!-- Title: G Pages: 1 -->
<svg width="1054pt" height="541pt"
 viewBox="0.00 0.00 1054.20 541.43" xmlns="http://www.w3.org/2000/svg" xmlns:xlink="http://www.w3.org/1999/xlink">
<g id="graph0" class="graph" transform="scale(1 1) rotate(0) translate(21.6 519.83)">
<title>G</title>
<polygon fill="#111111" stroke="transparent" points="-21.6,21.6 -21.6,-519.83 1032.6,-519.83 1032.6,21.6 -21.6,21.6"/>
<!-- ../config/coin.js -->
<g id="node1" class="node">
<title>../config/coin.js</title>
<path fill="none" stroke="#cfffac" d="M819.83,-93.23C819.83,-93.23 729.17,-93.23 729.17,-93.23 725.33,-93.23 721.5,-89.39 721.5,-85.56 721.5,-85.56 721.5,-77.89 721.5,-77.89 721.5,-74.06 725.33,-70.23 729.17,-70.23 729.17,-70.23 819.83,-70.23 819.83,-70.23 823.67,-70.23 827.5,-74.06 827.5,-77.89 827.5,-77.89 827.5,-85.56 827.5,-85.56 827.5,-89.39 823.67,-93.23 819.83,-93.23"/>
<text text-anchor="middle" x="774.5" y="-78.03" font-family="Arial" font-size="14.00" fill="#cfffac">../config/coin.js</text>
</g>
<!-- ../config/firebase.js -->
<g id="node2" class="node">
<title>../config/firebase.js</title>
<path fill="none" stroke="#cfffac" d="M1003.33,-113.23C1003.33,-113.23 889.67,-113.23 889.67,-113.23 885.83,-113.23 882,-109.39 882,-105.56 882,-105.56 882,-97.89 882,-97.89 882,-94.06 885.83,-90.23 889.67,-90.23 889.67,-90.23 1003.33,-90.23 1003.33,-90.23 1007.17,-90.23 1011,-94.06 1011,-97.89 1011,-97.89 1011,-105.56 1011,-105.56 1011,-109.39 1007.17,-113.23 1003.33,-113.23"/>
<text text-anchor="middle" x="946.5" y="-98.03" font-family="Arial" font-size="14.00" fill="#cfffac">../config/firebase.js</text>
</g>
<!-- ../models/Aggregation.js -->
<g id="node3" class="node">
<title>../models/Aggregation.js</title>
<path fill="none" stroke="#cfffac" d="M649.83,-419.23C649.83,-419.23 503.17,-419.23 503.17,-419.23 499.33,-419.23 495.5,-415.39 495.5,-411.56 495.5,-411.56 495.5,-403.89 495.5,-403.89 495.5,-400.06 499.33,-396.23 503.17,-396.23 503.17,-396.23 649.83,-396.23 649.83,-396.23 653.67,-396.23 657.5,-400.06 657.5,-403.89 657.5,-403.89 657.5,-411.56 657.5,-411.56 657.5,-415.39 653.67,-419.23 649.83,-419.23"/>
<text text-anchor="middle" x="576.5" y="-404.03" font-family="Arial" font-size="14.00" fill="#cfffac">../models/Aggregation.js</text>
</g>
<!-- ../models/AuditLog.js -->
<g id="node4" class="node">
<title>../models/AuditLog.js</title>
<path fill="none" stroke="#cfffac" d="M838.33,-255.23C838.33,-255.23 710.67,-255.23 710.67,-255.23 706.83,-255.23 703,-251.39 703,-247.56 703,-247.56 703,-239.89 703,-239.89 703,-236.06 706.83,-232.23 710.67,-232.23 710.67,-232.23 838.33,-232.23 838.33,-232.23 842.17,-232.23 846,-236.06 846,-239.89 846,-239.89 846,-247.56 846,-247.56 846,-251.39 842.17,-255.23 838.33,-255.23"/>
<text text-anchor="middle" x="774.5" y="-240.03" font-family="Arial" font-size="14.00" fill="#cfffac">../models/AuditLog.js</text>
</g>
<!-- ../models/Coin.js -->
<g id="node5" class="node">
<title>../models/Coin.js</title>
<path fill="none" stroke="#cfffac" d="M825.33,-52.23C825.33,-52.23 723.67,-52.23 723.67,-52.23 719.83,-52.23 716,-48.39 716,-44.56 716,-44.56 716,-36.89 716,-36.89 716,-33.06 719.83,-29.23 723.67,-29.23 723.67,-29.23 825.33,-29.23 825.33,-29.23 829.17,-29.23 833,-33.06 833,-36.89 833,-36.89 833,-44.56 833,-44.56 833,-48.39 829.17,-52.23 825.33,-52.23"/>
<text text-anchor="middle" x="774.5" y="-37.03" font-family="Arial" font-size="14.00" fill="#cfffac">../models/Coin.js</text>
</g>
<!-- ../models/Entry.js -->
<g id="node6" class="node">
<title>../models/Entry.js</title>
<path fill="none" stroke="#cfffac" d="M628.83,-378.23C628.83,-378.23 524.17,-378.23 524.17,-378.23 520.33,-378.23 516.5,-374.39 516.5,-370.56 516.5,-370.56 516.5,-362.89 516.5,-362.89 516.5,-359.06 520.33,-355.23 524.17,-355.23 524.17,-355.23 628.83,-355.23 628.83,-355.23 632.67,-355.23 636.5,-359.06 636.5,-362.89 636.5,-362.89 636.5,-370.56 636.5,-370.56 636.5,-374.39 632.67,-378.23 628.83,-378.23"/>
<text text-anchor="middle" x="576.5" y="-363.03" font-family="Arial" font-size="14.00" fill="#cfffac">../models/Entry.js</text>
</g>
<!-- ../models/EntryFields.js -->
<g id="node7" class="node">
<title>../models/EntryFields.js</title>
<path fill="none" stroke="#cfffac" d="M647.33,-337.23C647.33,-337.23 505.67,-337.23 505.67,-337.23 501.83,-337.23 498,-333.39 498,-329.56 498,-329.56 498,-321.89 498,-321.89 498,-318.06 501.83,-314.23 505.67,-314.23 505.67,-314.23 647.33,-314.23 647.33,-314.23 651.17,-314.23 655,-318.06 655,-321.89 655,-321.89 655,-329.56 655,-329.56 655,-333.39 651.17,-337.23 647.33,-337.23"/>
<text text-anchor="middle" x="576.5" y="-322.03" font-family="Arial" font-size="14.00" fill="#cfffac">../models/EntryFields.js</text>
</g>
<!-- ../models/Folder.js -->
<g id="node8" class="node">
<title>../models/Folder.js</title>
<path fill="none" stroke="#cfffac" d="M632.33,-296.23C632.33,-296.23 520.67,-296.23 520.67,-296.23 516.83,-296.23 513,-292.39 513,-288.56 513,-288.56 513,-280.89 513,-280.89 513,-277.06 516.83,-273.23 520.67,-273.23 520.67,-273.23 632.33,-273.23 632.33,-273.23 636.17,-273.23 640,-277.06 640,-280.89 640,-280.89 640,-288.56 640,-288.56 640,-292.39 636.17,-296.23 632.33,-296.23"/>
<text text-anchor="middle" x="576.5" y="-281.03" font-family="Arial" font-size="14.00" fill="#cfffac">../models/Folder.js</text>
</g>
<!-- ../models/Group.js -->
<g id="node9" class="node">
<title>../models/Group.js</title>
<path fill="none" stroke="#cfffac" d="M632.83,-173.23C632.83,-173.23 520.17,-173.23 520.17,-173.23 516.33,-173.23 512.5,-169.39 512.5,-165.56 512.5,-165.56 512.5,-157.89 512.5,-157.89 512.5,-154.06 516.33,-150.23 520.17,-150.23 520.17,-150.23 632.83,-150.23 632.83,-150.23 636.67,-150.23 640.5,-154.06 640.5,-157.89 640.5,-157.89 640.5,-165.56 640.5,-165.56 640.5,-169.39 636.67,-173.23 632.83,-173.23"/>
<text text-anchor="middle" x="576.5" y="-158.03" font-family="Arial" font-size="14.00" fill="#cfffac">../models/Group.js</text>
</g>
<!-- ../models/Profile.js -->
<g id="node10" class="node">
<title>../models/Profile.js</title>
<path fill="none" stroke="#cfffac" d="M632.83,-132.23C632.83,-132.23 520.17,-132.23 520.17,-132.23 516.33,-132.23 512.5,-128.39 512.5,-124.56 512.5,-124.56 512.5,-116.89 512.5,-116.89 512.5,-113.06 516.33,-109.23 520.17,-109.23 520.17,-109.23 632.83,-109.23 632.83,-109.23 636.67,-109.23 640.5,-113.06 640.5,-116.89 640.5,-116.89 640.5,-124.56 640.5,-124.56 640.5,-128.39 636.67,-132.23 632.83,-132.23"/>
<text text-anchor="middle" x="576.5" y="-117.03" font-family="Arial" font-size="14.00" fill="#cfffac">../models/Profile.js</text>
</g>
<!-- ../models/Trigger.js -->
<g id="node11" class="node">
<title>../models/Trigger.js</title>
<path fill="none" stroke="#cfffac" d="M425.83,-457.23C425.83,-457.23 310.17,-457.23 310.17,-457.23 306.33,-457.23 302.5,-453.39 302.5,-449.56 302.5,-449.56 302.5,-441.89 302.5,-441.89 302.5,-438.06 306.33,-434.23 310.17,-434.23 310.17,-434.23 425.83,-434.23 425.83,-434.23 429.67,-434.23 433.5,-438.06 433.5,-441.89 433.5,-441.89 433.5,-449.56 433.5,-449.56 433.5,-453.39 429.67,-457.23 425.83,-457.23"/>
<text text-anchor="middle" x="368" y="-442.03" font-family="Arial" font-size="14.00" fill="#cfffac">../models/Trigger.js</text>
</g>
<!-- ../models/UserFcmToken.js -->
<g id="node12" class="node">
<title>../models/UserFcmToken.js</title>
<path fill="none" stroke="#cfffac" d="M659.33,-498.23C659.33,-498.23 493.67,-498.23 493.67,-498.23 489.83,-498.23 486,-494.39 486,-490.56 486,-490.56 486,-482.89 486,-482.89 486,-479.06 489.83,-475.23 493.67,-475.23 493.67,-475.23 659.33,-475.23 659.33,-475.23 663.17,-475.23 667,-479.06 667,-482.89 667,-482.89 667,-490.56 667,-490.56 667,-494.39 663.17,-498.23 659.33,-498.23"/>
<text text-anchor="middle" x="576.5" y="-483.03" font-family="Arial" font-size="14.00" fill="#cfffac">../models/UserFcmToken.js</text>
</g>
<!-- ../utils/transaction.js -->
<g id="node13" class="node">
<title>../utils/transaction.js</title>
<path fill="none" stroke="#cfffac" d="M636.33,-214.23C636.33,-214.23 516.67,-214.23 516.67,-214.23 512.83,-214.23 509,-210.39 509,-206.56 509,-206.56 509,-198.89 509,-198.89 509,-195.06 512.83,-191.23 516.67,-191.23 516.67,-191.23 636.33,-191.23 636.33,-191.23 640.17,-191.23 644,-195.06 644,-198.89 644,-198.89 644,-206.56 644,-206.56 644,-210.39 640.17,-214.23 636.33,-214.23"/>
<text text-anchor="middle" x="576.5" y="-199.03" font-family="Arial" font-size="14.00" fill="#cfffac">../utils/transaction.js</text>
</g>
<!-- EntryFields.js -->
<g id="node14" class="node">
<title>EntryFields.js</title>
<path fill="none" stroke="#c6c5fe" d="M409.33,-295.23C409.33,-295.23 326.67,-295.23 326.67,-295.23 322.83,-295.23 319,-291.39 319,-287.56 319,-287.56 319,-279.89 319,-279.89 319,-276.06 322.83,-272.23 326.67,-272.23 326.67,-272.23 409.33,-272.23 409.33,-272.23 413.17,-272.23 417,-276.06 417,-279.89 417,-279.89 417,-287.56 417,-287.56 417,-291.39 413.17,-295.23 409.33,-295.23"/>
<text text-anchor="middle" x="368" y="-280.03" font-family="Arial" font-size="14.00" fill="#c6c5fe">EntryFields.js</text>
</g>
<!-- EntryFields.js&#45;&gt;../models/EntryFields.js -->
<g id="edge1" class="edge">
<title>EntryFields.js&#45;&gt;../models/EntryFields.js</title>
<path fill="none" stroke="#757575" d="M417.15,-293.52C444.46,-299.08 479.03,-306.11 508.9,-312.18"/>
<polygon fill="#757575" stroke="#757575" points="508.34,-315.64 518.83,-314.2 509.73,-308.78 508.34,-315.64"/>
</g>
<!-- EntryFields.js&#45;&gt;../utils/transaction.js -->
<g id="edge2" class="edge">
<title>EntryFields.js&#45;&gt;../utils/transaction.js</title>
<path fill="none" stroke="#757575" d="M417.13,-276.15C428.43,-273.07 440.07,-268.76 450,-262.73 470.44,-250.31 465.35,-234.8 486,-222.73 490.16,-220.3 494.59,-218.16 499.17,-216.28"/>
<polygon fill="#757575" stroke="#757575" points="500.54,-219.51 508.73,-212.78 498.13,-212.93 500.54,-219.51"/>
</g>
<!-- auditLogService.js -->
<g id="node15" class="node">
<title>auditLogService.js</title>
<path fill="none" stroke="#c6c5fe" d="M632.33,-255.23C632.33,-255.23 520.67,-255.23 520.67,-255.23 516.83,-255.23 513,-251.39 513,-247.56 513,-247.56 513,-239.89 513,-239.89 513,-236.06 516.83,-232.23 520.67,-232.23 520.67,-232.23 632.33,-232.23 632.33,-232.23 636.17,-232.23 640,-236.06 640,-239.89 640,-239.89 640,-247.56 640,-247.56 640,-251.39 636.17,-255.23 632.33,-255.23"/>
<text text-anchor="middle" x="576.5" y="-240.03" font-family="Arial" font-size="14.00" fill="#c6c5fe">auditLogService.js</text>
</g>
<!-- EntryFields.js&#45;&gt;auditLogService.js -->
<g id="edge3" class="edge">
<title>EntryFields.js&#45;&gt;auditLogService.js</title>
<path fill="none" stroke="#757575" d="M417.15,-274.4C443.49,-269.3 476.58,-262.89 505.7,-257.25"/>
<polygon fill="#757575" stroke="#757575" points="506.66,-260.63 515.81,-255.29 505.33,-253.76 506.66,-260.63"/>
</g>
<!-- auditLogService.js&#45;&gt;../models/AuditLog.js -->
<g id="edge5" class="edge">
<title>auditLogService.js&#45;&gt;../models/AuditLog.js</title>
<path fill="none" stroke="#757575" d="M640.05,-243.73C656.72,-243.73 674.98,-243.73 692.48,-243.73"/>
<polygon fill="#757575" stroke="#757575" points="692.69,-247.23 702.69,-243.73 692.69,-240.23 692.69,-247.23"/>
</g>
<!-- userService.js -->
<g id="node17" class="node">
<title>userService.js</title>
<path fill="none" stroke="#c6c5fe" d="M817.33,-174.23C817.33,-174.23 731.67,-174.23 731.67,-174.23 727.83,-174.23 724,-170.39 724,-166.56 724,-166.56 724,-158.89 724,-158.89 724,-155.06 727.83,-151.23 731.67,-151.23 731.67,-151.23 817.33,-151.23 817.33,-151.23 821.17,-151.23 825,-155.06 825,-158.89 825,-158.89 825,-166.56 825,-166.56 825,-170.39 821.17,-174.23 817.33,-174.23"/>
<text text-anchor="middle" x="774.5" y="-159.03" font-family="Arial" font-size="14.00" fill="#c6c5fe">userService.js</text>
</g>
<!-- auditLogService.js&#45;&gt;userService.js -->
<g id="edge6" class="edge">
<title>auditLogService.js&#45;&gt;userService.js</title>
<path fill="none" stroke="#757575" d="M637.43,-232.15C647.45,-229.51 657.63,-226.38 667,-222.73 696.11,-211.38 726.96,-193.24 747.92,-179.88"/>
<polygon fill="#757575" stroke="#757575" points="750.05,-182.67 756.54,-174.29 746.24,-176.79 750.05,-182.67"/>
</g>
<!-- aggregationService.js -->
<g id="node16" class="node">
<title>aggregationService.js</title>
<path fill="none" stroke="#c6c5fe" d="M433.33,-416.23C433.33,-416.23 302.67,-416.23 302.67,-416.23 298.83,-416.23 295,-412.39 295,-408.56 295,-408.56 295,-400.89 295,-400.89 295,-397.06 298.83,-393.23 302.67,-393.23 302.67,-393.23 433.33,-393.23 433.33,-393.23 437.17,-393.23 441,-397.06 441,-400.89 441,-400.89 441,-408.56 441,-408.56 441,-412.39 437.17,-416.23 433.33,-416.23"/>
<text text-anchor="middle" x="368" y="-401.03" font-family="Arial" font-size="14.00" fill="#c6c5fe">aggregationService.js</text>
</g>
<!-- aggregationService.js&#45;&gt;../models/Aggregation.js -->
<g id="edge4" class="edge">
<title>aggregationService.js&#45;&gt;../models/Aggregation.js</title>
<path fill="none" stroke="#757575" d="M441.22,-405.78C455.4,-405.98 470.43,-406.2 485.12,-406.41"/>
<polygon fill="#757575" stroke="#757575" points="485.16,-409.92 495.21,-406.56 485.26,-402.92 485.16,-409.92"/>
</g>
<!-- userService.js&#45;&gt;../config/firebase.js -->
<g id="edge33" class="edge">
<title>userService.js&#45;&gt;../config/firebase.js</title>
<path fill="none" stroke="#757575" d="M807.88,-151.11C835.05,-141.36 874.06,-127.36 903.62,-116.76"/>
<polygon fill="#757575" stroke="#757575" points="905.01,-119.97 913.24,-113.3 902.65,-113.39 905.01,-119.97"/>
</g>
<!-- coinLedger.js -->
<g id="node18" class="node">
<title>coinLedger.js</title>
<path fill="none" stroke="#c6c5fe" d="M616.83,-52.23C616.83,-52.23 536.17,-52.23 536.17,-52.23 532.33,-52.23 528.5,-48.39 528.5,-44.56 528.5,-44.56 528.5,-36.89 528.5,-36.89 528.5,-33.06 532.33,-29.23 536.17,-29.23 536.17,-29.23 616.83,-29.23 616.83,-29.23 620.67,-29.23 624.5,-33.06 624.5,-36.89 624.5,-36.89 624.5,-44.56 624.5,-44.56 624.5,-48.39 620.67,-52.23 616.83,-52.23"/>
<text text-anchor="middle" x="576.5" y="-37.03" font-family="Arial" font-size="14.00" fill="#c6c5fe">coinLedger.js</text>
</g>
<!-- coinLedger.js&#45;&gt;../config/coin.js -->
<g id="edge7" class="edge">
<title>coinLedger.js&#45;&gt;../config/coin.js</title>
<path fill="none" stroke="#757575" d="M624.95,-50.65C650.88,-56.08 683.31,-62.86 711.25,-68.71"/>
<polygon fill="#757575" stroke="#757575" points="710.82,-72.19 721.33,-70.81 712.25,-65.34 710.82,-72.19"/>
</g>
<!-- coinLedger.js&#45;&gt;../models/Coin.js -->
<g id="edge8" class="edge">
<title>coinLedger.js&#45;&gt;../models/Coin.js</title>
<path fill="none" stroke="#757575" d="M624.95,-40.73C649.16,-40.73 679.04,-40.73 705.64,-40.73"/>
<polygon fill="#757575" stroke="#757575" points="705.65,-44.23 715.65,-40.73 705.65,-37.23 705.65,-44.23"/>
</g>
<!-- cronService.js -->
<g id="node19" class="node">
<title>cronService.js</title>
<path fill="none" stroke="#c6c5fe" d="M93.33,-173.23C93.33,-173.23 7.67,-173.23 7.67,-173.23 3.83,-173.23 0,-169.39 0,-165.56 0,-165.56 0,-157.89 0,-157.89 0,-154.06 3.83,-150.23 7.67,-150.23 7.67,-150.23 93.33,-150.23 93.33,-150.23 97.17,-150.23 101,-154.06 101,-157.89 101,-157.89 101,-165.56 101,-165.56 101,-169.39 97.17,-173.23 93.33,-173.23"/>
<text text-anchor="middle" x="50.5" y="-158.03" font-family="Arial" font-size="14.00" fill="#c6c5fe">cronService.js</text>
</g>
<!-- triggerService.js -->
<g id="node20" class="node">
<title>triggerService.js</title>
<path fill="none" stroke="#c6c5fe" d="M242.33,-173.23C242.33,-173.23 144.67,-173.23 144.67,-173.23 140.83,-173.23 137,-169.39 137,-165.56 137,-165.56 137,-157.89 137,-157.89 137,-154.06 140.83,-150.23 144.67,-150.23 144.67,-150.23 242.33,-150.23 242.33,-150.23 246.17,-150.23 250,-154.06 250,-157.89 250,-157.89 250,-165.56 250,-165.56 250,-169.39 246.17,-173.23 242.33,-173.23"/>
<text text-anchor="middle" x="193.5" y="-158.03" font-family="Arial" font-size="14.00" fill="#c6c5fe">triggerService.js</text>
</g>
<!-- cronService.js&#45;&gt;triggerService.js -->
<g id="edge9" class="edge">
<title>cronService.js&#45;&gt;triggerService.js</title>
<path fill="none" stroke="#757575" d="M101.21,-161.73C109.53,-161.73 118.28,-161.73 126.92,-161.73"/>
<polygon fill="#757575" stroke="#757575" points="126.99,-165.23 136.99,-161.73 126.99,-158.23 126.99,-165.23"/>
</g>
<!-- triggerService.js&#45;&gt;../config/coin.js -->
<g id="edge23" class="edge">
<title>triggerService.js&#45;&gt;../config/coin.js</title>
<path fill="none" stroke="#757575" d="M206.92,-150.11C223.48,-135.47 254.4,-110.97 286,-100.73 432.54,-53.22 616.92,-63.63 711.41,-73.64"/>
<polygon fill="#757575" stroke="#757575" points="711.05,-77.12 721.37,-74.73 711.81,-70.16 711.05,-77.12"/>
</g>
<!-- triggerService.js&#45;&gt;../config/firebase.js -->
<g id="edge24" class="edge">
<title>triggerService.js&#45;&gt;../config/firebase.js</title>
<path fill="none" stroke="#757575" d="M198.57,-149.84C208.54,-122.8 237.01,-56.96 286,-29.73 352.46,7.21 767.79,8.35 846,-19.73 880.63,-32.16 911.8,-62.43 929.69,-82.5"/>
<polygon fill="#757575" stroke="#757575" points="927.11,-84.87 936.3,-90.15 932.41,-80.3 927.11,-84.87"/>
</g>
<!-- triggerService.js&#45;&gt;../models/Entry.js -->
<g id="edge25" class="edge">
<title>triggerService.js&#45;&gt;../models/Entry.js</title>
<path fill="none" stroke="#757575" d="M196.3,-173.3C202.18,-206.64 224.08,-303.13 286,-344.73 350.8,-388.26 443.16,-387.17 506.01,-379.52"/>
<polygon fill="#757575" stroke="#757575" points="506.76,-382.95 516.22,-378.19 505.85,-376.01 506.76,-382.95"/>
</g>
<!-- triggerService.js&#45;&gt;../models/Trigger.js -->
<g id="edge26" class="edge">
<title>triggerService.js&#45;&gt;../models/Trigger.js</title>
<path fill="none" stroke="#757575" d="M194.85,-173.23C196.76,-214.09 208.87,-353.62 286,-424.73 288.33,-426.87 290.85,-428.81 293.51,-430.55"/>
<polygon fill="#757575" stroke="#757575" points="291.98,-433.7 302.42,-435.48 295.37,-427.58 291.98,-433.7"/>
</g>
<!-- triggerService.js&#45;&gt;../utils/transaction.js -->
<g id="edge27" class="edge">
<title>triggerService.js&#45;&gt;../utils/transaction.js</title>
<path fill="none" stroke="#757575" d="M250.23,-164.28C302.1,-167.02 381.47,-172.2 450,-180.73 468.52,-183.03 488.47,-186.21 506.89,-189.43"/>
<polygon fill="#757575" stroke="#757575" points="506.48,-192.92 516.94,-191.22 507.71,-186.02 506.48,-192.92"/>
</g>
<!-- triggerService.js&#45;&gt;aggregationService.js -->
<g id="edge28" class="edge">
<title>triggerService.js&#45;&gt;aggregationService.js</title>
<path fill="none" stroke="#757575" d="M196.01,-173.57C201.27,-209.79 222.06,-320.21 286,-378.73 290.33,-382.69 295.26,-386.05 300.51,-388.89"/>
<polygon fill="#757575" stroke="#757575" points="299.06,-392.08 309.59,-393.22 302.07,-385.76 299.06,-392.08"/>
</g>
<!-- triggerService.js&#45;&gt;coinLedger.js -->
<g id="edge29" class="edge">
<title>triggerService.js&#45;&gt;coinLedger.js</title>
<path fill="none" stroke="#757575" d="M201.57,-150.12C215.04,-129.21 246.56,-85.63 286,-66.73 360.21,-31.17 457.34,-30.36 518.08,-34.46"/>
<polygon fill="#757575" stroke="#757575" points="518.02,-37.97 528.25,-35.22 518.54,-30.98 518.02,-37.97"/>
</g>
<!-- profileService.js -->
<g id="node24" class="node">
<title>profileService.js</title>
<path fill="none" stroke="#c6c5fe" d="M416.33,-133.23C416.33,-133.23 319.67,-133.23 319.67,-133.23 315.83,-133.23 312,-129.39 312,-125.56 312,-125.56 312,-117.89 312,-117.89 312,-114.06 315.83,-110.23 319.67,-110.23 319.67,-110.23 416.33,-110.23 416.33,-110.23 420.17,-110.23 424,-114.06 424,-117.89 424,-117.89 424,-125.56 424,-125.56 424,-129.39 420.17,-133.23 416.33,-133.23"/>
<text text-anchor="middle" x="368" y="-118.03" font-family="Arial" font-size="14.00" fill="#c6c5fe">profileService.js</text>
</g>
<!-- triggerService.js&#45;&gt;profileService.js -->
<g id="edge30" class="edge">
<title>triggerService.js&#45;&gt;profileService.js</title>
<path fill="none" stroke="#757575" d="M244.39,-150.16C264.06,-145.6 286.82,-140.32 307.34,-135.56"/>
<polygon fill="#757575" stroke="#757575" points="308.27,-138.94 317.22,-133.27 306.69,-132.12 308.27,-138.94"/>
</g>
<!-- userFcmTokenService.js -->
<g id="node25" class="node">
<title>userFcmTokenService.js</title>
<path fill="none" stroke="#c6c5fe" d="M442.33,-498.23C442.33,-498.23 293.67,-498.23 293.67,-498.23 289.83,-498.23 286,-494.39 286,-490.56 286,-490.56 286,-482.89 286,-482.89 286,-479.06 289.83,-475.23 293.67,-475.23 293.67,-475.23 442.33,-475.23 442.33,-475.23 446.17,-475.23 450,-479.06 450,-482.89 450,-482.89 450,-490.56 450,-490.56 450,-494.39 446.17,-498.23 442.33,-498.23"/>
<text text-anchor="middle" x="368" y="-483.03" font-family="Arial" font-size="14.00" fill="#c6c5fe">userFcmTokenService.js</text>
</g>
<!-- triggerService.js&#45;&gt;userFcmTokenService.js -->
<g id="edge31" class="edge">
<title>triggerService.js&#45;&gt;userFcmTokenService.js</title>
<path fill="none" stroke="#757575" d="M194.23,-173.39C193.87,-218.32 198.81,-381.85 286,-465.73 287.45,-467.13 288.99,-468.43 290.59,-469.66"/>
<polygon fill="#757575" stroke="#757575" points="288.78,-472.66 299.09,-475.1 292.55,-466.76 288.78,-472.66"/>
</g>
<!-- entryService.js -->
<g id="node21" class="node">
<title>entryService.js</title>
<path fill="none" stroke="#c6c5fe" d="M412.83,-336.23C412.83,-336.23 323.17,-336.23 323.17,-336.23 319.33,-336.23 315.5,-332.39 315.5,-328.56 315.5,-328.56 315.5,-320.89 315.5,-320.89 315.5,-317.06 319.33,-313.23 323.17,-313.23 323.17,-313.23 412.83,-313.23 412.83,-313.23 416.67,-313.23 420.5,-317.06 420.5,-320.89 420.5,-320.89 420.5,-328.56 420.5,-328.56 420.5,-332.39 416.67,-336.23 412.83,-336.23"/>
<text text-anchor="middle" x="368" y="-321.03" font-family="Arial" font-size="14.00" fill="#c6c5fe">entryService.js</text>
</g>
<!-- entryService.js&#45;&gt;../models/Entry.js -->
<g id="edge10" class="edge">
<title>entryService.js&#45;&gt;../models/Entry.js</title>
<path fill="none" stroke="#757575" d="M420.58,-335.22C447.29,-340.65 480.23,-347.35 508.85,-353.17"/>
<polygon fill="#757575" stroke="#757575" points="508.28,-356.63 518.78,-355.19 509.67,-349.77 508.28,-356.63"/>
</g>
<!-- entryService.js&#45;&gt;../utils/transaction.js -->
<g id="edge11" class="edge">
<title>entryService.js&#45;&gt;../utils/transaction.js</title>
<path fill="none" stroke="#757575" d="M420.75,-318.64C431.29,-315.49 441.69,-310.77 450,-303.73 480.05,-278.25 455.52,-247.69 486,-222.73 490.05,-219.41 494.54,-216.61 499.29,-214.26"/>
<polygon fill="#757575" stroke="#757575" points="500.86,-217.39 508.69,-210.26 498.12,-210.95 500.86,-217.39"/>
</g>
<!-- entryService.js&#45;&gt;auditLogService.js -->
<g id="edge12" class="edge">
<title>entryService.js&#45;&gt;auditLogService.js</title>
<path fill="none" stroke="#757575" d="M420.53,-316.19C430.74,-313.19 441.06,-309.16 450,-303.73 470.44,-291.31 465.35,-275.8 486,-263.73 491.41,-260.56 497.28,-257.9 503.33,-255.66"/>
<polygon fill="#757575" stroke="#757575" points="504.56,-258.94 512.95,-252.47 502.35,-252.29 504.56,-258.94"/>
</g>
<!-- folderService.js -->
<g id="node22" class="node">
<title>folderService.js</title>
<path fill="none" stroke="#c6c5fe" d="M414.83,-254.23C414.83,-254.23 321.17,-254.23 321.17,-254.23 317.33,-254.23 313.5,-250.39 313.5,-246.56 313.5,-246.56 313.5,-238.89 313.5,-238.89 313.5,-235.06 317.33,-231.23 321.17,-231.23 321.17,-231.23 414.83,-231.23 414.83,-231.23 418.67,-231.23 422.5,-235.06 422.5,-238.89 422.5,-238.89 422.5,-246.56 422.5,-246.56 422.5,-250.39 418.67,-254.23 414.83,-254.23"/>
<text text-anchor="middle" x="368" y="-239.03" font-family="Arial" font-size="14.00" fill="#c6c5fe">folderService.js</text>
</g>
<!-- folderService.js&#45;&gt;../models/Folder.js -->
<g id="edge13" class="edge">
<title>folderService.js&#45;&gt;../models/Folder.js</title>
<path fill="none" stroke="#757575" d="M422.72,-253.65C449,-259 480.91,-265.49 508.75,-271.15"/>
<polygon fill="#757575" stroke="#757575" points="508.31,-274.63 518.8,-273.2 509.7,-267.77 508.31,-274.63"/>
</g>
<!-- folderService.js&#45;&gt;../utils/transaction.js -->
<g id="edge14" class="edge">
<title>folderService.js&#45;&gt;../utils/transaction.js</title>
<path fill="none" stroke="#757575" d="M422.72,-232.32C448.15,-227.4 478.85,-221.45 506.03,-216.18"/>
<polygon fill="#757575" stroke="#757575" points="506.72,-219.62 515.87,-214.28 505.39,-212.74 506.72,-219.62"/>
</g>
<!-- folderService.js&#45;&gt;auditLogService.js -->
<g id="edge15" class="edge">
<title>folderService.js&#45;&gt;auditLogService.js</title>
<path fill="none" stroke="#757575" d="M422.72,-242.99C447.09,-243.11 476.28,-243.25 502.59,-243.37"/>
<polygon fill="#757575" stroke="#757575" points="502.88,-246.88 512.9,-243.42 502.92,-239.88 502.88,-246.88"/>
</g>
<!-- groupService.js -->
<g id="node23" class="node">
<title>groupService.js</title>
<path fill="none" stroke="#c6c5fe" d="M415.33,-213.23C415.33,-213.23 320.67,-213.23 320.67,-213.23 316.83,-213.23 313,-209.39 313,-205.56 313,-205.56 313,-197.89 313,-197.89 313,-194.06 316.83,-190.23 320.67,-190.23 320.67,-190.23 415.33,-190.23 415.33,-190.23 419.17,-190.23 423,-194.06 423,-197.89 423,-197.89 423,-205.56 423,-205.56 423,-209.39 419.17,-213.23 415.33,-213.23"/>
<text text-anchor="middle" x="368" y="-198.03" font-family="Arial" font-size="14.00" fill="#c6c5fe">groupService.js</text>
</g>
<!-- groupService.js&#45;&gt;../models/Group.js -->
<g id="edge16" class="edge">
<title>groupService.js&#45;&gt;../models/Group.js</title>
<path fill="none" stroke="#757575" d="M423.26,-191.22C448.47,-186.33 478.77,-180.47 505.67,-175.25"/>
<polygon fill="#757575" stroke="#757575" points="506.65,-178.63 515.8,-173.29 505.31,-171.76 506.65,-178.63"/>
</g>
<!-- groupService.js&#45;&gt;../utils/transaction.js -->
<g id="edge17" class="edge">
<title>groupService.js&#45;&gt;../utils/transaction.js</title>
<path fill="none" stroke="#757575" d="M423.26,-201.99C446.26,-202.1 473.48,-202.23 498.5,-202.36"/>
<polygon fill="#757575" stroke="#757575" points="498.68,-205.86 508.7,-202.4 498.72,-198.86 498.68,-205.86"/>
</g>
<!-- groupService.js&#45;&gt;auditLogService.js -->
<g id="edge18" class="edge">
<title>groupService.js&#45;&gt;auditLogService.js</title>
<path fill="none" stroke="#757575" d="M423.26,-212.76C449.44,-218.09 481.09,-224.53 508.74,-230.15"/>
<polygon fill="#757575" stroke="#757575" points="508.23,-233.62 518.72,-232.18 509.62,-226.76 508.23,-233.62"/>
</g>
<!-- profileService.js&#45;&gt;../models/Profile.js -->
<g id="edge19" class="edge">
<title>profileService.js&#45;&gt;../models/Profile.js</title>
<path fill="none" stroke="#757575" d="M424.07,-121.46C448.01,-121.35 476.41,-121.21 502.11,-121.08"/>
<polygon fill="#757575" stroke="#757575" points="502.2,-124.58 512.18,-121.03 502.17,-117.58 502.2,-124.58"/>
</g>
<!-- profileService.js&#45;&gt;../utils/transaction.js -->
<g id="edge20" class="edge">
<title>profileService.js&#45;&gt;../utils/transaction.js</title>
<path fill="none" stroke="#757575" d="M417.21,-133.32C428.4,-137.04 439.96,-141.79 450,-147.73 468.95,-158.92 466.62,-171.3 486,-181.73 490.17,-183.97 494.58,-185.98 499.11,-187.77"/>
<polygon fill="#757575" stroke="#757575" points="497.97,-191.08 508.56,-191.16 500.33,-184.49 497.97,-191.08"/>
</g>
<!-- profileService.js&#45;&gt;auditLogService.js -->
<g id="edge21" class="edge">
<title>profileService.js&#45;&gt;auditLogService.js</title>
<path fill="none" stroke="#757575" d="M387.3,-133.27C404.35,-144.43 430.07,-162.31 450,-180.73 468.06,-197.41 464.99,-209.95 486,-222.73 491.37,-225.99 497.2,-228.75 503.24,-231.08"/>
<polygon fill="#757575" stroke="#757575" points="502.24,-234.44 512.83,-234.4 504.53,-227.82 502.24,-234.44"/>
</g>
<!-- profileService.js&#45;&gt;coinLedger.js -->
<g id="edge22" class="edge">
<title>profileService.js&#45;&gt;coinLedger.js</title>
<path fill="none" stroke="#757575" d="M398.59,-110.12C434.85,-95.9 496.42,-71.75 536.51,-56.02"/>
<polygon fill="#757575" stroke="#757575" points="537.94,-59.22 545.97,-52.31 535.38,-52.71 537.94,-59.22"/>
</g>
<!-- userFcmTokenService.js&#45;&gt;../models/UserFcmToken.js -->
<g id="edge32" class="edge">
<title>userFcmTokenService.js&#45;&gt;../models/UserFcmToken.js</title>
<path fill="none" stroke="#757575" d="M450.02,-486.73C458.47,-486.73 467.12,-486.73 475.74,-486.73"/>
<polygon fill="#757575" stroke="#757575" points="475.84,-490.23 485.84,-486.73 475.84,-483.23 475.84,-490.23"/>
</g>
</g>
</svg>
