<?xml version="1.0" encoding="UTF-8" standalone="no"?>
<!DOCTYPE svg PUBLIC "-//W3C//DTD SVG 1.1//EN"
 "http://www.w3.org/Graphics/SVG/1.1/DTD/svg11.dtd">
<!-- Generated by graphviz version 2.42.4 (0)
 -->
<!-- Title: G Pages: 1 -->
<svg width="917pt" height="508pt"
 viewBox="0.00 0.00 917.20 508.20" xmlns="http://www.w3.org/2000/svg" xmlns:xlink="http://www.w3.org/1999/xlink">
<g id="graph0" class="graph" transform="scale(1 1) rotate(0) translate(21.6 486.6)">
<title>G</title>
<polygon fill="#111111" stroke="transparent" points="-21.6,21.6 -21.6,-486.6 895.6,-486.6 895.6,21.6 -21.6,21.6"/>
<!-- ../config/coin.js -->
<g id="node1" class="node">
<title>../config/coin.js</title>
<path fill="none" stroke="#cfffac" d="M682.83,-143C682.83,-143 592.17,-143 592.17,-143 588.33,-143 584.5,-139.17 584.5,-135.33 584.5,-135.33 584.5,-127.67 584.5,-127.67 584.5,-123.83 588.33,-120 592.17,-120 592.17,-120 682.83,-120 682.83,-120 686.67,-120 690.5,-123.83 690.5,-127.67 690.5,-127.67 690.5,-135.33 690.5,-135.33 690.5,-139.17 686.67,-143 682.83,-143"/>
<text text-anchor="middle" x="637.5" y="-127.8" font-family="Arial" font-size="14.00" fill="#cfffac">../config/coin.js</text>
</g>
<!-- ../config/firebase.js -->
<g id="node2" class="node">
<title>../config/firebase.js</title>
<path fill="none" stroke="#cfffac" d="M866.33,-204C866.33,-204 752.67,-204 752.67,-204 748.83,-204 745,-200.17 745,-196.33 745,-196.33 745,-188.67 745,-188.67 745,-184.83 748.83,-181 752.67,-181 752.67,-181 866.33,-181 866.33,-181 870.17,-181 874,-184.83 874,-188.67 874,-188.67 874,-196.33 874,-196.33 874,-200.17 870.17,-204 866.33,-204"/>
<text text-anchor="middle" x="809.5" y="-188.8" font-family="Arial" font-size="14.00" fill="#cfffac">../config/firebase.js</text>
</g>
<!-- ../models/Aggregation.js -->
<g id="node3" class="node">
<title>../models/Aggregation.js</title>
<path fill="none" stroke="#cfffac" d="M512.83,-141C512.83,-141 366.17,-141 366.17,-141 362.33,-141 358.5,-137.17 358.5,-133.33 358.5,-133.33 358.5,-125.67 358.5,-125.67 358.5,-121.83 362.33,-118 366.17,-118 366.17,-118 512.83,-118 512.83,-118 516.67,-118 520.5,-121.83 520.5,-125.67 520.5,-125.67 520.5,-133.33 520.5,-133.33 520.5,-137.17 516.67,-141 512.83,-141"/>
<text text-anchor="middle" x="439.5" y="-125.8" font-family="Arial" font-size="14.00" fill="#cfffac">../models/Aggregation.js</text>
</g>
<!-- ../models/AuditLog.js -->
<g id="node4" class="node">
<title>../models/AuditLog.js</title>
<path fill="none" stroke="#cfffac" d="M701.33,-323C701.33,-323 573.67,-323 573.67,-323 569.83,-323 566,-319.17 566,-315.33 566,-315.33 566,-307.67 566,-307.67 566,-303.83 569.83,-300 573.67,-300 573.67,-300 701.33,-300 701.33,-300 705.17,-300 709,-303.83 709,-307.67 709,-307.67 709,-315.33 709,-315.33 709,-319.17 705.17,-323 701.33,-323"/>
<text text-anchor="middle" x="637.5" y="-307.8" font-family="Arial" font-size="14.00" fill="#cfffac">../models/AuditLog.js</text>
</g>
<!-- ../models/Coin.js -->
<g id="node5" class="node">
<title>../models/Coin.js</title>
<path fill="none" stroke="#cfffac" d="M688.33,-223C688.33,-223 586.67,-223 586.67,-223 582.83,-223 579,-219.17 579,-215.33 579,-215.33 579,-207.67 579,-207.67 579,-203.83 582.83,-200 586.67,-200 586.67,-200 688.33,-200 688.33,-200 692.17,-200 696,-203.83 696,-207.67 696,-207.67 696,-215.33 696,-215.33 696,-219.17 692.17,-223 688.33,-223"/>
<text text-anchor="middle" x="637.5" y="-207.8" font-family="Arial" font-size="14.00" fill="#cfffac">../models/Coin.js</text>
</g>
<!-- ../models/Entry.js -->
<g id="node6" class="node">
<title>../models/Entry.js</title>
<path fill="none" stroke="#cfffac" d="M283.33,-344C283.33,-344 178.67,-344 178.67,-344 174.83,-344 171,-340.17 171,-336.33 171,-336.33 171,-328.67 171,-328.67 171,-324.83 174.83,-321 178.67,-321 178.67,-321 283.33,-321 283.33,-321 287.17,-321 291,-324.83 291,-328.67 291,-328.67 291,-336.33 291,-336.33 291,-340.17 287.17,-344 283.33,-344"/>
<text text-anchor="middle" x="231" y="-328.8" font-family="Arial" font-size="14.00" fill="#cfffac">../models/Entry.js</text>
</g>
<!-- ../models/EntryFields.js -->
<g id="node7" class="node">
<title>../models/EntryFields.js</title>
<path fill="none" stroke="#cfffac" d="M510.33,-465C510.33,-465 368.67,-465 368.67,-465 364.83,-465 361,-461.17 361,-457.33 361,-457.33 361,-449.67 361,-449.67 361,-445.83 364.83,-442 368.67,-442 368.67,-442 510.33,-442 510.33,-442 514.17,-442 518,-445.83 518,-449.67 518,-449.67 518,-457.33 518,-457.33 518,-461.17 514.17,-465 510.33,-465"/>
<text text-anchor="middle" x="439.5" y="-449.8" font-family="Arial" font-size="14.00" fill="#cfffac">../models/EntryFields.js</text>
</g>
<!-- ../models/Folder.js -->
<g id="node8" class="node">
<title>../models/Folder.js</title>
<path fill="none" stroke="#cfffac" d="M495.33,-424C495.33,-424 383.67,-424 383.67,-424 379.83,-424 376,-420.17 376,-416.33 376,-416.33 376,-408.67 376,-408.67 376,-404.83 379.83,-401 383.67,-401 383.67,-401 495.33,-401 495.33,-401 499.17,-401 503,-404.83 503,-408.67 503,-408.67 503,-416.33 503,-416.33 503,-420.17 499.17,-424 495.33,-424"/>
<text text-anchor="middle" x="439.5" y="-408.8" font-family="Arial" font-size="14.00" fill="#cfffac">../models/Folder.js</text>
</g>
<!-- ../models/Group.js -->
<g id="node9" class="node">
<title>../models/Group.js</title>
<path fill="none" stroke="#cfffac" d="M495.83,-305C495.83,-305 383.17,-305 383.17,-305 379.33,-305 375.5,-301.17 375.5,-297.33 375.5,-297.33 375.5,-289.67 375.5,-289.67 375.5,-285.83 379.33,-282 383.17,-282 383.17,-282 495.83,-282 495.83,-282 499.67,-282 503.5,-285.83 503.5,-289.67 503.5,-289.67 503.5,-297.33 503.5,-297.33 503.5,-301.17 499.67,-305 495.83,-305"/>
<text text-anchor="middle" x="439.5" y="-289.8" font-family="Arial" font-size="14.00" fill="#cfffac">../models/Group.js</text>
</g>
<!-- ../models/Profile.js -->
<g id="node10" class="node">
<title>../models/Profile.js</title>
<path fill="none" stroke="#cfffac" d="M495.83,-264C495.83,-264 383.17,-264 383.17,-264 379.33,-264 375.5,-260.17 375.5,-256.33 375.5,-256.33 375.5,-248.67 375.5,-248.67 375.5,-244.83 379.33,-241 383.17,-241 383.17,-241 495.83,-241 495.83,-241 499.67,-241 503.5,-244.83 503.5,-248.67 503.5,-248.67 503.5,-256.33 503.5,-256.33 503.5,-260.17 499.67,-264 495.83,-264"/>
<text text-anchor="middle" x="439.5" y="-248.8" font-family="Arial" font-size="14.00" fill="#cfffac">../models/Profile.js</text>
</g>
<!-- ../models/Trigger.js -->
<g id="node11" class="node">
<title>../models/Trigger.js</title>
<path fill="none" stroke="#cfffac" d="M288.83,-23C288.83,-23 173.17,-23 173.17,-23 169.33,-23 165.5,-19.17 165.5,-15.33 165.5,-15.33 165.5,-7.67 165.5,-7.67 165.5,-3.83 169.33,0 173.17,0 173.17,0 288.83,0 288.83,0 292.67,0 296.5,-3.83 296.5,-7.67 296.5,-7.67 296.5,-15.33 296.5,-15.33 296.5,-19.17 292.67,-23 288.83,-23"/>
<text text-anchor="middle" x="231" y="-7.8" font-family="Arial" font-size="14.00" fill="#cfffac">../models/Trigger.js</text>
</g>
<!-- ../models/UserFcmToken.js -->
<g id="node12" class="node">
<title>../models/UserFcmToken.js</title>
<path fill="none" stroke="#cfffac" d="M522.33,-182C522.33,-182 356.67,-182 356.67,-182 352.83,-182 349,-178.17 349,-174.33 349,-174.33 349,-166.67 349,-166.67 349,-162.83 352.83,-159 356.67,-159 356.67,-159 522.33,-159 522.33,-159 526.17,-159 530,-162.83 530,-166.67 530,-166.67 530,-174.33 530,-174.33 530,-178.17 526.17,-182 522.33,-182"/>
<text text-anchor="middle" x="439.5" y="-166.8" font-family="Arial" font-size="14.00" fill="#cfffac">../models/UserFcmToken.js</text>
</g>
<!-- EntryFields.js -->
<g id="node13" class="node">
<title>EntryFields.js</title>
<path fill="none" stroke="#c6c5fe" d="M272.33,-465C272.33,-465 189.67,-465 189.67,-465 185.83,-465 182,-461.17 182,-457.33 182,-457.33 182,-449.67 182,-449.67 182,-445.83 185.83,-442 189.67,-442 189.67,-442 272.33,-442 272.33,-442 276.17,-442 280,-445.83 280,-449.67 280,-449.67 280,-457.33 280,-457.33 280,-461.17 276.17,-465 272.33,-465"/>
<text text-anchor="middle" x="231" y="-449.8" font-family="Arial" font-size="14.00" fill="#c6c5fe">EntryFields.js</text>
</g>
<!-- EntryFields.js&#45;&gt;../models/EntryFields.js -->
<g id="edge1" class="edge">
<title>EntryFields.js&#45;&gt;../models/EntryFields.js</title>
<path fill="none" stroke="#757575" d="M280.15,-453.5C301.11,-453.5 326.36,-453.5 350.47,-453.5"/>
<polygon fill="#757575" stroke="#757575" points="350.72,-457 360.72,-453.5 350.72,-450 350.72,-457"/>
</g>
<!-- auditLogService.js -->
<g id="node14" class="node">
<title>auditLogService.js</title>
<path fill="none" stroke="#c6c5fe" d="M495.33,-364C495.33,-364 383.67,-364 383.67,-364 379.83,-364 376,-360.17 376,-356.33 376,-356.33 376,-348.67 376,-348.67 376,-344.83 379.83,-341 383.67,-341 383.67,-341 495.33,-341 495.33,-341 499.17,-341 503,-344.83 503,-348.67 503,-348.67 503,-356.33 503,-356.33 503,-360.17 499.17,-364 495.33,-364"/>
<text text-anchor="middle" x="439.5" y="-348.8" font-family="Arial" font-size="14.00" fill="#c6c5fe">auditLogService.js</text>
</g>
<!-- EntryFields.js&#45;&gt;auditLogService.js -->
<g id="edge2" class="edge">
<title>EntryFields.js&#45;&gt;auditLogService.js</title>
<path fill="none" stroke="#757575" d="M280.17,-446.67C291.47,-443.73 303.1,-439.52 313,-433.5 333.72,-420.9 329.48,-406.89 349,-392.5 362.49,-382.56 378.83,-374.35 393.85,-368.01"/>
<polygon fill="#757575" stroke="#757575" points="395.52,-371.11 403.48,-364.11 392.9,-364.62 395.52,-371.11"/>
</g>
<!-- auditLogService.js&#45;&gt;../models/AuditLog.js -->
<g id="edge4" class="edge">
<title>auditLogService.js&#45;&gt;../models/AuditLog.js</title>
<path fill="none" stroke="#757575" d="M495.62,-340.97C519.2,-336.04 546.92,-330.24 571.49,-325.1"/>
<polygon fill="#757575" stroke="#757575" points="572.38,-328.49 581.46,-323.01 570.95,-321.64 572.38,-328.49"/>
</g>
<!-- userService.js -->
<g id="node16" class="node">
<title>userService.js</title>
<path fill="none" stroke="#c6c5fe" d="M680.33,-364C680.33,-364 594.67,-364 594.67,-364 590.83,-364 587,-360.17 587,-356.33 587,-356.33 587,-348.67 587,-348.67 587,-344.83 590.83,-341 594.67,-341 594.67,-341 680.33,-341 680.33,-341 684.17,-341 688,-344.83 688,-348.67 688,-348.67 688,-356.33 688,-356.33 688,-360.17 684.17,-364 680.33,-364"/>
<text text-anchor="middle" x="637.5" y="-348.8" font-family="Arial" font-size="14.00" fill="#c6c5fe">userService.js</text>
</g>
<!-- auditLogService.js&#45;&gt;userService.js -->
<g id="edge5" class="edge">
<title>auditLogService.js&#45;&gt;userService.js</title>
<path fill="none" stroke="#757575" d="M503.05,-352.5C526.67,-352.5 553.46,-352.5 576.81,-352.5"/>
<polygon fill="#757575" stroke="#757575" points="576.93,-356 586.93,-352.5 576.93,-349 576.93,-356"/>
</g>
<!-- aggregationService.js -->
<g id="node15" class="node">
<title>aggregationService.js</title>
<path fill="none" stroke="#c6c5fe" d="M296.33,-141C296.33,-141 165.67,-141 165.67,-141 161.83,-141 158,-137.17 158,-133.33 158,-133.33 158,-125.67 158,-125.67 158,-121.83 161.83,-118 165.67,-118 165.67,-118 296.33,-118 296.33,-118 300.17,-118 304,-121.83 304,-125.67 304,-125.67 304,-133.33 304,-133.33 304,-137.17 300.17,-141 296.33,-141"/>
<text text-anchor="middle" x="231" y="-125.8" font-family="Arial" font-size="14.00" fill="#c6c5fe">aggregationService.js</text>
</g>
<!-- aggregationService.js&#45;&gt;../models/Aggregation.js -->
<g id="edge3" class="edge">
<title>aggregationService.js&#45;&gt;../models/Aggregation.js</title>
<path fill="none" stroke="#757575" d="M304.22,-129.5C318.4,-129.5 333.43,-129.5 348.12,-129.5"/>
<polygon fill="#757575" stroke="#757575" points="348.21,-133 358.21,-129.5 348.21,-126 348.21,-133"/>
</g>
<!-- userService.js&#45;&gt;../config/firebase.js -->
<g id="edge26" class="edge">
<title>userService.js&#45;&gt;../config/firebase.js</title>
<path fill="none" stroke="#757575" d="M688.23,-343.02C695.58,-340.34 702.76,-336.9 709,-332.5 752.99,-301.45 784.43,-244.54 799.14,-213.71"/>
<polygon fill="#757575" stroke="#757575" points="802.45,-214.87 803.48,-204.32 796.1,-211.93 802.45,-214.87"/>
</g>
<!-- coinLedger.js -->
<g id="node17" class="node">
<title>coinLedger.js</title>
<path fill="none" stroke="#c6c5fe" d="M479.83,-223C479.83,-223 399.17,-223 399.17,-223 395.33,-223 391.5,-219.17 391.5,-215.33 391.5,-215.33 391.5,-207.67 391.5,-207.67 391.5,-203.83 395.33,-200 399.17,-200 399.17,-200 479.83,-200 479.83,-200 483.67,-200 487.5,-203.83 487.5,-207.67 487.5,-207.67 487.5,-215.33 487.5,-215.33 487.5,-219.17 483.67,-223 479.83,-223"/>
<text text-anchor="middle" x="439.5" y="-207.8" font-family="Arial" font-size="14.00" fill="#c6c5fe">coinLedger.js</text>
</g>
<!-- coinLedger.js&#45;&gt;../config/coin.js -->
<g id="edge6" class="edge">
<title>coinLedger.js&#45;&gt;../config/coin.js</title>
<path fill="none" stroke="#757575" d="M487.69,-202.98C501.56,-199.8 516.6,-195.67 530,-190.5 558.86,-179.37 589.53,-161.68 610.5,-148.57"/>
<polygon fill="#757575" stroke="#757575" points="612.58,-151.4 619.14,-143.09 608.82,-145.49 612.58,-151.4"/>
</g>
<!-- coinLedger.js&#45;&gt;../models/Coin.js -->
<g id="edge7" class="edge">
<title>coinLedger.js&#45;&gt;../models/Coin.js</title>
<path fill="none" stroke="#757575" d="M487.95,-211.5C512.16,-211.5 542.04,-211.5 568.64,-211.5"/>
<polygon fill="#757575" stroke="#757575" points="568.65,-215 578.65,-211.5 568.65,-208 568.65,-215"/>
</g>
<!-- entryService.js -->
<g id="node18" class="node">
<title>entryService.js</title>
<path fill="none" stroke="#c6c5fe" d="M101.33,-364C101.33,-364 11.67,-364 11.67,-364 7.83,-364 4,-360.17 4,-356.33 4,-356.33 4,-348.67 4,-348.67 4,-344.83 7.83,-341 11.67,-341 11.67,-341 101.33,-341 101.33,-341 105.17,-341 109,-344.83 109,-348.67 109,-348.67 109,-356.33 109,-356.33 109,-360.17 105.17,-364 101.33,-364"/>
<text text-anchor="middle" x="56.5" y="-348.8" font-family="Arial" font-size="14.00" fill="#c6c5fe">entryService.js</text>
</g>
<!-- entryService.js&#45;&gt;../models/Entry.js -->
<g id="edge8" class="edge">
<title>entryService.js&#45;&gt;../models/Entry.js</title>
<path fill="none" stroke="#757575" d="M109.26,-346.5C125.43,-344.62 143.55,-342.52 160.73,-340.53"/>
<polygon fill="#757575" stroke="#757575" points="161.18,-344 170.71,-339.37 160.38,-337.05 161.18,-344"/>
</g>
<!-- entryService.js&#45;&gt;auditLogService.js -->
<g id="edge9" class="edge">
<title>entryService.js&#45;&gt;auditLogService.js</title>
<path fill="none" stroke="#757575" d="M109.28,-353.16C122.25,-353.3 136.13,-353.43 149,-353.5 221.89,-353.9 240.11,-353.79 313,-353.5 330.12,-353.43 348.56,-353.31 365.88,-353.18"/>
<polygon fill="#757575" stroke="#757575" points="365.97,-356.68 375.94,-353.1 365.91,-349.68 365.97,-356.68"/>
</g>
<!-- folderService.js -->
<g id="node19" class="node">
<title>folderService.js</title>
<path fill="none" stroke="#c6c5fe" d="M277.83,-424C277.83,-424 184.17,-424 184.17,-424 180.33,-424 176.5,-420.17 176.5,-416.33 176.5,-416.33 176.5,-408.67 176.5,-408.67 176.5,-404.83 180.33,-401 184.17,-401 184.17,-401 277.83,-401 277.83,-401 281.67,-401 285.5,-404.83 285.5,-408.67 285.5,-408.67 285.5,-416.33 285.5,-416.33 285.5,-420.17 281.67,-424 277.83,-424"/>
<text text-anchor="middle" x="231" y="-408.8" font-family="Arial" font-size="14.00" fill="#c6c5fe">folderService.js</text>
</g>
<!-- folderService.js&#45;&gt;../models/Folder.js -->
<g id="edge10" class="edge">
<title>folderService.js&#45;&gt;../models/Folder.js</title>
<path fill="none" stroke="#757575" d="M285.72,-412.5C310.09,-412.5 339.28,-412.5 365.59,-412.5"/>
<polygon fill="#757575" stroke="#757575" points="365.9,-416 375.9,-412.5 365.9,-409 365.9,-416"/>
</g>
<!-- folderService.js&#45;&gt;auditLogService.js -->
<g id="edge11" class="edge">
<title>folderService.js&#45;&gt;auditLogService.js</title>
<path fill="none" stroke="#757575" d="M271.82,-400.93C305.24,-391.22 353.14,-377.3 389.03,-366.87"/>
<polygon fill="#757575" stroke="#757575" points="390.18,-370.18 398.81,-364.03 388.23,-363.46 390.18,-370.18"/>
</g>
<!-- groupService.js -->
<g id="node20" class="node">
<title>groupService.js</title>
<path fill="none" stroke="#c6c5fe" d="M278.33,-303C278.33,-303 183.67,-303 183.67,-303 179.83,-303 176,-299.17 176,-295.33 176,-295.33 176,-287.67 176,-287.67 176,-283.83 179.83,-280 183.67,-280 183.67,-280 278.33,-280 278.33,-280 282.17,-280 286,-283.83 286,-287.67 286,-287.67 286,-295.33 286,-295.33 286,-299.17 282.17,-303 278.33,-303"/>
<text text-anchor="middle" x="231" y="-287.8" font-family="Arial" font-size="14.00" fill="#c6c5fe">groupService.js</text>
</g>
<!-- groupService.js&#45;&gt;../models/Group.js -->
<g id="edge12" class="edge">
<title>groupService.js&#45;&gt;../models/Group.js</title>
<path fill="none" stroke="#757575" d="M286.26,-292.03C310.41,-292.26 339.23,-292.54 365.26,-292.79"/>
<polygon fill="#757575" stroke="#757575" points="365.43,-296.29 375.46,-292.89 365.5,-289.29 365.43,-296.29"/>
</g>
<!-- groupService.js&#45;&gt;auditLogService.js -->
<g id="edge13" class="edge">
<title>groupService.js&#45;&gt;auditLogService.js</title>
<path fill="none" stroke="#757575" d="M278.38,-303.06C289.74,-306.02 301.83,-309.28 313,-312.5 340.23,-320.36 370.5,-329.99 394.5,-337.82"/>
<polygon fill="#757575" stroke="#757575" points="393.44,-341.16 404.03,-340.95 395.62,-334.51 393.44,-341.16"/>
</g>
<!-- profileService.js -->
<g id="node21" class="node">
<title>profileService.js</title>
<path fill="none" stroke="#c6c5fe" d="M279.33,-262C279.33,-262 182.67,-262 182.67,-262 178.83,-262 175,-258.17 175,-254.33 175,-254.33 175,-246.67 175,-246.67 175,-242.83 178.83,-239 182.67,-239 182.67,-239 279.33,-239 279.33,-239 283.17,-239 287,-242.83 287,-246.67 287,-246.67 287,-254.33 287,-254.33 287,-258.17 283.17,-262 279.33,-262"/>
<text text-anchor="middle" x="231" y="-246.8" font-family="Arial" font-size="14.00" fill="#c6c5fe">profileService.js</text>
</g>
<!-- profileService.js&#45;&gt;../models/Profile.js -->
<g id="edge14" class="edge">
<title>profileService.js&#45;&gt;../models/Profile.js</title>
<path fill="none" stroke="#757575" d="M287.07,-251.03C311.01,-251.27 339.41,-251.54 365.11,-251.79"/>
<polygon fill="#757575" stroke="#757575" points="365.15,-255.29 375.18,-251.89 365.22,-248.29 365.15,-255.29"/>
</g>
<!-- profileService.js&#45;&gt;auditLogService.js -->
<g id="edge15" class="edge">
<title>profileService.js&#45;&gt;auditLogService.js</title>
<path fill="none" stroke="#757575" d="M287.08,-259.84C296.15,-262.74 305.14,-266.53 313,-271.5 334.07,-284.82 328.97,-299.66 349,-314.5 361.56,-323.81 376.75,-331.36 391.02,-337.2"/>
<polygon fill="#757575" stroke="#757575" points="390.12,-340.6 400.71,-340.97 392.66,-334.08 390.12,-340.6"/>
</g>
<!-- profileService.js&#45;&gt;coinLedger.js -->
<g id="edge16" class="edge">
<title>profileService.js&#45;&gt;coinLedger.js</title>
<path fill="none" stroke="#757575" d="M287.07,-240.1C316.14,-234.61 351.78,-227.88 381.18,-222.33"/>
<polygon fill="#757575" stroke="#757575" points="382.12,-225.71 391.29,-220.42 380.82,-218.83 382.12,-225.71"/>
</g>
<!-- triggerService.js -->
<g id="node22" class="node">
<title>triggerService.js</title>
<path fill="none" stroke="#c6c5fe" d="M105.33,-162C105.33,-162 7.67,-162 7.67,-162 3.83,-162 0,-158.17 0,-154.33 0,-154.33 0,-146.67 0,-146.67 0,-142.83 3.83,-139 7.67,-139 7.67,-139 105.33,-139 105.33,-139 109.17,-139 113,-142.83 113,-146.67 113,-146.67 113,-154.33 113,-154.33 113,-158.17 109.17,-162 105.33,-162"/>
<text text-anchor="middle" x="56.5" y="-146.8" font-family="Arial" font-size="14.00" fill="#c6c5fe">triggerService.js</text>
</g>
<!-- triggerService.js&#45;&gt;../config/coin.js -->
<g id="edge17" class="edge">
<title>triggerService.js&#45;&gt;../config/coin.js</title>
<path fill="none" stroke="#757575" d="M76.28,-138.95C94.21,-128.64 122.36,-114.32 149,-108.5 314.43,-72.35 361.62,-90.53 530,-108.5 547.45,-110.36 566.23,-113.89 583.09,-117.64"/>
<polygon fill="#757575" stroke="#757575" points="582.78,-121.16 593.31,-119.99 584.35,-114.34 582.78,-121.16"/>
</g>
<!-- triggerService.js&#45;&gt;../config/firebase.js -->
<g id="edge18" class="edge">
<title>triggerService.js&#45;&gt;../config/firebase.js</title>
<path fill="none" stroke="#757575" d="M68.57,-138.84C84.55,-122.94 115.82,-95.22 149,-84.5 159.72,-81.04 489.45,-82.59 530,-85.5 610.12,-91.25 635.46,-78.18 709,-110.5 742.32,-125.14 773.45,-154.26 791.74,-173.57"/>
<polygon fill="#757575" stroke="#757575" points="789.18,-175.95 798.53,-180.92 794.32,-171.2 789.18,-175.95"/>
</g>
<!-- triggerService.js&#45;&gt;../models/Entry.js -->
<g id="edge19" class="edge">
<title>triggerService.js&#45;&gt;../models/Entry.js</title>
<path fill="none" stroke="#757575" d="M60.54,-162.02C69.05,-191.88 96,-272.26 149,-312.5 152.84,-315.41 157.04,-317.91 161.46,-320.04"/>
<polygon fill="#757575" stroke="#757575" points="160.19,-323.3 170.76,-323.93 162.89,-316.84 160.19,-323.3"/>
</g>
<!-- triggerService.js&#45;&gt;../models/Trigger.js -->
<g id="edge20" class="edge">
<title>triggerService.js&#45;&gt;../models/Trigger.js</title>
<path fill="none" stroke="#757575" d="M63.89,-138.69C76.88,-115.79 108.59,-65.17 149,-37.5 155.12,-33.31 161.95,-29.77 168.98,-26.77"/>
<polygon fill="#757575" stroke="#757575" points="170.58,-29.91 178.64,-23.03 168.05,-23.38 170.58,-29.91"/>
</g>
<!-- triggerService.js&#45;&gt;aggregationService.js -->
<g id="edge21" class="edge">
<title>triggerService.js&#45;&gt;aggregationService.js</title>
<path fill="none" stroke="#757575" d="M113.03,-143.74C124.08,-142.4 135.89,-140.96 147.62,-139.53"/>
<polygon fill="#757575" stroke="#757575" points="148.37,-142.96 157.87,-138.28 147.52,-136.01 148.37,-142.96"/>
</g>
<!-- triggerService.js&#45;&gt;coinLedger.js -->
<g id="edge22" class="edge">
<title>triggerService.js&#45;&gt;coinLedger.js</title>
<path fill="none" stroke="#757575" d="M78.59,-162.19C96.68,-171.6 123.75,-184.26 149,-190.5 227.8,-209.97 322.05,-213.26 381.11,-213.01"/>
<polygon fill="#757575" stroke="#757575" points="381.39,-216.51 391.36,-212.93 381.33,-209.51 381.39,-216.51"/>
</g>
<!-- triggerService.js&#45;&gt;profileService.js -->
<g id="edge23" class="edge">
<title>triggerService.js&#45;&gt;profileService.js</title>
<path fill="none" stroke="#757575" d="M68.9,-162.11C85.27,-178.19 117,-207.21 149,-224.5 156.84,-228.73 165.48,-232.42 174.1,-235.57"/>
<polygon fill="#757575" stroke="#757575" points="173.2,-238.96 183.8,-238.91 175.48,-232.34 173.2,-238.96"/>
</g>
<!-- userFcmTokenService.js -->
<g id="node23" class="node">
<title>userFcmTokenService.js</title>
<path fill="none" stroke="#c6c5fe" d="M305.33,-182C305.33,-182 156.67,-182 156.67,-182 152.83,-182 149,-178.17 149,-174.33 149,-174.33 149,-166.67 149,-166.67 149,-162.83 152.83,-159 156.67,-159 156.67,-159 305.33,-159 305.33,-159 309.17,-159 313,-162.83 313,-166.67 313,-166.67 313,-174.33 313,-174.33 313,-178.17 309.17,-182 305.33,-182"/>
<text text-anchor="middle" x="231" y="-166.8" font-family="Arial" font-size="14.00" fill="#c6c5fe">userFcmTokenService.js</text>
</g>
<!-- triggerService.js&#45;&gt;userFcmTokenService.js -->
<g id="edge24" class="edge">
<title>triggerService.js&#45;&gt;userFcmTokenService.js</title>
<path fill="none" stroke="#757575" d="M113.03,-156.94C121.33,-157.9 130.07,-158.91 138.87,-159.93"/>
<polygon fill="#757575" stroke="#757575" points="138.49,-163.41 148.82,-161.09 139.29,-156.46 138.49,-163.41"/>
</g>
<!-- userFcmTokenService.js&#45;&gt;../models/UserFcmToken.js -->
<g id="edge25" class="edge">
<title>userFcmTokenService.js&#45;&gt;../models/UserFcmToken.js</title>
<path fill="none" stroke="#757575" d="M313.02,-170.5C321.47,-170.5 330.12,-170.5 338.74,-170.5"/>
<polygon fill="#757575" stroke="#757575" points="338.84,-174 348.84,-170.5 338.84,-167 338.84,-174"/>
</g>
</g>
</svg>
