<?xml version="1.0" encoding="UTF-8" standalone="no"?>
<!DOCTYPE svg PUBLIC "-//W3C//DTD SVG 1.1//EN"
 "http://www.w3.org/Graphics/SVG/1.1/DTD/svg11.dtd">
<!-- Generated by graphviz version 2.42.4 (0)
 -->
<!-- Title: G Pages: 1 -->
<svg width="755pt" height="515pt"
 viewBox="0.00 0.00 755.20 515.20" xmlns="http://www.w3.org/2000/svg" xmlns:xlink="http://www.w3.org/1999/xlink">
<g id="graph0" class="graph" transform="scale(1 1) rotate(0) translate(21.6 493.6)">
<title>G</title>
<polygon fill="#111111" stroke="transparent" points="-21.6,21.6 -21.6,-493.6 733.6,-493.6 733.6,21.6 -21.6,21.6"/>
<!-- ../config/cache.js -->
<g id="node1" class="node">
<title>../config/cache.js</title>
<path fill="none" stroke="#cfffac" d="M463.83,-185C463.83,-185 362.17,-185 362.17,-185 358.33,-185 354.5,-181.17 354.5,-177.33 354.5,-177.33 354.5,-169.67 354.5,-169.67 354.5,-165.83 358.33,-162 362.17,-162 362.17,-162 463.83,-162 463.83,-162 467.67,-162 471.5,-165.83 471.5,-169.67 471.5,-169.67 471.5,-177.33 471.5,-177.33 471.5,-181.17 467.67,-185 463.83,-185"/>
<text text-anchor="middle" x="413" y="-169.8" font-family="Arial" font-size="14.00" fill="#cfffac">../config/cache.js</text>
</g>
<!-- ../config/coin.js -->
<g id="node2" class="node">
<title>../config/coin.js</title>
<path fill="none" stroke="#cfffac" d="M666.83,-145C666.83,-145 576.17,-145 576.17,-145 572.33,-145 568.5,-141.17 568.5,-137.33 568.5,-137.33 568.5,-129.67 568.5,-129.67 568.5,-125.83 572.33,-122 576.17,-122 576.17,-122 666.83,-122 666.83,-122 670.67,-122 674.5,-125.83 674.5,-129.67 674.5,-129.67 674.5,-137.33 674.5,-137.33 674.5,-141.17 670.67,-145 666.83,-145"/>
<text text-anchor="middle" x="621.5" y="-129.8" font-family="Arial" font-size="14.00" fill="#cfffac">../config/coin.js</text>
</g>
<!-- ../config/firebase.js -->
<g id="node3" class="node">
<title>../config/firebase.js</title>
<path fill="none" stroke="#cfffac" d="M469.83,-144C469.83,-144 356.17,-144 356.17,-144 352.33,-144 348.5,-140.17 348.5,-136.33 348.5,-136.33 348.5,-128.67 348.5,-128.67 348.5,-124.83 352.33,-121 356.17,-121 356.17,-121 469.83,-121 469.83,-121 473.67,-121 477.5,-124.83 477.5,-128.67 477.5,-128.67 477.5,-136.33 477.5,-136.33 477.5,-140.17 473.67,-144 469.83,-144"/>
<text text-anchor="middle" x="413" y="-128.8" font-family="Arial" font-size="14.00" fill="#cfffac">../config/firebase.js</text>
</g>
<!-- ../models/Aggregation.js -->
<g id="node4" class="node">
<title>../models/Aggregation.js</title>
<path fill="none" stroke="#cfffac" d="M486.33,-23C486.33,-23 339.67,-23 339.67,-23 335.83,-23 332,-19.17 332,-15.33 332,-15.33 332,-7.67 332,-7.67 332,-3.83 335.83,0 339.67,0 339.67,0 486.33,0 486.33,0 490.17,0 494,-3.83 494,-7.67 494,-7.67 494,-15.33 494,-15.33 494,-19.17 490.17,-23 486.33,-23"/>
<text text-anchor="middle" x="413" y="-7.8" font-family="Arial" font-size="14.00" fill="#cfffac">../models/Aggregation.js</text>
</g>
<!-- ../models/AuditLog.js -->
<g id="node5" class="node">
<title>../models/AuditLog.js</title>
<path fill="none" stroke="#cfffac" d="M685.33,-349C685.33,-349 557.67,-349 557.67,-349 553.83,-349 550,-345.17 550,-341.33 550,-341.33 550,-333.67 550,-333.67 550,-329.83 553.83,-326 557.67,-326 557.67,-326 685.33,-326 685.33,-326 689.17,-326 693,-329.83 693,-333.67 693,-333.67 693,-341.33 693,-341.33 693,-345.17 689.17,-349 685.33,-349"/>
<text text-anchor="middle" x="621.5" y="-333.8" font-family="Arial" font-size="14.00" fill="#cfffac">../models/AuditLog.js</text>
</g>
<!-- ../models/Coin.js -->
<g id="node6" class="node">
<title>../models/Coin.js</title>
<path fill="none" stroke="#cfffac" d="M672.33,-226C672.33,-226 570.67,-226 570.67,-226 566.83,-226 563,-222.17 563,-218.33 563,-218.33 563,-210.67 563,-210.67 563,-206.83 566.83,-203 570.67,-203 570.67,-203 672.33,-203 672.33,-203 676.17,-203 680,-206.83 680,-210.67 680,-210.67 680,-218.33 680,-218.33 680,-222.17 676.17,-226 672.33,-226"/>
<text text-anchor="middle" x="621.5" y="-210.8" font-family="Arial" font-size="14.00" fill="#cfffac">../models/Coin.js</text>
</g>
<!-- ../models/Entry.js -->
<g id="node7" class="node">
<title>../models/Entry.js</title>
<path fill="none" stroke="#cfffac" d="M465.33,-308C465.33,-308 360.67,-308 360.67,-308 356.83,-308 353,-304.17 353,-300.33 353,-300.33 353,-292.67 353,-292.67 353,-288.83 356.83,-285 360.67,-285 360.67,-285 465.33,-285 465.33,-285 469.17,-285 473,-288.83 473,-292.67 473,-292.67 473,-300.33 473,-300.33 473,-304.17 469.17,-308 465.33,-308"/>
<text text-anchor="middle" x="413" y="-292.8" font-family="Arial" font-size="14.00" fill="#cfffac">../models/Entry.js</text>
</g>
<!-- ../models/EntryFields.js -->
<g id="node8" class="node">
<title>../models/EntryFields.js</title>
<path fill="none" stroke="#cfffac" d="M483.83,-472C483.83,-472 342.17,-472 342.17,-472 338.33,-472 334.5,-468.17 334.5,-464.33 334.5,-464.33 334.5,-456.67 334.5,-456.67 334.5,-452.83 338.33,-449 342.17,-449 342.17,-449 483.83,-449 483.83,-449 487.67,-449 491.5,-452.83 491.5,-456.67 491.5,-456.67 491.5,-464.33 491.5,-464.33 491.5,-468.17 487.67,-472 483.83,-472"/>
<text text-anchor="middle" x="413" y="-456.8" font-family="Arial" font-size="14.00" fill="#cfffac">../models/EntryFields.js</text>
</g>
<!-- ../models/Folder.js -->
<g id="node9" class="node">
<title>../models/Folder.js</title>
<path fill="none" stroke="#cfffac" d="M468.83,-431C468.83,-431 357.17,-431 357.17,-431 353.33,-431 349.5,-427.17 349.5,-423.33 349.5,-423.33 349.5,-415.67 349.5,-415.67 349.5,-411.83 353.33,-408 357.17,-408 357.17,-408 468.83,-408 468.83,-408 472.67,-408 476.5,-411.83 476.5,-415.67 476.5,-415.67 476.5,-423.33 476.5,-423.33 476.5,-427.17 472.67,-431 468.83,-431"/>
<text text-anchor="middle" x="413" y="-415.8" font-family="Arial" font-size="14.00" fill="#cfffac">../models/Folder.js</text>
</g>
<!-- ../models/Group.js -->
<g id="node10" class="node">
<title>../models/Group.js</title>
<path fill="none" stroke="#cfffac" d="M469.33,-390C469.33,-390 356.67,-390 356.67,-390 352.83,-390 349,-386.17 349,-382.33 349,-382.33 349,-374.67 349,-374.67 349,-370.83 352.83,-367 356.67,-367 356.67,-367 469.33,-367 469.33,-367 473.17,-367 477,-370.83 477,-374.67 477,-374.67 477,-382.33 477,-382.33 477,-386.17 473.17,-390 469.33,-390"/>
<text text-anchor="middle" x="413" y="-374.8" font-family="Arial" font-size="14.00" fill="#cfffac">../models/Group.js</text>
</g>
<!-- ../models/Profile.js -->
<g id="node11" class="node">
<title>../models/Profile.js</title>
<path fill="none" stroke="#cfffac" d="M469.33,-267C469.33,-267 356.67,-267 356.67,-267 352.83,-267 349,-263.17 349,-259.33 349,-259.33 349,-251.67 349,-251.67 349,-247.83 352.83,-244 356.67,-244 356.67,-244 469.33,-244 469.33,-244 473.17,-244 477,-247.83 477,-251.67 477,-251.67 477,-259.33 477,-259.33 477,-263.17 473.17,-267 469.33,-267"/>
<text text-anchor="middle" x="413" y="-251.8" font-family="Arial" font-size="14.00" fill="#cfffac">../models/Profile.js</text>
</g>
<!-- ../models/Trigger.js -->
<g id="node12" class="node">
<title>../models/Trigger.js</title>
<path fill="none" stroke="#cfffac" d="M279.83,-144C279.83,-144 164.17,-144 164.17,-144 160.33,-144 156.5,-140.17 156.5,-136.33 156.5,-136.33 156.5,-128.67 156.5,-128.67 156.5,-124.83 160.33,-121 164.17,-121 164.17,-121 279.83,-121 279.83,-121 283.67,-121 287.5,-124.83 287.5,-128.67 287.5,-128.67 287.5,-136.33 287.5,-136.33 287.5,-140.17 283.67,-144 279.83,-144"/>
<text text-anchor="middle" x="222" y="-128.8" font-family="Arial" font-size="14.00" fill="#cfffac">../models/Trigger.js</text>
</g>
<!-- ../models/UserFcmToken.js -->
<g id="node13" class="node">
<title>../models/UserFcmToken.js</title>
<path fill="none" stroke="#cfffac" d="M704.33,-64C704.33,-64 538.67,-64 538.67,-64 534.83,-64 531,-60.17 531,-56.33 531,-56.33 531,-48.67 531,-48.67 531,-44.83 534.83,-41 538.67,-41 538.67,-41 704.33,-41 704.33,-41 708.17,-41 712,-44.83 712,-48.67 712,-48.67 712,-56.33 712,-56.33 712,-60.17 708.17,-64 704.33,-64"/>
<text text-anchor="middle" x="621.5" y="-48.8" font-family="Arial" font-size="14.00" fill="#cfffac">../models/UserFcmToken.js</text>
</g>
<!-- EntryFields.js -->
<g id="node14" class="node">
<title>EntryFields.js</title>
<path fill="none" stroke="#c6c5fe" d="M263.33,-466C263.33,-466 180.67,-466 180.67,-466 176.83,-466 173,-462.17 173,-458.33 173,-458.33 173,-450.67 173,-450.67 173,-446.83 176.83,-443 180.67,-443 180.67,-443 263.33,-443 263.33,-443 267.17,-443 271,-446.83 271,-450.67 271,-450.67 271,-458.33 271,-458.33 271,-462.17 267.17,-466 263.33,-466"/>
<text text-anchor="middle" x="222" y="-450.8" font-family="Arial" font-size="14.00" fill="#c6c5fe">EntryFields.js</text>
</g>
<!-- EntryFields.js&#45;&gt;../models/EntryFields.js -->
<g id="edge1" class="edge">
<title>EntryFields.js&#45;&gt;../models/EntryFields.js</title>
<path fill="none" stroke="#757575" d="M271.18,-456.03C287.33,-456.54 305.88,-457.13 324.09,-457.71"/>
<polygon fill="#757575" stroke="#757575" points="324.06,-461.21 334.16,-458.03 324.28,-454.21 324.06,-461.21"/>
</g>
<!-- auditLogService.js -->
<g id="node15" class="node">
<title>auditLogService.js</title>
<path fill="none" stroke="#c6c5fe" d="M468.83,-349C468.83,-349 357.17,-349 357.17,-349 353.33,-349 349.5,-345.17 349.5,-341.33 349.5,-341.33 349.5,-333.67 349.5,-333.67 349.5,-329.83 353.33,-326 357.17,-326 357.17,-326 468.83,-326 468.83,-326 472.67,-326 476.5,-329.83 476.5,-333.67 476.5,-333.67 476.5,-341.33 476.5,-341.33 476.5,-345.17 472.67,-349 468.83,-349"/>
<text text-anchor="middle" x="413" y="-333.8" font-family="Arial" font-size="14.00" fill="#c6c5fe">auditLogService.js</text>
</g>
<!-- EntryFields.js&#45;&gt;auditLogService.js -->
<g id="edge2" class="edge">
<title>EntryFields.js&#45;&gt;auditLogService.js</title>
<path fill="none" stroke="#757575" d="M264.26,-442.85C275.13,-438.37 286.25,-432.38 295,-424.5 319.83,-402.14 304.66,-379.05 331,-358.5 333.83,-356.29 336.88,-354.31 340.06,-352.53"/>
<polygon fill="#757575" stroke="#757575" points="341.87,-355.55 349.36,-348.07 338.83,-349.24 341.87,-355.55"/>
</g>
<!-- auditLogService.js&#45;&gt;../models/AuditLog.js -->
<g id="edge4" class="edge">
<title>auditLogService.js&#45;&gt;../models/AuditLog.js</title>
<path fill="none" stroke="#757575" d="M476.52,-337.5C496.41,-337.5 518.71,-337.5 539.7,-337.5"/>
<polygon fill="#757575" stroke="#757575" points="539.88,-341 549.88,-337.5 539.88,-334 539.88,-341"/>
</g>
<!-- aggregationService.js -->
<g id="node16" class="node">
<title>aggregationService.js</title>
<path fill="none" stroke="#c6c5fe" d="M287.33,-44C287.33,-44 156.67,-44 156.67,-44 152.83,-44 149,-40.17 149,-36.33 149,-36.33 149,-28.67 149,-28.67 149,-24.83 152.83,-21 156.67,-21 156.67,-21 287.33,-21 287.33,-21 291.17,-21 295,-24.83 295,-28.67 295,-28.67 295,-36.33 295,-36.33 295,-40.17 291.17,-44 287.33,-44"/>
<text text-anchor="middle" x="222" y="-28.8" font-family="Arial" font-size="14.00" fill="#c6c5fe">aggregationService.js</text>
</g>
<!-- aggregationService.js&#45;&gt;../models/Aggregation.js -->
<g id="edge3" class="edge">
<title>aggregationService.js&#45;&gt;../models/Aggregation.js</title>
<path fill="none" stroke="#757575" d="M295.26,-24.47C303.97,-23.5 312.94,-22.51 321.87,-21.51"/>
<polygon fill="#757575" stroke="#757575" points="322.35,-24.98 331.9,-20.4 321.57,-18.03 322.35,-24.98"/>
</g>
<!-- coinLedger.js -->
<g id="node17" class="node">
<title>coinLedger.js</title>
<path fill="none" stroke="#c6c5fe" d="M453.33,-226C453.33,-226 372.67,-226 372.67,-226 368.83,-226 365,-222.17 365,-218.33 365,-218.33 365,-210.67 365,-210.67 365,-206.83 368.83,-203 372.67,-203 372.67,-203 453.33,-203 453.33,-203 457.17,-203 461,-206.83 461,-210.67 461,-210.67 461,-218.33 461,-218.33 461,-222.17 457.17,-226 453.33,-226"/>
<text text-anchor="middle" x="413" y="-210.8" font-family="Arial" font-size="14.00" fill="#c6c5fe">coinLedger.js</text>
</g>
<!-- coinLedger.js&#45;&gt;../config/coin.js -->
<g id="edge5" class="edge">
<title>coinLedger.js&#45;&gt;../config/coin.js</title>
<path fill="none" stroke="#757575" d="M461.16,-203.91C472.38,-200.94 484.22,-197.43 495,-193.5 528.6,-181.24 565.32,-163.09 590.31,-149.96"/>
<polygon fill="#757575" stroke="#757575" points="592.09,-152.98 599.28,-145.2 588.81,-146.8 592.09,-152.98"/>
</g>
<!-- coinLedger.js&#45;&gt;../models/Coin.js -->
<g id="edge6" class="edge">
<title>coinLedger.js&#45;&gt;../models/Coin.js</title>
<path fill="none" stroke="#757575" d="M461.12,-214.5C488.16,-214.5 522.59,-214.5 552.53,-214.5"/>
<polygon fill="#757575" stroke="#757575" points="552.91,-218 562.91,-214.5 552.91,-211 552.91,-218"/>
</g>
<!-- entryService.js -->
<g id="node18" class="node">
<title>entryService.js</title>
<path fill="none" stroke="#c6c5fe" d="M266.83,-308C266.83,-308 177.17,-308 177.17,-308 173.33,-308 169.5,-304.17 169.5,-300.33 169.5,-300.33 169.5,-292.67 169.5,-292.67 169.5,-288.83 173.33,-285 177.17,-285 177.17,-285 266.83,-285 266.83,-285 270.67,-285 274.5,-288.83 274.5,-292.67 274.5,-292.67 274.5,-300.33 274.5,-300.33 274.5,-304.17 270.67,-308 266.83,-308"/>
<text text-anchor="middle" x="222" y="-292.8" font-family="Arial" font-size="14.00" fill="#c6c5fe">entryService.js</text>
</g>
<!-- entryService.js&#45;&gt;../models/Entry.js -->
<g id="edge7" class="edge">
<title>entryService.js&#45;&gt;../models/Entry.js</title>
<path fill="none" stroke="#757575" d="M274.65,-296.5C295.59,-296.5 320.1,-296.5 342.57,-296.5"/>
<polygon fill="#757575" stroke="#757575" points="342.73,-300 352.73,-296.5 342.73,-293 342.73,-300"/>
</g>
<!-- entryService.js&#45;&gt;auditLogService.js -->
<g id="edge8" class="edge">
<title>entryService.js&#45;&gt;auditLogService.js</title>
<path fill="none" stroke="#757575" d="M274.65,-307.7C297.6,-312.68 324.84,-318.59 348.99,-323.83"/>
<polygon fill="#757575" stroke="#757575" points="348.26,-327.25 358.77,-325.95 349.74,-320.41 348.26,-327.25"/>
</g>
<!-- folderService.js -->
<g id="node19" class="node">
<title>folderService.js</title>
<path fill="none" stroke="#c6c5fe" d="M268.83,-415C268.83,-415 175.17,-415 175.17,-415 171.33,-415 167.5,-411.17 167.5,-407.33 167.5,-407.33 167.5,-399.67 167.5,-399.67 167.5,-395.83 171.33,-392 175.17,-392 175.17,-392 268.83,-392 268.83,-392 272.67,-392 276.5,-395.83 276.5,-399.67 276.5,-399.67 276.5,-407.33 276.5,-407.33 276.5,-411.17 272.67,-415 268.83,-415"/>
<text text-anchor="middle" x="222" y="-399.8" font-family="Arial" font-size="14.00" fill="#c6c5fe">folderService.js</text>
</g>
<!-- folderService.js&#45;&gt;../models/Folder.js -->
<g id="edge9" class="edge">
<title>folderService.js&#45;&gt;../models/Folder.js</title>
<path fill="none" stroke="#757575" d="M276.65,-408.04C296.07,-409.69 318.33,-411.57 339.12,-413.33"/>
<polygon fill="#757575" stroke="#757575" points="338.93,-416.83 349.18,-414.18 339.52,-409.85 338.93,-416.83"/>
</g>
<!-- folderService.js&#45;&gt;auditLogService.js -->
<g id="edge10" class="edge">
<title>folderService.js&#45;&gt;auditLogService.js</title>
<path fill="none" stroke="#757575" d="M247.93,-391.93C269.58,-382.17 301.93,-368.27 331,-358.5 338.09,-356.12 345.59,-353.85 353.07,-351.74"/>
<polygon fill="#757575" stroke="#757575" points="354.12,-355.08 362.84,-349.06 352.27,-348.32 354.12,-355.08"/>
</g>
<!-- groupService.js -->
<g id="node20" class="node">
<title>groupService.js</title>
<path fill="none" stroke="#c6c5fe" d="M269.33,-354C269.33,-354 174.67,-354 174.67,-354 170.83,-354 167,-350.17 167,-346.33 167,-346.33 167,-338.67 167,-338.67 167,-334.83 170.83,-331 174.67,-331 174.67,-331 269.33,-331 269.33,-331 273.17,-331 277,-334.83 277,-338.67 277,-338.67 277,-346.33 277,-346.33 277,-350.17 273.17,-354 269.33,-354"/>
<text text-anchor="middle" x="222" y="-338.8" font-family="Arial" font-size="14.00" fill="#c6c5fe">groupService.js</text>
</g>
<!-- groupService.js&#45;&gt;../models/Group.js -->
<g id="edge11" class="edge">
<title>groupService.js&#45;&gt;../models/Group.js</title>
<path fill="none" stroke="#757575" d="M277.16,-352.82C297.22,-356.64 320.26,-361.03 341.56,-365.08"/>
<polygon fill="#757575" stroke="#757575" points="341.05,-368.55 351.52,-366.98 342.36,-361.67 341.05,-368.55"/>
</g>
<!-- groupService.js&#45;&gt;auditLogService.js -->
<g id="edge12" class="edge">
<title>groupService.js&#45;&gt;auditLogService.js</title>
<path fill="none" stroke="#757575" d="M277.16,-341.07C296.56,-340.55 318.76,-339.97 339.47,-339.42"/>
<polygon fill="#757575" stroke="#757575" points="339.59,-342.92 349.5,-339.15 339.41,-335.92 339.59,-342.92"/>
</g>
<!-- profileService.js -->
<g id="node21" class="node">
<title>profileService.js</title>
<path fill="none" stroke="#c6c5fe" d="M270.33,-265C270.33,-265 173.67,-265 173.67,-265 169.83,-265 166,-261.17 166,-257.33 166,-257.33 166,-249.67 166,-249.67 166,-245.83 169.83,-242 173.67,-242 173.67,-242 270.33,-242 270.33,-242 274.17,-242 278,-245.83 278,-249.67 278,-249.67 278,-257.33 278,-257.33 278,-261.17 274.17,-265 270.33,-265"/>
<text text-anchor="middle" x="222" y="-249.8" font-family="Arial" font-size="14.00" fill="#c6c5fe">profileService.js</text>
</g>
<!-- profileService.js&#45;&gt;../config/cache.js -->
<g id="edge13" class="edge">
<title>profileService.js&#45;&gt;../config/cache.js</title>
<path fill="none" stroke="#757575" d="M240.62,-241.78C261.43,-228.4 297.46,-206.68 331,-193.5 336.14,-191.48 341.54,-189.62 347.02,-187.91"/>
<polygon fill="#757575" stroke="#757575" points="348.31,-191.18 356.92,-185.01 346.34,-184.46 348.31,-191.18"/>
</g>
<!-- profileService.js&#45;&gt;../models/Profile.js -->
<g id="edge14" class="edge">
<title>profileService.js&#45;&gt;../models/Profile.js</title>
<path fill="none" stroke="#757575" d="M278.17,-254.08C297.1,-254.28 318.58,-254.51 338.71,-254.72"/>
<polygon fill="#757575" stroke="#757575" points="338.74,-258.22 348.77,-254.83 338.81,-251.23 338.74,-258.22"/>
</g>
<!-- profileService.js&#45;&gt;auditLogService.js -->
<g id="edge15" class="edge">
<title>profileService.js&#45;&gt;auditLogService.js</title>
<path fill="none" stroke="#757575" d="M273.78,-265.1C281.21,-267.89 288.52,-271.32 295,-275.5 315.37,-288.66 310.35,-303.78 331,-316.5 334.38,-318.58 337.97,-320.46 341.67,-322.15"/>
<polygon fill="#757575" stroke="#757575" points="340.5,-325.45 351.08,-325.99 343.14,-318.97 340.5,-325.45"/>
</g>
<!-- profileService.js&#45;&gt;coinLedger.js -->
<g id="edge16" class="edge">
<title>profileService.js&#45;&gt;coinLedger.js</title>
<path fill="none" stroke="#757575" d="M278.17,-242.11C302.31,-237.14 330.6,-231.3 354.95,-226.27"/>
<polygon fill="#757575" stroke="#757575" points="355.67,-229.7 364.76,-224.25 354.26,-222.84 355.67,-229.7"/>
</g>
<!-- triggerService.js -->
<g id="node22" class="node">
<title>triggerService.js</title>
<path fill="none" stroke="#c6c5fe" d="M105.33,-185C105.33,-185 7.67,-185 7.67,-185 3.83,-185 0,-181.17 0,-177.33 0,-177.33 0,-169.67 0,-169.67 0,-165.83 3.83,-162 7.67,-162 7.67,-162 105.33,-162 105.33,-162 109.17,-162 113,-165.83 113,-169.67 113,-169.67 113,-177.33 113,-177.33 113,-181.17 109.17,-185 105.33,-185"/>
<text text-anchor="middle" x="56.5" y="-169.8" font-family="Arial" font-size="14.00" fill="#c6c5fe">triggerService.js</text>
</g>
<!-- triggerService.js&#45;&gt;../config/coin.js -->
<g id="edge17" class="edge">
<title>triggerService.js&#45;&gt;../config/coin.js</title>
<path fill="none" stroke="#757575" d="M69.54,-161.77C85.93,-146.71 116.9,-121.35 149,-111.5 295.15,-66.65 478.69,-98.85 567.51,-119.62"/>
<polygon fill="#757575" stroke="#757575" points="566.81,-123.05 577.35,-121.97 568.43,-116.24 566.81,-123.05"/>
</g>
<!-- triggerService.js&#45;&gt;../models/Trigger.js -->
<g id="edge18" class="edge">
<title>triggerService.js&#45;&gt;../models/Trigger.js</title>
<path fill="none" stroke="#757575" d="M103.48,-161.97C122.63,-157.17 145.04,-151.55 165.13,-146.51"/>
<polygon fill="#757575" stroke="#757575" points="166.23,-149.84 175.08,-144.01 164.53,-143.05 166.23,-149.84"/>
</g>
<!-- triggerService.js&#45;&gt;aggregationService.js -->
<g id="edge19" class="edge">
<title>triggerService.js&#45;&gt;aggregationService.js</title>
<path fill="none" stroke="#757575" d="M67.15,-161.83C83.04,-143 116.23,-105.35 149,-78.5 162.05,-67.81 177.72,-57.54 191.1,-49.42"/>
<polygon fill="#757575" stroke="#757575" points="193.13,-52.29 199.94,-44.17 189.56,-46.27 193.13,-52.29"/>
</g>
<!-- triggerService.js&#45;&gt;coinLedger.js -->
<g id="edge20" class="edge">
<title>triggerService.js&#45;&gt;coinLedger.js</title>
<path fill="none" stroke="#757575" d="M104.29,-185.01C118.57,-188.17 134.36,-191.33 149,-193.5 219.3,-203.94 300.99,-209.44 354.45,-212.15"/>
<polygon fill="#757575" stroke="#757575" points="354.59,-215.66 364.75,-212.66 354.93,-208.67 354.59,-215.66"/>
</g>
<!-- triggerService.js&#45;&gt;entryService.js -->
<g id="edge21" class="edge">
<title>triggerService.js&#45;&gt;entryService.js</title>
<path fill="none" stroke="#757575" d="M65.1,-185.21C79.18,-205.99 111.35,-249.39 149,-273.5 153.38,-276.3 158.12,-278.79 163.02,-280.99"/>
<polygon fill="#757575" stroke="#757575" points="161.98,-284.35 172.56,-284.88 164.62,-277.86 161.98,-284.35"/>
</g>
<!-- triggerService.js&#45;&gt;profileService.js -->
<g id="edge22" class="edge">
<title>triggerService.js&#45;&gt;profileService.js</title>
<path fill="none" stroke="#757575" d="M74.85,-185.07C92.87,-196.76 122.13,-214.85 149,-227.5 157.39,-231.45 166.55,-235.18 175.45,-238.51"/>
<polygon fill="#757575" stroke="#757575" points="174.35,-241.83 184.94,-241.96 176.74,-235.25 174.35,-241.83"/>
</g>
<!-- userService.js -->
<g id="node23" class="node">
<title>userService.js</title>
<path fill="none" stroke="#c6c5fe" d="M264.83,-185C264.83,-185 179.17,-185 179.17,-185 175.33,-185 171.5,-181.17 171.5,-177.33 171.5,-177.33 171.5,-169.67 171.5,-169.67 171.5,-165.83 175.33,-162 179.17,-162 179.17,-162 264.83,-162 264.83,-162 268.67,-162 272.5,-165.83 272.5,-169.67 272.5,-169.67 272.5,-177.33 272.5,-177.33 272.5,-181.17 268.67,-185 264.83,-185"/>
<text text-anchor="middle" x="222" y="-169.8" font-family="Arial" font-size="14.00" fill="#c6c5fe">userService.js</text>
</g>
<!-- triggerService.js&#45;&gt;userService.js -->
<g id="edge23" class="edge">
<title>triggerService.js&#45;&gt;userService.js</title>
<path fill="none" stroke="#757575" d="M113.31,-173.5C128.79,-173.5 145.66,-173.5 161.35,-173.5"/>
<polygon fill="#757575" stroke="#757575" points="161.46,-177 171.46,-173.5 161.46,-170 161.46,-177"/>
</g>
<!-- userService.js&#45;&gt;../config/cache.js -->
<g id="edge25" class="edge">
<title>userService.js&#45;&gt;../config/cache.js</title>
<path fill="none" stroke="#757575" d="M272.66,-173.5C294.47,-173.5 320.44,-173.5 344.02,-173.5"/>
<polygon fill="#757575" stroke="#757575" points="344.3,-177 354.3,-173.5 344.3,-170 344.3,-177"/>
</g>
<!-- userService.js&#45;&gt;../config/firebase.js -->
<g id="edge26" class="edge">
<title>userService.js&#45;&gt;../config/firebase.js</title>
<path fill="none" stroke="#757575" d="M272.66,-162.73C295.92,-157.68 323.9,-151.61 348.67,-146.24"/>
<polygon fill="#757575" stroke="#757575" points="349.67,-149.6 358.7,-144.06 348.19,-142.76 349.67,-149.6"/>
</g>
<!-- userFcmTokenService.js -->
<g id="node24" class="node">
<title>userFcmTokenService.js</title>
<path fill="none" stroke="#c6c5fe" d="M487.33,-64C487.33,-64 338.67,-64 338.67,-64 334.83,-64 331,-60.17 331,-56.33 331,-56.33 331,-48.67 331,-48.67 331,-44.83 334.83,-41 338.67,-41 338.67,-41 487.33,-41 487.33,-41 491.17,-41 495,-44.83 495,-48.67 495,-48.67 495,-56.33 495,-56.33 495,-60.17 491.17,-64 487.33,-64"/>
<text text-anchor="middle" x="413" y="-48.8" font-family="Arial" font-size="14.00" fill="#c6c5fe">userFcmTokenService.js</text>
</g>
<!-- userService.js&#45;&gt;userFcmTokenService.js -->
<g id="edge27" class="edge">
<title>userService.js&#45;&gt;userFcmTokenService.js</title>
<path fill="none" stroke="#757575" d="M272.64,-163.07C280.46,-160.3 288.19,-156.84 295,-152.5 315.45,-139.48 313.09,-127.85 331,-111.5 347.91,-96.06 368.85,-80.9 385.2,-69.81"/>
<polygon fill="#757575" stroke="#757575" points="387.38,-72.56 393.75,-64.1 383.49,-66.74 387.38,-72.56"/>
</g>
<!-- userFcmTokenService.js&#45;&gt;../models/UserFcmToken.js -->
<g id="edge24" class="edge">
<title>userFcmTokenService.js&#45;&gt;../models/UserFcmToken.js</title>
<path fill="none" stroke="#757575" d="M495.02,-52.5C503.47,-52.5 512.12,-52.5 520.74,-52.5"/>
<polygon fill="#757575" stroke="#757575" points="520.84,-56 530.84,-52.5 520.84,-49 520.84,-56"/>
</g>
</g>
</svg>
