<?xml version="1.0" encoding="UTF-8" standalone="no"?>
<!DOCTYPE svg PUBLIC "-//W3C//DTD SVG 1.1//EN"
 "http://www.w3.org/Graphics/SVG/1.1/DTD/svg11.dtd">
<!-- Generated by graphviz version 2.42.4 (0)
 -->
<!-- Title: G Pages: 1 -->
<svg width="755pt" height="517pt"
 viewBox="0.00 0.00 755.20 517.20" xmlns="http://www.w3.org/2000/svg" xmlns:xlink="http://www.w3.org/1999/xlink">
<g id="graph0" class="graph" transform="scale(1 1) rotate(0) translate(21.6 495.6)">
<title>G</title>
<polygon fill="#111111" stroke="transparent" points="-21.6,21.6 -21.6,-495.6 733.6,-495.6 733.6,21.6 -21.6,21.6"/>
<!-- ../config/cache.js -->
<g id="node1" class="node">
<title>../config/cache.js</title>
<path fill="none" stroke="#cfffac" d="M463.83,-392C463.83,-392 362.17,-392 362.17,-392 358.33,-392 354.5,-388.17 354.5,-384.33 354.5,-384.33 354.5,-376.67 354.5,-376.67 354.5,-372.83 358.33,-369 362.17,-369 362.17,-369 463.83,-369 463.83,-369 467.67,-369 471.5,-372.83 471.5,-376.67 471.5,-376.67 471.5,-384.33 471.5,-384.33 471.5,-388.17 467.67,-392 463.83,-392"/>
<text text-anchor="middle" x="413" y="-376.8" font-family="Arial" font-size="14.00" fill="#cfffac">../config/cache.js</text>
</g>
<!-- ../config/coin.js -->
<g id="node2" class="node">
<title>../config/coin.js</title>
<path fill="none" stroke="#cfffac" d="M458.33,-474C458.33,-474 367.67,-474 367.67,-474 363.83,-474 360,-470.17 360,-466.33 360,-466.33 360,-458.67 360,-458.67 360,-454.83 363.83,-451 367.67,-451 367.67,-451 458.33,-451 458.33,-451 462.17,-451 466,-454.83 466,-458.67 466,-458.67 466,-466.33 466,-466.33 466,-470.17 462.17,-474 458.33,-474"/>
<text text-anchor="middle" x="413" y="-458.8" font-family="Arial" font-size="14.00" fill="#cfffac">../config/coin.js</text>
</g>
<!-- ../config/firebase.js -->
<g id="node3" class="node">
<title>../config/firebase.js</title>
<path fill="none" stroke="#cfffac" d="M469.83,-351C469.83,-351 356.17,-351 356.17,-351 352.33,-351 348.5,-347.17 348.5,-343.33 348.5,-343.33 348.5,-335.67 348.5,-335.67 348.5,-331.83 352.33,-328 356.17,-328 356.17,-328 469.83,-328 469.83,-328 473.67,-328 477.5,-331.83 477.5,-335.67 477.5,-335.67 477.5,-343.33 477.5,-343.33 477.5,-347.17 473.67,-351 469.83,-351"/>
<text text-anchor="middle" x="413" y="-335.8" font-family="Arial" font-size="14.00" fill="#cfffac">../config/firebase.js</text>
</g>
<!-- ../models/Aggregation.js -->
<g id="node4" class="node">
<title>../models/Aggregation.js</title>
<path fill="none" stroke="#cfffac" d="M486.33,-23C486.33,-23 339.67,-23 339.67,-23 335.83,-23 332,-19.17 332,-15.33 332,-15.33 332,-7.67 332,-7.67 332,-3.83 335.83,0 339.67,0 339.67,0 486.33,0 486.33,0 490.17,0 494,-3.83 494,-7.67 494,-7.67 494,-15.33 494,-15.33 494,-19.17 490.17,-23 486.33,-23"/>
<text text-anchor="middle" x="413" y="-7.8" font-family="Arial" font-size="14.00" fill="#cfffac">../models/Aggregation.js</text>
</g>
<!-- ../models/AuditLog.js -->
<g id="node5" class="node">
<title>../models/AuditLog.js</title>
<path fill="none" stroke="#cfffac" d="M685.33,-146C685.33,-146 557.67,-146 557.67,-146 553.83,-146 550,-142.17 550,-138.33 550,-138.33 550,-130.67 550,-130.67 550,-126.83 553.83,-123 557.67,-123 557.67,-123 685.33,-123 685.33,-123 689.17,-123 693,-126.83 693,-130.67 693,-130.67 693,-138.33 693,-138.33 693,-142.17 689.17,-146 685.33,-146"/>
<text text-anchor="middle" x="621.5" y="-130.8" font-family="Arial" font-size="14.00" fill="#cfffac">../models/AuditLog.js</text>
</g>
<!-- ../models/Coin.js -->
<g id="node6" class="node">
<title>../models/Coin.js</title>
<path fill="none" stroke="#cfffac" d="M463.83,-433C463.83,-433 362.17,-433 362.17,-433 358.33,-433 354.5,-429.17 354.5,-425.33 354.5,-425.33 354.5,-417.67 354.5,-417.67 354.5,-413.83 358.33,-410 362.17,-410 362.17,-410 463.83,-410 463.83,-410 467.67,-410 471.5,-413.83 471.5,-417.67 471.5,-417.67 471.5,-425.33 471.5,-425.33 471.5,-429.17 467.67,-433 463.83,-433"/>
<text text-anchor="middle" x="413" y="-417.8" font-family="Arial" font-size="14.00" fill="#cfffac">../models/Coin.js</text>
</g>
<!-- ../models/Entry.js -->
<g id="node7" class="node">
<title>../models/Entry.js</title>
<path fill="none" stroke="#cfffac" d="M465.33,-64C465.33,-64 360.67,-64 360.67,-64 356.83,-64 353,-60.17 353,-56.33 353,-56.33 353,-48.67 353,-48.67 353,-44.83 356.83,-41 360.67,-41 360.67,-41 465.33,-41 465.33,-41 469.17,-41 473,-44.83 473,-48.67 473,-48.67 473,-56.33 473,-56.33 473,-60.17 469.17,-64 465.33,-64"/>
<text text-anchor="middle" x="413" y="-48.8" font-family="Arial" font-size="14.00" fill="#cfffac">../models/Entry.js</text>
</g>
<!-- ../models/EntryFields.js -->
<g id="node8" class="node">
<title>../models/EntryFields.js</title>
<path fill="none" stroke="#cfffac" d="M483.83,-228C483.83,-228 342.17,-228 342.17,-228 338.33,-228 334.5,-224.17 334.5,-220.33 334.5,-220.33 334.5,-212.67 334.5,-212.67 334.5,-208.83 338.33,-205 342.17,-205 342.17,-205 483.83,-205 483.83,-205 487.67,-205 491.5,-208.83 491.5,-212.67 491.5,-212.67 491.5,-220.33 491.5,-220.33 491.5,-224.17 487.67,-228 483.83,-228"/>
<text text-anchor="middle" x="413" y="-212.8" font-family="Arial" font-size="14.00" fill="#cfffac">../models/EntryFields.js</text>
</g>
<!-- ../models/Folder.js -->
<g id="node9" class="node">
<title>../models/Folder.js</title>
<path fill="none" stroke="#cfffac" d="M468.83,-187C468.83,-187 357.17,-187 357.17,-187 353.33,-187 349.5,-183.17 349.5,-179.33 349.5,-179.33 349.5,-171.67 349.5,-171.67 349.5,-167.83 353.33,-164 357.17,-164 357.17,-164 468.83,-164 468.83,-164 472.67,-164 476.5,-167.83 476.5,-171.67 476.5,-171.67 476.5,-179.33 476.5,-179.33 476.5,-183.17 472.67,-187 468.83,-187"/>
<text text-anchor="middle" x="413" y="-171.8" font-family="Arial" font-size="14.00" fill="#cfffac">../models/Folder.js</text>
</g>
<!-- ../models/Group.js -->
<g id="node10" class="node">
<title>../models/Group.js</title>
<path fill="none" stroke="#cfffac" d="M469.33,-105C469.33,-105 356.67,-105 356.67,-105 352.83,-105 349,-101.17 349,-97.33 349,-97.33 349,-89.67 349,-89.67 349,-85.83 352.83,-82 356.67,-82 356.67,-82 469.33,-82 469.33,-82 473.17,-82 477,-85.83 477,-89.67 477,-89.67 477,-97.33 477,-97.33 477,-101.17 473.17,-105 469.33,-105"/>
<text text-anchor="middle" x="413" y="-89.8" font-family="Arial" font-size="14.00" fill="#cfffac">../models/Group.js</text>
</g>
<!-- ../models/Profile.js -->
<g id="node11" class="node">
<title>../models/Profile.js</title>
<path fill="none" stroke="#cfffac" d="M469.33,-269C469.33,-269 356.67,-269 356.67,-269 352.83,-269 349,-265.17 349,-261.33 349,-261.33 349,-253.67 349,-253.67 349,-249.83 352.83,-246 356.67,-246 356.67,-246 469.33,-246 469.33,-246 473.17,-246 477,-249.83 477,-253.67 477,-253.67 477,-261.33 477,-261.33 477,-265.17 473.17,-269 469.33,-269"/>
<text text-anchor="middle" x="413" y="-253.8" font-family="Arial" font-size="14.00" fill="#cfffac">../models/Profile.js</text>
</g>
<!-- ../models/Trigger.js -->
<g id="node12" class="node">
<title>../models/Trigger.js</title>
<path fill="none" stroke="#cfffac" d="M279.83,-472C279.83,-472 164.17,-472 164.17,-472 160.33,-472 156.5,-468.17 156.5,-464.33 156.5,-464.33 156.5,-456.67 156.5,-456.67 156.5,-452.83 160.33,-449 164.17,-449 164.17,-449 279.83,-449 279.83,-449 283.67,-449 287.5,-452.83 287.5,-456.67 287.5,-456.67 287.5,-464.33 287.5,-464.33 287.5,-468.17 283.67,-472 279.83,-472"/>
<text text-anchor="middle" x="222" y="-456.8" font-family="Arial" font-size="14.00" fill="#cfffac">../models/Trigger.js</text>
</g>
<!-- ../models/UserFcmToken.js -->
<g id="node13" class="node">
<title>../models/UserFcmToken.js</title>
<path fill="none" stroke="#cfffac" d="M704.33,-310C704.33,-310 538.67,-310 538.67,-310 534.83,-310 531,-306.17 531,-302.33 531,-302.33 531,-294.67 531,-294.67 531,-290.83 534.83,-287 538.67,-287 538.67,-287 704.33,-287 704.33,-287 708.17,-287 712,-290.83 712,-294.67 712,-294.67 712,-302.33 712,-302.33 712,-306.17 708.17,-310 704.33,-310"/>
<text text-anchor="middle" x="621.5" y="-294.8" font-family="Arial" font-size="14.00" fill="#cfffac">../models/UserFcmToken.js</text>
</g>
<!-- EntryFields.js -->
<g id="node14" class="node">
<title>EntryFields.js</title>
<path fill="none" stroke="#c6c5fe" d="M263.33,-228C263.33,-228 180.67,-228 180.67,-228 176.83,-228 173,-224.17 173,-220.33 173,-220.33 173,-212.67 173,-212.67 173,-208.83 176.83,-205 180.67,-205 180.67,-205 263.33,-205 263.33,-205 267.17,-205 271,-208.83 271,-212.67 271,-212.67 271,-220.33 271,-220.33 271,-224.17 267.17,-228 263.33,-228"/>
<text text-anchor="middle" x="222" y="-212.8" font-family="Arial" font-size="14.00" fill="#c6c5fe">EntryFields.js</text>
</g>
<!-- EntryFields.js&#45;&gt;../models/EntryFields.js -->
<g id="edge1" class="edge">
<title>EntryFields.js&#45;&gt;../models/EntryFields.js</title>
<path fill="none" stroke="#757575" d="M271.18,-216.5C287.33,-216.5 305.88,-216.5 324.09,-216.5"/>
<polygon fill="#757575" stroke="#757575" points="324.16,-220 334.16,-216.5 324.16,-213 324.16,-220"/>
</g>
<!-- auditLogService.js -->
<g id="node15" class="node">
<title>auditLogService.js</title>
<path fill="none" stroke="#c6c5fe" d="M468.83,-146C468.83,-146 357.17,-146 357.17,-146 353.33,-146 349.5,-142.17 349.5,-138.33 349.5,-138.33 349.5,-130.67 349.5,-130.67 349.5,-126.83 353.33,-123 357.17,-123 357.17,-123 468.83,-123 468.83,-123 472.67,-123 476.5,-126.83 476.5,-130.67 476.5,-130.67 476.5,-138.33 476.5,-138.33 476.5,-142.17 472.67,-146 468.83,-146"/>
<text text-anchor="middle" x="413" y="-130.8" font-family="Arial" font-size="14.00" fill="#c6c5fe">auditLogService.js</text>
</g>
<!-- EntryFields.js&#45;&gt;auditLogService.js -->
<g id="edge2" class="edge">
<title>EntryFields.js&#45;&gt;auditLogService.js</title>
<path fill="none" stroke="#757575" d="M271.13,-206.6C279.45,-203.75 287.75,-200.12 295,-195.5 315.45,-182.48 310.28,-167.1 331,-154.5 333.85,-152.77 336.84,-151.19 339.92,-149.74"/>
<polygon fill="#757575" stroke="#757575" points="341.51,-152.88 349.4,-145.81 338.82,-146.41 341.51,-152.88"/>
</g>
<!-- auditLogService.js&#45;&gt;../models/AuditLog.js -->
<g id="edge4" class="edge">
<title>auditLogService.js&#45;&gt;../models/AuditLog.js</title>
<path fill="none" stroke="#757575" d="M476.52,-134.5C496.41,-134.5 518.71,-134.5 539.7,-134.5"/>
<polygon fill="#757575" stroke="#757575" points="539.88,-138 549.88,-134.5 539.88,-131 539.88,-138"/>
</g>
<!-- aggregationService.js -->
<g id="node16" class="node">
<title>aggregationService.js</title>
<path fill="none" stroke="#c6c5fe" d="M287.33,-44C287.33,-44 156.67,-44 156.67,-44 152.83,-44 149,-40.17 149,-36.33 149,-36.33 149,-28.67 149,-28.67 149,-24.83 152.83,-21 156.67,-21 156.67,-21 287.33,-21 287.33,-21 291.17,-21 295,-24.83 295,-28.67 295,-28.67 295,-36.33 295,-36.33 295,-40.17 291.17,-44 287.33,-44"/>
<text text-anchor="middle" x="222" y="-28.8" font-family="Arial" font-size="14.00" fill="#c6c5fe">aggregationService.js</text>
</g>
<!-- aggregationService.js&#45;&gt;../models/Aggregation.js -->
<g id="edge3" class="edge">
<title>aggregationService.js&#45;&gt;../models/Aggregation.js</title>
<path fill="none" stroke="#757575" d="M295.26,-24.47C303.97,-23.5 312.94,-22.51 321.87,-21.51"/>
<polygon fill="#757575" stroke="#757575" points="322.35,-24.98 331.9,-20.4 321.57,-18.03 322.35,-24.98"/>
</g>
<!-- coinService.js -->
<g id="node17" class="node">
<title>coinService.js</title>
<path fill="none" stroke="#c6c5fe" d="M264.33,-392C264.33,-392 179.67,-392 179.67,-392 175.83,-392 172,-388.17 172,-384.33 172,-384.33 172,-376.67 172,-376.67 172,-372.83 175.83,-369 179.67,-369 179.67,-369 264.33,-369 264.33,-369 268.17,-369 272,-372.83 272,-376.67 272,-376.67 272,-384.33 272,-384.33 272,-388.17 268.17,-392 264.33,-392"/>
<text text-anchor="middle" x="222" y="-376.8" font-family="Arial" font-size="14.00" fill="#c6c5fe">coinService.js</text>
</g>
<!-- coinService.js&#45;&gt;../config/cache.js -->
<g id="edge5" class="edge">
<title>coinService.js&#45;&gt;../config/cache.js</title>
<path fill="none" stroke="#757575" d="M272.16,-380.5C294.18,-380.5 320.49,-380.5 344.32,-380.5"/>
<polygon fill="#757575" stroke="#757575" points="344.36,-384 354.36,-380.5 344.36,-377 344.36,-384"/>
</g>
<!-- coinService.js&#45;&gt;../config/coin.js -->
<g id="edge6" class="edge">
<title>coinService.js&#45;&gt;../config/coin.js</title>
<path fill="none" stroke="#757575" d="M264.82,-392.11C275.11,-395.89 285.8,-400.66 295,-406.5 314.1,-418.63 311.29,-431.38 331,-442.5 336.93,-445.85 343.42,-448.64 350.06,-450.97"/>
<polygon fill="#757575" stroke="#757575" points="349.25,-454.39 359.84,-454.06 351.36,-447.71 349.25,-454.39"/>
</g>
<!-- coinService.js&#45;&gt;../models/Coin.js -->
<g id="edge7" class="edge">
<title>coinService.js&#45;&gt;../models/Coin.js</title>
<path fill="none" stroke="#757575" d="M272.16,-391.17C295.52,-396.23 323.73,-402.35 348.67,-407.76"/>
<polygon fill="#757575" stroke="#757575" points="348.26,-411.25 358.77,-409.95 349.74,-404.41 348.26,-411.25"/>
</g>
<!-- entryService.js -->
<g id="node18" class="node">
<title>entryService.js</title>
<path fill="none" stroke="#c6c5fe" d="M266.83,-105C266.83,-105 177.17,-105 177.17,-105 173.33,-105 169.5,-101.17 169.5,-97.33 169.5,-97.33 169.5,-89.67 169.5,-89.67 169.5,-85.83 173.33,-82 177.17,-82 177.17,-82 266.83,-82 266.83,-82 270.67,-82 274.5,-85.83 274.5,-89.67 274.5,-89.67 274.5,-97.33 274.5,-97.33 274.5,-101.17 270.67,-105 266.83,-105"/>
<text text-anchor="middle" x="222" y="-89.8" font-family="Arial" font-size="14.00" fill="#c6c5fe">entryService.js</text>
</g>
<!-- entryService.js&#45;&gt;../models/Entry.js -->
<g id="edge8" class="edge">
<title>entryService.js&#45;&gt;../models/Entry.js</title>
<path fill="none" stroke="#757575" d="M274.65,-82.3C297.6,-77.32 324.84,-71.41 348.99,-66.17"/>
<polygon fill="#757575" stroke="#757575" points="349.74,-69.59 358.77,-64.05 348.26,-62.75 349.74,-69.59"/>
</g>
<!-- entryService.js&#45;&gt;auditLogService.js -->
<g id="edge9" class="edge">
<title>entryService.js&#45;&gt;auditLogService.js</title>
<path fill="none" stroke="#757575" d="M274.65,-104.7C297.6,-109.68 324.84,-115.59 348.99,-120.83"/>
<polygon fill="#757575" stroke="#757575" points="348.26,-124.25 358.77,-122.95 349.74,-117.41 348.26,-124.25"/>
</g>
<!-- folderService.js -->
<g id="node19" class="node">
<title>folderService.js</title>
<path fill="none" stroke="#c6c5fe" d="M268.83,-187C268.83,-187 175.17,-187 175.17,-187 171.33,-187 167.5,-183.17 167.5,-179.33 167.5,-179.33 167.5,-171.67 167.5,-171.67 167.5,-167.83 171.33,-164 175.17,-164 175.17,-164 268.83,-164 268.83,-164 272.67,-164 276.5,-167.83 276.5,-171.67 276.5,-171.67 276.5,-179.33 276.5,-179.33 276.5,-183.17 272.67,-187 268.83,-187"/>
<text text-anchor="middle" x="222" y="-171.8" font-family="Arial" font-size="14.00" fill="#c6c5fe">folderService.js</text>
</g>
<!-- folderService.js&#45;&gt;../models/Folder.js -->
<g id="edge10" class="edge">
<title>folderService.js&#45;&gt;../models/Folder.js</title>
<path fill="none" stroke="#757575" d="M276.65,-175.5C296.07,-175.5 318.33,-175.5 339.12,-175.5"/>
<polygon fill="#757575" stroke="#757575" points="339.18,-179 349.18,-175.5 339.18,-172 339.18,-179"/>
</g>
<!-- folderService.js&#45;&gt;auditLogService.js -->
<g id="edge11" class="edge">
<title>folderService.js&#45;&gt;auditLogService.js</title>
<path fill="none" stroke="#757575" d="M276.15,-163.97C298.79,-159.06 325.38,-153.29 349,-148.17"/>
<polygon fill="#757575" stroke="#757575" points="349.89,-151.55 358.92,-146.01 348.41,-144.71 349.89,-151.55"/>
</g>
<!-- groupService.js -->
<g id="node20" class="node">
<title>groupService.js</title>
<path fill="none" stroke="#c6c5fe" d="M269.33,-146C269.33,-146 174.67,-146 174.67,-146 170.83,-146 167,-142.17 167,-138.33 167,-138.33 167,-130.67 167,-130.67 167,-126.83 170.83,-123 174.67,-123 174.67,-123 269.33,-123 269.33,-123 273.17,-123 277,-126.83 277,-130.67 277,-130.67 277,-138.33 277,-138.33 277,-142.17 273.17,-146 269.33,-146"/>
<text text-anchor="middle" x="222" y="-130.8" font-family="Arial" font-size="14.00" fill="#c6c5fe">groupService.js</text>
</g>
<!-- groupService.js&#45;&gt;../models/Group.js -->
<g id="edge12" class="edge">
<title>groupService.js&#45;&gt;../models/Group.js</title>
<path fill="none" stroke="#757575" d="M276.15,-122.97C298.79,-118.06 325.38,-112.29 349,-107.17"/>
<polygon fill="#757575" stroke="#757575" points="349.89,-110.55 358.92,-105.01 348.41,-103.71 349.89,-110.55"/>
</g>
<!-- groupService.js&#45;&gt;auditLogService.js -->
<g id="edge13" class="edge">
<title>groupService.js&#45;&gt;auditLogService.js</title>
<path fill="none" stroke="#757575" d="M277.16,-134.5C296.56,-134.5 318.76,-134.5 339.47,-134.5"/>
<polygon fill="#757575" stroke="#757575" points="339.5,-138 349.5,-134.5 339.5,-131 339.5,-138"/>
</g>
<!-- profileService.js -->
<g id="node21" class="node">
<title>profileService.js</title>
<path fill="none" stroke="#ff6c60" d="M270.33,-310C270.33,-310 173.67,-310 173.67,-310 169.83,-310 166,-306.17 166,-302.33 166,-302.33 166,-294.67 166,-294.67 166,-290.83 169.83,-287 173.67,-287 173.67,-287 270.33,-287 270.33,-287 274.17,-287 278,-290.83 278,-294.67 278,-294.67 278,-302.33 278,-302.33 278,-306.17 274.17,-310 270.33,-310"/>
<text text-anchor="middle" x="222" y="-294.8" font-family="Arial" font-size="14.00" fill="#ff6c60">profileService.js</text>
</g>
<!-- profileService.js&#45;&gt;../config/cache.js -->
<g id="edge14" class="edge">
<title>profileService.js&#45;&gt;../config/cache.js</title>
<path fill="none" stroke="#757575" d="M277.91,-310.1C283.9,-312.42 289.73,-315.19 295,-318.5 315.54,-331.39 310.35,-346.78 331,-359.5 335.37,-362.19 340.08,-364.54 344.95,-366.59"/>
<polygon fill="#757575" stroke="#757575" points="343.87,-369.93 354.47,-370.17 346.34,-363.37 343.87,-369.93"/>
</g>
<!-- profileService.js&#45;&gt;../models/Profile.js -->
<g id="edge15" class="edge">
<title>profileService.js&#45;&gt;../models/Profile.js</title>
<path fill="none" stroke="#757575" d="M276.15,-286.97C298.79,-282.06 325.38,-276.29 349,-271.17"/>
<polygon fill="#757575" stroke="#757575" points="349.89,-274.55 358.92,-269.01 348.41,-267.71 349.89,-274.55"/>
</g>
<!-- profileService.js&#45;&gt;auditLogService.js -->
<g id="edge16" class="edge">
<title>profileService.js&#45;&gt;auditLogService.js</title>
<path fill="none" stroke="#757575" d="M240.37,-286.98C256.31,-275.69 279.7,-257.19 295,-236.5 318.67,-204.5 300.55,-180.13 331,-154.5 333.88,-152.07 337.02,-149.93 340.33,-148.04"/>
<polygon fill="#757575" stroke="#757575" points="341.96,-151.14 349.42,-143.62 338.89,-144.85 341.96,-151.14"/>
</g>
<!-- triggerService.js -->
<g id="node22" class="node">
<title>triggerService.js</title>
<path fill="none" stroke="#ff6c60" d="M105.33,-330C105.33,-330 7.67,-330 7.67,-330 3.83,-330 0,-326.17 0,-322.33 0,-322.33 0,-314.67 0,-314.67 0,-310.83 3.83,-307 7.67,-307 7.67,-307 105.33,-307 105.33,-307 109.17,-307 113,-310.83 113,-314.67 113,-314.67 113,-322.33 113,-322.33 113,-326.17 109.17,-330 105.33,-330"/>
<text text-anchor="middle" x="56.5" y="-314.8" font-family="Arial" font-size="14.00" fill="#ff6c60">triggerService.js</text>
</g>
<!-- profileService.js&#45;&gt;triggerService.js -->
<g id="edge17" class="edge">
<title>profileService.js&#45;&gt;triggerService.js</title>
<path fill="none" stroke="#757575" d="M176.52,-310.02C160.23,-312.64 141.42,-315.13 123.64,-317.05"/>
<polygon fill="#757575" stroke="#757575" points="122.9,-313.61 113.31,-318.11 123.62,-320.57 122.9,-313.61"/>
</g>
<!-- triggerService.js&#45;&gt;../config/coin.js -->
<g id="edge18" class="edge">
<title>triggerService.js&#45;&gt;../config/coin.js</title>
<path fill="none" stroke="#757575" d="M66.85,-330.16C82.07,-348.33 114.04,-383.2 149,-401.5 166.75,-410.79 278.08,-434.88 350.09,-449.85"/>
<polygon fill="#757575" stroke="#757575" points="349.47,-453.3 359.98,-451.9 350.9,-446.45 349.47,-453.3"/>
</g>
<!-- triggerService.js&#45;&gt;../models/Trigger.js -->
<g id="edge19" class="edge">
<title>triggerService.js&#45;&gt;../models/Trigger.js</title>
<path fill="none" stroke="#757575" d="M63.7,-330.14C76.58,-353.25 108.43,-405.25 149,-434.5 154.58,-438.52 160.84,-441.98 167.28,-444.94"/>
<polygon fill="#757575" stroke="#757575" points="166.22,-448.29 176.8,-448.92 168.93,-441.83 166.22,-448.29"/>
</g>
<!-- triggerService.js&#45;&gt;aggregationService.js -->
<g id="edge20" class="edge">
<title>triggerService.js&#45;&gt;aggregationService.js</title>
<path fill="none" stroke="#757575" d="M58.95,-306.78C64.21,-268.67 85.45,-146.46 149,-72.5 157.53,-62.57 169.17,-54.63 180.59,-48.52"/>
<polygon fill="#757575" stroke="#757575" points="182.26,-51.61 189.65,-44.02 179.14,-45.34 182.26,-51.61"/>
</g>
<!-- triggerService.js&#45;&gt;coinService.js -->
<g id="edge21" class="edge">
<title>triggerService.js&#45;&gt;coinService.js</title>
<path fill="none" stroke="#757575" d="M80.83,-330.02C99.1,-338.79 125.31,-350.79 149,-359.5 155.01,-361.71 161.38,-363.85 167.73,-365.86"/>
<polygon fill="#757575" stroke="#757575" points="167.08,-369.32 177.66,-368.91 169.13,-362.63 167.08,-369.32"/>
</g>
<!-- triggerService.js&#45;&gt;entryService.js -->
<g id="edge22" class="edge">
<title>triggerService.js&#45;&gt;entryService.js</title>
<path fill="none" stroke="#757575" d="M59.17,-306.95C64.83,-272.13 86.54,-167.29 149,-113.5 152.41,-110.56 156.22,-108.06 160.25,-105.91"/>
<polygon fill="#757575" stroke="#757575" points="161.71,-109.09 169.38,-101.79 158.83,-102.72 161.71,-109.09"/>
</g>
<!-- triggerService.js&#45;&gt;profileService.js -->
<g id="edge23" class="edge">
<title>triggerService.js&#45;&gt;profileService.js</title>
<path fill="none" stroke="#757575" d="M102.18,-306.94C118.69,-304.29 137.77,-301.78 155.74,-299.86"/>
<polygon fill="#757575" stroke="#757575" points="156.28,-303.32 165.87,-298.82 155.57,-296.36 156.28,-303.32"/>
</g>
<!-- userService.js -->
<g id="node23" class="node">
<title>userService.js</title>
<path fill="none" stroke="#c6c5fe" d="M264.83,-351C264.83,-351 179.17,-351 179.17,-351 175.33,-351 171.5,-347.17 171.5,-343.33 171.5,-343.33 171.5,-335.67 171.5,-335.67 171.5,-331.83 175.33,-328 179.17,-328 179.17,-328 264.83,-328 264.83,-328 268.67,-328 272.5,-331.83 272.5,-335.67 272.5,-335.67 272.5,-343.33 272.5,-343.33 272.5,-347.17 268.67,-351 264.83,-351"/>
<text text-anchor="middle" x="222" y="-335.8" font-family="Arial" font-size="14.00" fill="#c6c5fe">userService.js</text>
</g>
<!-- triggerService.js&#45;&gt;userService.js -->
<g id="edge24" class="edge">
<title>triggerService.js&#45;&gt;userService.js</title>
<path fill="none" stroke="#757575" d="M113.31,-325.67C128.79,-327.66 145.66,-329.82 161.35,-331.84"/>
<polygon fill="#757575" stroke="#757575" points="161.1,-335.33 171.46,-333.14 161.99,-328.39 161.1,-335.33"/>
</g>
<!-- userService.js&#45;&gt;../config/cache.js -->
<g id="edge26" class="edge">
<title>userService.js&#45;&gt;../config/cache.js</title>
<path fill="none" stroke="#757575" d="M272.66,-350.27C295.92,-355.32 323.9,-361.39 348.67,-366.76"/>
<polygon fill="#757575" stroke="#757575" points="348.19,-370.24 358.7,-368.94 349.67,-363.4 348.19,-370.24"/>
</g>
<!-- userService.js&#45;&gt;../config/firebase.js -->
<g id="edge27" class="edge">
<title>userService.js&#45;&gt;../config/firebase.js</title>
<path fill="none" stroke="#757575" d="M272.66,-339.5C292.67,-339.5 316.18,-339.5 338.13,-339.5"/>
<polygon fill="#757575" stroke="#757575" points="338.42,-343 348.42,-339.5 338.42,-336 338.42,-343"/>
</g>
<!-- userFcmTokenService.js -->
<g id="node24" class="node">
<title>userFcmTokenService.js</title>
<path fill="none" stroke="#c6c5fe" d="M487.33,-310C487.33,-310 338.67,-310 338.67,-310 334.83,-310 331,-306.17 331,-302.33 331,-302.33 331,-294.67 331,-294.67 331,-290.83 334.83,-287 338.67,-287 338.67,-287 487.33,-287 487.33,-287 491.17,-287 495,-290.83 495,-294.67 495,-294.67 495,-302.33 495,-302.33 495,-306.17 491.17,-310 487.33,-310"/>
<text text-anchor="middle" x="413" y="-294.8" font-family="Arial" font-size="14.00" fill="#c6c5fe">userFcmTokenService.js</text>
</g>
<!-- userService.js&#45;&gt;userFcmTokenService.js -->
<g id="edge28" class="edge">
<title>userService.js&#45;&gt;userFcmTokenService.js</title>
<path fill="none" stroke="#757575" d="M272.66,-328.73C295.92,-323.68 323.9,-317.61 348.67,-312.24"/>
<polygon fill="#757575" stroke="#757575" points="349.67,-315.6 358.7,-310.06 348.19,-308.76 349.67,-315.6"/>
</g>
<!-- userFcmTokenService.js&#45;&gt;../models/UserFcmToken.js -->
<g id="edge25" class="edge">
<title>userFcmTokenService.js&#45;&gt;../models/UserFcmToken.js</title>
<path fill="none" stroke="#757575" d="M495.02,-298.5C503.47,-298.5 512.12,-298.5 520.74,-298.5"/>
<polygon fill="#757575" stroke="#757575" points="520.84,-302 530.84,-298.5 520.84,-295 520.84,-302"/>
</g>
</g>
</svg>
